# This file uses centimeters as units for non-parametric coordinates.

mtllib border.mtl
g default
v -0.500000 -0.500000 -4.500000
v -0.500000 -0.500000 4.500000
v 0.000000 -0.500000 -4.500000
v 0.000000 -0.500000 4.500000
v -0.500000 0.725974 -4.500000
v -0.475002 0.750972 -4.475002
v -0.475002 0.750972 4.475002
v -0.500000 0.725974 4.500000
v -0.024997 0.750972 -4.475002
v 0.000000 0.725974 -4.500000
v -0.024998 0.750972 4.475002
v 0.000000 0.725974 4.500000
vt 0.625000 0.750000
vt 0.375000 1.000000
vt 0.625000 1.000000
vt 0.375000 0.504996
vt 0.375694 0.487501
vt 0.625000 0.000000
vt 0.375000 0.245004
vt 0.375694 0.262499
vt 0.624306 0.262499
vt 0.624306 0.487501
vt 0.625000 0.504996
vt 0.375000 0.750000
vt 0.875000 0.000000
vt 0.875000 0.245004
vt 0.625000 0.245004
vt 0.125000 0.000000
vt 0.375000 0.000000
vt 0.125000 0.245004
vn 0.000000 -1.000000 0.000000
vn 0.000000 -1.000000 0.000000
vn 0.000000 -1.000000 0.000000
vn 0.000000 -1.000000 0.000000
vn 0.000000 0.707111 -0.707103
vn 0.000000 0.707111 -0.707103
vn 0.000000 0.707111 -0.707103
vn 0.000000 0.707111 -0.707103
vn -0.707103 0.707111 -0.000000
vn -0.707103 0.707111 -0.000000
vn -0.707103 0.707111 -0.000000
vn -0.707103 0.707111 -0.000000
vn 0.000000 0.707111 0.707103
vn 0.000000 0.707111 0.707103
vn 0.000000 0.707111 0.707103
vn 0.000000 0.707111 0.707103
vn 0.707103 0.707110 0.000000
vn 0.707103 0.707110 0.000000
vn 0.707103 0.707110 0.000000
vn 0.707103 0.707110 0.000000
vn -1.000000 0.000000 -0.000000
vn -1.000000 0.000000 -0.000000
vn -1.000000 0.000000 -0.000000
vn -1.000000 0.000000 -0.000000
vn 0.000000 1.000000 0.000000
vn 0.000000 1.000000 0.000000
vn 0.000000 1.000000 0.000000
vn 0.000000 1.000000 0.000000
vn 1.000000 0.000000 0.000000
vn 1.000000 0.000000 0.000000
vn 1.000000 0.000000 0.000000
vn 1.000000 0.000000 0.000000
vn 0.000000 0.000000 1.000000
vn 0.000000 0.000000 1.000000
vn 0.000000 0.000000 1.000000
vn 0.000000 0.000000 1.000000
vn 0.000000 0.000000 -1.000000
vn 0.000000 0.000000 -1.000000
vn 0.000000 0.000000 -1.000000
vn 0.000000 0.000000 -1.000000
s off
g border_mesh
usemtl initialShadingGroup
f 3/12/1 4/1/2 2/3/3 1/2/4
f 5/7/5 6/8/6 9/5/7 10/4/8
f 6/8/9 5/7/10 8/15/11 7/9/12
f 7/9/13 8/15/14 12/11/15 11/10/16
f 10/4/17 9/5/18 11/10/19 12/11/20
f 1/17/21 2/6/22 8/15/23 5/7/24
f 6/8/25 7/9/26 11/10/27 9/5/28
f 10/4/29 12/11/30 4/1/31 3/12/32
f 2/6/33 4/13/34 12/14/35 8/15/36
f 3/16/37 1/17/38 5/7/39 10/18/40
