# This file uses centimeters as units for non-parametric coordinates.

v 1.012422 0.500000 1.012422
v 1.012422 -1.000000 1.012422
v 0.000000 0.500000 1.012422
v 0.000000 -1.000000 1.012422
v 0.000000 0.500000 0.000000
v 0.000000 -1.000000 0.000000
v 1.012422 -1.000000 0.000000
v 1.012422 0.500000 0.000000
v -0.475157 -1.000000 -0.475157
v -0.500000 -0.975157 -0.475157
v -0.475157 -0.975157 -0.500000
v -0.500000 -0.975157 0.000000
v -0.475157 -1.000000 0.000000
v -0.477692 -0.012300 -0.500000
v -0.500000 -0.012300 -0.477692
v -0.483872 0.029356 -0.483872
v -0.500000 0.476501 0.009776
v -0.480833 0.500000 -0.019167
v -0.475157 -1.000000 1.012421
v -0.500000 -0.975157 0.987578
v -0.500000 0.475157 0.987578
v -0.475157 0.500000 1.012421
v 0.009776 0.476501 -0.500000
v -0.019167 0.500000 -0.480833
v 1.012421 0.500000 -0.475158
v 0.987578 0.475157 -0.500000
v 0.987578 -0.975157 -0.500000
v 1.012421 -1.000000 -0.475158
v 0.000000 -0.975157 -0.500000
v 0.000000 -1.000000 -0.475157
vt 0.500000 0.500000
vt 0.625000 0.500000
vt 0.625000 0.750000
vt 0.500000 0.750000
vt 0.500000 0.375000
vt 0.625000 0.375000
vt 0.625000 0.875000
vt 0.500000 0.875000
vt 0.750000 0.250000
vt 0.750000 0.000000
vt 0.875000 0.000000
vt 0.875000 0.250000
vt 0.368789 0.000000
vt 0.368789 0.012499
vt 0.250000 0.006211
vt 0.250000 0.000000
vt 0.381211 0.012499
vt 0.381211 0.000000
vt 0.500000 0.000000
vt 0.500000 0.006211
vt 0.380577 0.242089
vt 0.369423 0.242089
vt 0.631211 0.000000
vt 0.618789 0.006211
vt 0.369036 0.250000
vt 0.254701 0.250000
vt 0.247556 0.244125
vt 0.379032 0.254032
vt 0.502444 0.244125
vt 0.495208 0.254792
vt 0.618789 0.243789
vt 0.631211 0.250000
vt 0.250000 0.250000
vt 0.125000 0.250000
vt 0.131211 0.243789
vt 0.125000 0.000000
vt 0.131211 0.006211
vt 0.625000 0.256211
vt 0.625000 0.993789
vt 0.500000 0.993789
vt 0.379792 0.370208
vt 0.381211 0.875000
vt 0.381211 0.993789
vt 0.381211 0.750000
vt 0.381211 0.500000
vn 1.000000 0.000000 0.000000
vn 1.000000 0.000000 0.000000
vn 1.000000 0.000000 0.000000
vn 1.000000 0.000000 0.000000
vn 0.000000 1.000000 0.000000
vn 0.000000 1.000000 0.000000
vn 0.000000 1.000000 0.000000
vn 0.000000 1.000000 0.000000
vn 0.000000 -1.000000 0.000000
vn 0.000000 -1.000000 0.000000
vn 0.000000 -1.000000 0.000000
vn 0.000000 -1.000000 0.000000
vn 0.000000 0.000000 1.000000
vn 0.000000 0.000000 1.000000
vn 0.000000 0.000000 1.000000
vn 0.000000 0.000000 1.000000
vn 0.000000 -0.707110 -0.707104
vn 0.000000 -0.707110 -0.707104
vn 0.000000 -0.707110 -0.707104
vn 0.000000 -0.707110 -0.707104
vn -0.707103 -0.707110 0.000000
vn -0.707103 -0.707110 0.000000
vn -0.707103 -0.707110 0.000000
vn -0.707103 -0.707110 0.000000
vn -0.707105 -0.001862 -0.707106
vn -0.707105 -0.001862 -0.707106
vn -0.707105 -0.001862 -0.707106
vn -0.707105 -0.001862 -0.707106
vn -0.707103 -0.707110 0.000000
vn -0.707103 -0.707110 0.000000
vn -0.707103 -0.707110 0.000000
vn -0.707103 -0.707110 0.000000
vn -0.314818 0.315267 -0.895263
vn -0.314818 0.315267 -0.895263
vn -0.314818 0.315267 -0.895263
vn -0.314818 0.315267 -0.895263
vn -0.895263 0.315268 -0.314818
vn -0.895263 0.315268 -0.314818
vn -0.895263 0.315268 -0.314818
vn -0.895263 0.315268 -0.314818
vn -0.739351 0.673316 0.002539
vn -0.739351 0.673316 0.002539
vn -0.739351 0.673316 0.002539
vn -0.739351 0.673316 0.002539
vn -0.707107 0.000000 0.707107
vn -0.707107 0.000000 0.707107
vn -0.707107 0.000000 0.707107
vn -0.707107 0.000000 0.707107
vn 0.002538 0.673316 -0.739350
vn 0.002538 0.673316 -0.739350
vn 0.002538 0.673316 -0.739350
vn 0.002538 0.673316 -0.739350
vn 0.707107 0.000000 -0.707107
vn 0.707107 0.000000 -0.707107
vn 0.707107 0.000000 -0.707107
vn 0.707107 0.000000 -0.707107
vn 0.000000 -0.707110 -0.707103
vn 0.000000 -0.707110 -0.707103
vn 0.000000 -0.707110 -0.707103
vn 0.000000 -0.707110 -0.707103
vn -1.000000 0.000000 0.000000
vn -1.000000 0.000000 0.000000
vn -1.000000 0.000000 0.000000
vn -1.000000 0.000000 0.000000
vn 0.000000 1.000000 0.000000
vn 0.000000 1.000000 0.000000
vn 0.000000 1.000000 0.000000
vn 0.000000 1.000000 0.000000
vn 0.000000 -1.000000 0.000000
vn 0.000000 -1.000000 0.000000
vn 0.000000 -1.000000 0.000000
vn 0.000000 -1.000000 0.000000
vn -0.000001 0.000000 1.000000
vn -0.000001 0.000000 1.000000
vn -0.000001 0.000000 1.000000
vn -0.000001 0.000000 1.000000
vn -0.000000 0.000000 -1.000000
vn -0.000000 0.000000 -1.000000
vn -0.000000 0.000000 -1.000000
vn -0.000000 0.000000 -1.000000
vn -0.000001 0.000000 -1.000000
vn -0.000001 0.000000 -1.000000
vn -0.000001 0.000000 -1.000000
vn -0.000001 0.000000 -1.000000
vn 0.000000 1.000000 0.000000
vn 0.000000 1.000000 0.000000
vn 0.000000 1.000000 0.000000
vn -1.000000 0.000000 0.000000
vn -1.000000 0.000000 0.000000
vn -1.000000 0.000000 0.000000
vn -1.000000 0.000000 0.000000
vn 0.000000 -1.000000 0.000000
vn 0.000000 -1.000000 0.000000
vn 0.000000 -1.000000 0.000000
vn 0.000000 -1.000000 0.000000
vn 0.000000 -1.000000 0.000000
vn 0.000000 -1.000000 0.000000
vn 0.000000 -1.000000 0.000000
vn 0.000000 -1.000000 0.000000
vn 1.000000 0.000000 -0.000001
vn 1.000000 0.000000 -0.000001
vn 1.000000 0.000000 -0.000001
vn 1.000000 0.000000 -0.000001
vn 0.000000 1.000000 0.000000
vn 0.000000 1.000000 0.000000
vn 0.000000 1.000000 0.000000
vn 0.000000 1.000000 0.000000
vn -0.578536 0.574971 -0.578536
vn -0.578536 0.574971 -0.578536
vn -0.578536 0.574971 -0.578536
vn -0.577348 -0.577353 -0.577350
vn -0.577348 -0.577353 -0.577350
vn -0.577348 -0.577353 -0.577350
vn -0.697234 0.166516 -0.697236
vn -0.697234 0.166516 -0.697236
vn -0.697234 0.166516 -0.697236
f 8/1/1 1/2/2 7/4/3
f 7/4/3 1/2/2 2/3/4
f 8/1/5 5/5/6 1/2/7
f 1/2/7 5/5/6 3/6/8
f 7/4/9 2/3/10 6/8/11
f 6/8/11 2/3/10 4/7/12
f 3/9/13 4/10/14 1/12/15
f 1/12/15 4/10/14 2/11/16
f 9/13/17 11/14/18 30/16/19
f 30/16/19 11/14/18 29/15/20
f 10/17/21 9/18/22 12/20/23
f 12/20/23 9/18/22 13/19/24
f 11/14/25 10/17/26 14/22/27
f 14/22/27 10/17/26 15/21/28
f 12/20/29 13/19/30 20/24/31
f 20/24/31 13/19/30 19/23/32
f 14/22/33 16/25/34 23/27/35
f 23/27/35 16/25/34 24/26/36
f 15/21/37 17/29/38 16/28/39
f 16/28/39 17/29/38 18/30/40
f 18/30/41 17/29/42 22/32/43
f 22/32/43 17/29/42 21/31/44
f 20/24/45 19/23/46 21/31/47
f 21/31/47 19/23/46 22/32/48
f 24/33/49 25/34/50 23/27/51
f 23/27/51 25/34/50 26/35/52
f 26/35/53 25/34/54 27/37/55
f 27/37/55 25/34/54 28/36/56
f 28/36/57 30/16/58 27/37/59
f 27/37/59 30/16/58 29/15/60
f 12/20/61 20/24/62 17/29/63
f 17/29/63 20/24/62 21/31/64
f 18/30/65 22/38/66 5/5/67
f 5/5/67 22/38/66 3/6/68
f 6/8/69 4/7/70 13/40/71
f 13/40/71 4/7/70 19/39/72
f 19/23/73 4/10/74 22/32/75
f 22/32/75 4/10/74 3/9/76
f 11/14/77 14/22/78 29/15/79
f 29/15/79 14/22/78 23/27/80
f 29/15/81 23/27/82 27/37/83
f 27/37/83 23/27/82 26/35/84
f 24/41/85 18/30/86 5/5/87
f 10/17/88 12/20/89 15/21/90
f 15/21/90 12/20/89 17/29/91
f 30/42/92 6/8/93 9/43/94
f 9/43/94 6/8/93 13/40/95
f 28/44/96 7/4/97 30/42/98
f 30/42/98 7/4/97 6/8/99
f 25/45/100 8/1/101 28/44/102
f 28/44/102 8/1/101 7/4/103
f 24/41/104 5/5/105 25/45/106
f 25/45/106 5/5/105 8/1/107
f 16/28/108 18/30/109 24/41/110
f 9/13/111 10/17/112 11/14/113
f 14/22/114 15/21/115 16/25/116
v 1.012422 0.500000 1.012422
v 1.012422 -1.000000 1.012422
v 0.000000 0.500000 1.012422
v 0.000000 -1.000000 1.012422
v 0.000000 0.500000 0.000000
v 0.000000 -1.000000 0.000000
v 1.012422 -1.000000 0.000000
v 1.012422 0.500000 0.000000
v -0.475157 -1.000000 -0.475157
v -0.500000 -0.975157 -0.475157
v -0.475157 -0.975157 -0.500000
v -0.500000 -0.975157 0.000000
v -0.475157 -1.000000 0.000000
v -0.477692 -0.012300 -0.500000
v -0.500000 -0.012300 -0.477692
v -0.483872 0.029356 -0.483872
v -0.500000 0.476501 0.009776
v -0.480833 0.500000 -0.019167
v -0.475157 -1.000000 1.012421
v -0.500000 -0.975157 0.987578
v -0.500000 0.475157 0.987578
v -0.475157 0.500000 1.012421
v 0.009776 0.476501 -0.500000
v -0.019167 0.500000 -0.480833
v 1.012421 0.500000 -0.475158
v 0.987578 0.475157 -0.500000
v 0.987578 -0.975157 -0.500000
v 1.012421 -1.000000 -0.475158
v 0.000000 -0.975157 -0.500000
v 0.000000 -1.000000 -0.475157
vt 0.500000 0.500000
vt 0.625000 0.500000
vt 0.625000 0.750000
vt 0.500000 0.750000
vt 0.500000 0.375000
vt 0.625000 0.375000
vt 0.625000 0.875000
vt 0.500000 0.875000
vt 0.750000 0.250000
vt 0.750000 0.000000
vt 0.875000 0.000000
vt 0.875000 0.250000
vt 0.368789 0.000000
vt 0.368789 0.012499
vt 0.250000 0.006211
vt 0.250000 0.000000
vt 0.381211 0.012499
vt 0.381211 0.000000
vt 0.500000 0.000000
vt 0.500000 0.006211
vt 0.380577 0.242089
vt 0.369423 0.242089
vt 0.631211 0.000000
vt 0.618789 0.006211
vt 0.369036 0.250000
vt 0.254701 0.250000
vt 0.247556 0.244125
vt 0.379032 0.254032
vt 0.502444 0.244125
vt 0.495208 0.254792
vt 0.618789 0.243789
vt 0.631211 0.250000
vt 0.250000 0.250000
vt 0.125000 0.250000
vt 0.131211 0.243789
vt 0.125000 0.000000
vt 0.131211 0.006211
vt 0.625000 0.256211
vt 0.625000 0.993789
vt 0.500000 0.993789
vt 0.379792 0.370208
vt 0.381211 0.875000
vt 0.381211 0.993789
vt 0.381211 0.750000
vt 0.381211 0.500000
vn 1.000000 0.000000 0.000000
vn 1.000000 0.000000 0.000000
vn 1.000000 0.000000 0.000000
vn 1.000000 0.000000 0.000000
vn 0.000000 1.000000 0.000000
vn 0.000000 1.000000 0.000000
vn 0.000000 1.000000 0.000000
vn 0.000000 1.000000 0.000000
vn 0.000000 -1.000000 0.000000
vn 0.000000 -1.000000 0.000000
vn 0.000000 -1.000000 0.000000
vn 0.000000 -1.000000 0.000000
vn 0.000000 0.000000 1.000000
vn 0.000000 0.000000 1.000000
vn 0.000000 0.000000 1.000000
vn 0.000000 0.000000 1.000000
vn 0.000000 -0.707110 -0.707104
vn 0.000000 -0.707110 -0.707104
vn 0.000000 -0.707110 -0.707104
vn 0.000000 -0.707110 -0.707104
vn -0.707103 -0.707110 0.000000
vn -0.707103 -0.707110 0.000000
vn -0.707103 -0.707110 0.000000
vn -0.707103 -0.707110 0.000000
vn -0.707105 -0.001862 -0.707106
vn -0.707105 -0.001862 -0.707106
vn -0.707105 -0.001862 -0.707106
vn -0.707105 -0.001862 -0.707106
vn -0.707103 -0.707110 0.000000
vn -0.707103 -0.707110 0.000000
vn -0.707103 -0.707110 0.000000
vn -0.707103 -0.707110 0.000000
vn -0.314818 0.315267 -0.895263
vn -0.314818 0.315267 -0.895263
vn -0.314818 0.315267 -0.895263
vn -0.314818 0.315267 -0.895263
vn -0.895263 0.315268 -0.314818
vn -0.895263 0.315268 -0.314818
vn -0.895263 0.315268 -0.314818
vn -0.895263 0.315268 -0.314818
vn -0.739351 0.673316 0.002539
vn -0.739351 0.673316 0.002539
vn -0.739351 0.673316 0.002539
vn -0.739351 0.673316 0.002539
vn -0.707107 0.000000 0.707107
vn -0.707107 0.000000 0.707107
vn -0.707107 0.000000 0.707107
vn -0.707107 0.000000 0.707107
vn 0.002538 0.673316 -0.739350
vn 0.002538 0.673316 -0.739350
vn 0.002538 0.673316 -0.739350
vn 0.002538 0.673316 -0.739350
vn 0.707107 0.000000 -0.707107
vn 0.707107 0.000000 -0.707107
vn 0.707107 0.000000 -0.707107
vn 0.707107 0.000000 -0.707107
vn 0.000000 -0.707110 -0.707103
vn 0.000000 -0.707110 -0.707103
vn 0.000000 -0.707110 -0.707103
vn 0.000000 -0.707110 -0.707103
vn -1.000000 0.000000 0.000000
vn -1.000000 0.000000 0.000000
vn -1.000000 0.000000 0.000000
vn -1.000000 0.000000 0.000000
vn 0.000000 1.000000 0.000000
vn 0.000000 1.000000 0.000000
vn 0.000000 1.000000 0.000000
vn 0.000000 1.000000 0.000000
vn 0.000000 -1.000000 0.000000
vn 0.000000 -1.000000 0.000000
vn 0.000000 -1.000000 0.000000
vn 0.000000 -1.000000 0.000000
vn -0.000001 0.000000 1.000000
vn -0.000001 0.000000 1.000000
vn -0.000001 0.000000 1.000000
vn -0.000001 0.000000 1.000000
vn -0.000000 0.000000 -1.000000
vn -0.000000 0.000000 -1.000000
vn -0.000000 0.000000 -1.000000
vn -0.000000 0.000000 -1.000000
vn -0.000001 0.000000 -1.000000
vn -0.000001 0.000000 -1.000000
vn -0.000001 0.000000 -1.000000
vn -0.000001 0.000000 -1.000000
vn 0.000000 1.000000 0.000000
vn 0.000000 1.000000 0.000000
vn 0.000000 1.000000 0.000000
vn -1.000000 0.000000 0.000000
vn -1.000000 0.000000 0.000000
vn -1.000000 0.000000 0.000000
vn -1.000000 0.000000 0.000000
vn 0.000000 -1.000000 0.000000
vn 0.000000 -1.000000 0.000000
vn 0.000000 -1.000000 0.000000
vn 0.000000 -1.000000 0.000000
vn 0.000000 -1.000000 0.000000
vn 0.000000 -1.000000 0.000000
vn 0.000000 -1.000000 0.000000
vn 0.000000 -1.000000 0.000000
vn 1.000000 0.000000 -0.000001
vn 1.000000 0.000000 -0.000001
vn 1.000000 0.000000 -0.000001
vn 1.000000 0.000000 -0.000001
vn 0.000000 1.000000 0.000000
vn 0.000000 1.000000 0.000000
vn 0.000000 1.000000 0.000000
vn 0.000000 1.000000 0.000000
vn -0.578536 0.574971 -0.578536
vn -0.578536 0.574971 -0.578536
vn -0.578536 0.574971 -0.578536
vn -0.577348 -0.577353 -0.577350
vn -0.577348 -0.577353 -0.577350
vn -0.577348 -0.577353 -0.577350
vn -0.697234 0.166516 -0.697236
vn -0.697234 0.166516 -0.697236
vn -0.697234 0.166516 -0.697236
f 38/46/117 31/47/118 37/49/119
f 37/49/119 31/47/118 32/48/120
f 38/46/121 35/50/122 31/47/123
f 31/47/123 35/50/122 33/51/124
f 37/49/125 32/48/126 36/53/127
f 36/53/127 32/48/126 34/52/128
f 33/54/129 34/55/130 31/57/131
f 31/57/131 34/55/130 32/56/132
f 39/58/133 41/59/134 60/61/135
f 60/61/135 41/59/134 59/60/136
f 40/62/137 39/63/138 42/65/139
f 42/65/139 39/63/138 43/64/140
f 41/59/141 40/62/142 44/67/143
f 44/67/143 40/62/142 45/66/144
f 42/65/145 43/64/146 50/69/147
f 50/69/147 43/64/146 49/68/148
f 44/67/149 46/70/150 53/72/151
f 53/72/151 46/70/150 54/71/152
f 45/66/153 47/74/154 46/73/155
f 46/73/155 47/74/154 48/75/156
f 48/75/157 47/74/158 52/77/159
f 52/77/159 47/74/158 51/76/160
f 50/69/161 49/68/162 51/76/163
f 51/76/163 49/68/162 52/77/164
f 54/78/165 55/79/166 53/72/167
f 53/72/167 55/79/166 56/80/168
f 56/80/169 55/79/170 57/82/171
f 57/82/171 55/79/170 58/81/172
f 58/81/173 60/61/174 57/82/175
f 57/82/175 60/61/174 59/60/176
f 42/65/177 50/69/178 47/74/179
f 47/74/179 50/69/178 51/76/180
f 48/75/181 52/83/182 35/50/183
f 35/50/183 52/83/182 33/51/184
f 36/53/185 34/52/186 43/85/187
f 43/85/187 34/52/186 49/84/188
f 49/68/189 34/55/190 52/77/191
f 52/77/191 34/55/190 33/54/192
f 41/59/193 44/67/194 59/60/195
f 59/60/195 44/67/194 53/72/196
f 59/60/197 53/72/198 57/82/199
f 57/82/199 53/72/198 56/80/200
f 54/86/201 48/75/202 35/50/203
f 40/62/204 42/65/205 45/66/206
f 45/66/206 42/65/205 47/74/207
f 60/87/208 36/53/209 39/88/210
f 39/88/210 36/53/209 43/85/211
f 58/89/212 37/49/213 60/87/214
f 60/87/214 37/49/213 36/53/215
f 55/90/216 38/46/217 58/89/218
f 58/89/218 38/46/217 37/49/219
f 54/86/220 35/50/221 55/90/222
f 55/90/222 35/50/221 38/46/223
f 46/73/224 48/75/225 54/86/226
f 39/58/227 40/62/228 41/59/229
f 44/67/230 45/66/231 46/70/232
