# This file uses centimeters as units for non-parametric coordinates.

mtllib dirt_patch_small.mtl
g default
v -0.932397 -0.014406 1.154599
v 0.772799 -0.112275 1.390465
v -0.731289 -0.000481 -1.281783
v 1.106361 -0.007374 -1.191650
v -0.343121 0.164759 -0.675101
v -0.400738 0.087124 0.672857
v 0.364629 0.099815 0.812695
v 0.436442 0.205152 -0.581172
v -1.210171 -0.073260 -0.335377
v -0.391233 0.079971 -0.085952
v 0.596296 0.069416 0.116733
v 1.214876 -0.112275 0.284600
v 0.056620 0.044796 0.024050
v 0.137533 0.033246 -1.565744
v 0.048400 0.302076 -0.776581
v 0.014070 0.151983 0.835437
v 0.161587 -0.112275 1.602698
v -1.095541 -0.302076 1.480280
v 0.190417 -0.302076 1.907229
v -1.510067 -0.302076 -0.295267
v 0.970952 -0.302076 1.632939
v 1.510067 -0.302076 0.306927
v -0.945462 -0.302076 -1.522530
v 0.163579 -0.302076 -1.907229
v 1.397693 -0.302076 -1.485621
vt 0.805444 0.858376
vt 0.764391 0.747102
vt 0.812587 0.707201
vt 0.930791 0.772191
vt 0.563201 0.730413
vt 0.676207 0.664067
vt 0.704535 0.746722
vt 0.670655 0.849168
vt 0.813973 0.599453
vt 0.902102 0.551213
vt 0.737531 0.631486
vt 0.703776 0.517357
vt 0.696329 0.396192
vt 0.793472 0.405496
vt 0.754460 0.507582
vt 0.558217 0.504506
vt 0.650213 0.555276
vt 0.507199 0.457430
vt 0.687174 0.342486
vt 0.506101 0.739032
vt 0.817977 0.356001
vt 0.952642 0.533775
vt 0.827115 0.926976
vt 0.638862 0.907438
vt 0.998008 0.808068
vn -0.011996 0.995920 -0.089436
vn 0.225755 0.974158 0.007071
vn 0.024635 0.871589 -0.489618
vn 0.400160 0.893542 -0.203604
vn -0.111133 0.992577 0.049398
vn -0.261661 0.963669 0.053619
vn -0.442443 0.894994 -0.056831
vn -0.361661 0.857602 -0.365677
vn 0.414113 0.905720 0.090451
vn 0.142409 0.986514 0.080683
vn -0.018436 0.996844 0.077220
vn -0.005839 0.987452 0.157811
vn -0.028153 0.902155 0.430492
vn 0.204873 0.972435 0.111346
vn 0.321127 0.909364 0.264450
vn -0.397882 0.879407 0.261407
vn -0.154635 0.987799 -0.018499
vn -0.466237 0.769747 0.436018
vn -0.043673 0.845704 0.531862
vn -0.631194 0.774415 -0.043311
vn 0.558887 0.824698 0.086709
vn 0.396963 0.851642 0.342237
vn 0.037821 0.733188 -0.678974
vn -0.450792 0.734865 -0.506715
vn 0.481079 0.810030 -0.335282
s 1
g dirt_patch_small
usemtl initialShadingGroup
f 15/2/1 8/3/2 14/1/3
f 14/1/3 8/3/2 4/4/4
f 10/6/5 5/7/6 9/5/7
f 9/5/7 5/7/6 3/8/8
f 4/4/4 8/3/2 12/10/9
f 12/10/9 8/3/2 11/9/10
f 15/2/1 13/11/11 8/3/2
f 8/3/2 13/11/11 11/9/10
f 16/12/12 17/13/13 7/15/14
f 7/15/14 17/13/13 2/14/15
f 1/16/16 6/17/17 9/5/7
f 9/5/7 6/17/17 10/6/5
f 16/12/12 7/15/14 13/11/11
f 13/11/11 7/15/14 11/9/10
f 11/9/10 7/15/14 12/10/9
f 12/10/9 7/15/14 2/14/15
f 5/7/6 15/2/1 3/8/8
f 3/8/8 15/2/1 14/1/3
f 10/6/5 13/11/11 5/7/6
f 5/7/6 13/11/11 15/2/1
f 16/12/12 13/11/11 6/17/17
f 6/17/17 13/11/11 10/6/5
f 17/13/13 16/12/12 1/16/16
f 1/16/16 16/12/12 6/17/17
f 1/16/16 18/18/18 17/13/13
f 17/13/13 18/18/18 19/19/19
f 9/5/7 20/20/20 1/16/16
f 1/16/16 20/20/20 18/18/18
f 12/10/9 2/14/15 22/22/21
f 22/22/21 2/14/15 21/21/22
f 14/1/3 24/23/23 3/8/8
f 3/8/8 24/23/23 23/24/24
f 3/8/8 23/24/24 9/5/7
f 9/5/7 23/24/24 20/20/20
f 12/10/9 22/22/21 4/4/4
f 4/4/4 22/22/21 25/25/25
f 14/1/3 4/4/4 24/23/23
f 24/23/23 4/4/4 25/25/25
f 17/13/13 19/19/19 2/14/15
f 2/14/15 19/19/19 21/21/22
