# This file uses centimeters as units for non-parametric coordinates.

mtllib dirt_patch_big.mtl
g default
v -0.817939 -0.071027 1.766194
v 0.935755 -0.071027 1.698447
v -1.011411 -0.071027 -1.686360
v 1.079249 -0.071027 -1.686360
v -0.548533 0.123930 -0.792270
v -0.442015 0.235880 1.128768
v 0.559625 0.176958 0.927446
v 0.405976 0.211882 -0.791477
v -1.394007 -0.071027 0.183640
v -0.685314 0.069306 0.184374
v 0.774247 0.121369 0.158208
v 1.394007 -0.071027 0.156392
v 0.235140 0.046904 0.150349
v 0.060799 -0.071027 -2.133140
v -0.008483 0.236807 -0.950704
v 0.158752 0.260828 1.094011
v 0.136148 -0.071027 2.133140
v -0.991143 -0.260828 2.081021
v 0.164979 -0.260828 2.513376
v -1.689198 -0.260828 0.216374
v 1.133908 -0.260828 2.001198
v 1.689198 -0.260828 0.184269
v -1.225584 -0.260828 -1.986957
v 0.073674 -0.260828 -2.513376
v 1.307788 -0.260828 -1.986957
vt 0.190173 0.679557
vt 0.224801 0.503539
vt 0.288551 0.495900
vt 0.354496 0.653035
vt 0.062498 0.288764
vt 0.167349 0.316431
vt 0.152909 0.461971
vt 0.051354 0.575615
vt 0.377475 0.373810
vt 0.472120 0.397694
vt 0.298324 0.355155
vt 0.321962 0.217558
vt 0.358020 0.062807
vt 0.459413 0.154504
vt 0.373127 0.255181
vt 0.205293 0.080518
vt 0.240117 0.191875
vt 0.187082 0.022226
vt 0.377735 0.001850
vt 0.012575 0.270678
vt 0.506434 0.114288
vt 0.524638 0.406269
vt 0.176163 0.741756
vt 0.001992 0.613704
vt 0.381394 0.710699
vn -0.007666 0.944586 -0.328176
vn -0.030280 0.993590 -0.108911
vn 0.169501 0.983397 -0.064801
vn 0.326245 0.925647 -0.191683
vn -0.426001 0.904539 0.018251
vn -0.200515 0.979674 -0.005744
vn -0.167585 0.985003 -0.041041
vn -0.317688 0.926832 -0.200144
vn 0.245376 0.969421 0.003753
vn 0.435253 0.900240 0.011120
vn -0.038412 0.999160 -0.014302
vn 0.032262 0.994797 0.096631
vn 0.025585 0.926017 0.376613
vn 0.356279 0.906136 0.227999
vn 0.224786 0.971334 0.077339
vn -0.316747 0.912995 0.257120
vn -0.179111 0.980562 0.080115
vn -0.348237 0.876069 0.333517
vn 0.018416 0.897894 0.439826
vn -0.547327 0.836204 0.034580
vn 0.382624 0.874998 0.296609
vn 0.546576 0.837003 0.026103
vn 0.003306 0.897874 -0.440240
vn -0.370766 0.881509 -0.292362
vn 0.374105 0.885549 -0.275405
s 1
g dirt_patch_big
usemtl initialShadingGroup
f 14/1/1 15/2/2 8/3/3 4/4/4
f 9/5/5 10/6/6 5/7/7 3/8/8
f 4/4/4 8/3/3 11/9/9 12/10/10
f 15/2/2 13/11/11 11/9/9 8/3/3
f 16/12/12 17/13/13 2/14/14 7/15/15
f 1/16/16 6/17/17 10/6/6 9/5/5
f 13/11/11 16/12/12 7/15/15 11/9/9
f 12/10/10 11/9/9 7/15/15 2/14/14
f 5/7/7 15/2/2 14/1/1 3/8/8
f 10/6/6 13/11/11 15/2/2 5/7/7
f 6/17/17 16/12/12 13/11/11 10/6/6
f 1/16/16 17/13/13 16/12/12 6/17/17
f 17/13/13 1/16/16 18/18/18 19/19/19
f 1/16/16 9/5/5 20/20/20 18/18/18
f 12/10/10 2/14/14 21/21/21 22/22/22
f 3/8/8 14/1/1 24/23/23 23/24/24
f 9/5/5 3/8/8 23/24/24 20/20/20
f 4/4/4 12/10/10 22/22/22 25/25/25
f 14/1/1 4/4/4 25/25/25 24/23/23
f 2/14/14 17/13/13 19/19/19 21/21/21
