# This file uses centimeters as units for non-parametric coordinates.

mtllib fern_small.mtl
g default
v 0.013930 -0.000000 -0.035220
v 0.022213 -0.000000 0.030677
v 0.075708 0.081228 -0.046623
v 0.084891 0.081228 0.026439
v 0.185687 0.129917 -0.137146
v 0.213849 0.129917 0.086931
v 0.315955 0.134486 -0.171008
v 0.348445 0.134486 0.087505
v 0.448531 0.066915 -0.152384
v 0.472290 0.066915 0.036653
v 0.005807 -0.000000 -0.000730
v 0.073553 0.092807 -0.009244
v 0.189301 0.166909 -0.023792
v 0.340210 0.172205 -0.042759
v 0.530014 0.069985 -0.066614
v 0.023536 -0.000000 0.029674
v -0.037673 -0.000000 0.003898
v 0.002522 0.081228 0.088878
v -0.065342 0.081228 0.060299
v 0.025928 0.129917 0.229382
v -0.182209 0.129917 0.141733
v -0.009880 0.134486 0.359129
v -0.250004 0.134486 0.258011
v -0.092297 0.066915 0.464631
v -0.267888 0.066915 0.390688
v -0.002272 -0.000000 0.005394
v -0.028770 0.092807 0.068320
v -0.074047 0.166909 0.175836
v -0.133075 0.172205 0.316010
v -0.207318 0.069985 0.492312
v -0.037467 -0.000000 0.005546
v 0.015461 -0.000000 -0.034575
v -0.078231 0.081228 -0.042254
v -0.019549 0.081228 -0.086737
v -0.211615 0.129917 -0.092236
v -0.031640 0.129917 -0.228664
v -0.306075 0.134486 -0.188121
v -0.098441 0.134486 -0.345515
v -0.356235 0.066915 -0.312247
v -0.204402 0.066915 -0.427341
v -0.003536 -0.000000 -0.004664
v -0.044782 0.092807 -0.059076
v -0.115255 0.166909 -0.152044
v -0.207135 0.172205 -0.273252
v -0.322695 0.069985 -0.425699
vt 0.129227 0.003606
vt 0.157389 0.001992
vt 0.157375 0.225739
vt 0.128683 0.231553
vt 0.157406 0.471440
vt 0.019831 0.468992
vt 0.157441 0.710470
vt 0.001891 0.722730
vt 0.157422 0.998008
vt 0.039341 0.926875
vt 0.185543 0.003579
vt 0.186244 0.231533
vt 0.295061 0.468996
vt 0.312970 0.722738
vt 0.275506 0.926883
vt 0.445578 0.003606
vt 0.473740 0.001992
vt 0.473726 0.225739
vt 0.445033 0.231553
vt 0.473757 0.471440
vt 0.336182 0.468992
vt 0.473792 0.710470
vt 0.318242 0.722730
vt 0.473773 0.998008
vt 0.355692 0.926875
vt 0.501894 0.003579
vt 0.502595 0.231533
vt 0.611412 0.468996
vt 0.629321 0.722738
vt 0.591857 0.926883
vt 0.763810 0.003606
vt 0.791972 0.001992
vt 0.791957 0.225739
vt 0.763265 0.231553
vt 0.791989 0.471440
vt 0.654414 0.468992
vt 0.792024 0.710470
vt 0.636474 0.722730
vt 0.792004 0.998008
vt 0.673924 0.926875
vt 0.820125 0.003579
vt 0.820826 0.231533
vt 0.929643 0.468996
vt 0.947553 0.722738
vt 0.910089 0.926884
vn -0.799207 0.592602 0.100453
vn -0.647992 0.757280 0.081444
vn -0.799393 0.568203 -0.195235
vn -0.615363 0.747878 -0.249010
vn -0.263906 0.963978 0.033168
vn -0.259008 0.924688 -0.279045
vn 0.249965 0.967745 -0.031416
vn 0.194774 0.930414 -0.310473
vn 0.417463 0.825332 -0.380199
vn 0.467609 0.881980 -0.058770
vn -0.726215 0.568200 0.386989
vn -0.534605 0.747877 0.393544
vn -0.181901 0.924688 0.334460
vn 0.265543 0.930414 0.252620
vn 0.498561 0.825334 0.265069
vn 0.312616 0.592602 -0.742357
vn 0.253467 0.757280 -0.601898
vn 0.568789 0.568199 -0.594667
vn 0.523336 0.747877 -0.408411
vn 0.103228 0.963978 -0.245133
vn 0.371164 0.924689 -0.084786
vn -0.097775 0.967745 0.232184
vn 0.171491 0.930414 0.323915
vn 0.120530 0.825332 0.551633
vn -0.182908 0.881979 0.434347
vn 0.027960 0.568199 -0.822416
vn -0.073520 0.747877 -0.659754
vn -0.198700 0.924688 -0.324761
vn -0.351547 0.930414 0.103658
vn -0.478838 0.825333 0.299233
vn 0.486589 0.592603 0.641913
vn 0.394525 0.757280 0.520458
vn 0.230603 0.568200 0.789918
vn 0.092030 0.747878 0.657426
vn 0.160677 0.963978 0.211965
vn -0.112155 0.924689 0.363830
vn -0.152190 0.967745 -0.200768
vn -0.366264 0.930414 -0.013442
vn -0.537991 0.825333 -0.171436
vn -0.284702 0.881979 -0.375576
vn 0.698247 0.568202 0.435428
vn 0.608119 0.747879 0.266212
vn 0.380601 0.924688 -0.009698
vn 0.086003 0.930414 -0.356277
vn -0.019723 0.825332 -0.564303
s 1
g fern_small
usemtl fern_small_sg
f 11/2/1 12/3/2 1/1/3
f 1/1/3 12/3/2 3/4/4
f 12/3/2 13/5/5 3/4/4
f 3/4/4 13/5/5 5/6/6
f 13/5/5 14/7/7 5/6/6
f 5/6/6 14/7/7 7/8/8
f 7/8/8 14/7/7 9/10/9
f 9/10/9 14/7/7 15/9/10
f 11/2/1 2/11/11 12/3/2
f 12/3/2 2/11/11 4/12/12
f 12/3/2 4/12/12 13/5/5
f 13/5/5 4/12/12 6/13/13
f 13/5/5 6/13/13 14/7/7
f 14/7/7 6/13/13 8/14/14
f 15/9/10 14/7/7 10/15/15
f 10/15/15 14/7/7 8/14/14
s 2
f 26/17/16 27/18/17 16/16/18
f 16/16/18 27/18/17 18/19/19
f 27/18/17 28/20/20 18/19/19
f 18/19/19 28/20/20 20/21/21
f 28/20/20 29/22/22 20/21/21
f 20/21/21 29/22/22 22/23/23
f 22/23/23 29/22/22 24/25/24
f 24/25/24 29/22/22 30/24/25
f 26/17/16 17/26/26 27/18/17
f 27/18/17 17/26/26 19/27/27
f 27/18/17 19/27/27 28/20/20
f 28/20/20 19/27/27 21/28/28
f 28/20/20 21/28/28 29/22/22
f 29/22/22 21/28/28 23/29/29
f 30/24/25 29/22/22 25/30/30
f 25/30/30 29/22/22 23/29/29
s 3
f 41/32/31 42/33/32 31/31/33
f 31/31/33 42/33/32 33/34/34
f 42/33/32 43/35/35 33/34/34
f 33/34/34 43/35/35 35/36/36
f 43/35/35 44/37/37 35/36/36
f 35/36/36 44/37/37 37/38/38
f 37/38/38 44/37/37 39/40/39
f 39/40/39 44/37/37 45/39/40
f 41/32/31 32/41/41 42/33/32
f 42/33/32 32/41/41 34/42/42
f 42/33/32 34/42/42 43/35/35
f 43/35/35 34/42/42 36/43/43
f 43/35/35 36/43/43 44/37/37
f 44/37/37 36/43/43 38/44/44
f 45/39/40 44/37/37 40/45/45
f 40/45/45 44/37/37 38/44/44
