# This file uses centimeters as units for non-parametric coordinates.

mtllib five.mtl
g default
v 0.063308 0.000082 -0.054862
v 0.063308 -0.109644 -0.054862
v 0.031157 -0.081714 -0.054862
v 0.031157 -0.032201 -0.054862
v -0.061640 -0.111227 -0.054862
v -0.061640 -0.081714 -0.054862
v -0.051295 -0.032201 -0.054862
v -0.058793 -0.001425 -0.054862
v -0.033302 0.080311 -0.054862
v -0.064404 0.109028 -0.054862
v -0.033302 0.005857 -0.054862
v -0.064404 0.005857 -0.054862
v 0.064404 0.080311 -0.054862
v 0.064404 0.111227 -0.054862
v 0.036984 -0.087542 0.054862
v 0.031157 -0.081714 0.049034
v 0.031157 -0.032201 0.049034
v 0.036984 -0.026373 0.054862
v 0.063308 -0.109644 0.049034
v 0.057480 -0.103890 0.054862
v 0.057480 -0.005818 0.054862
v 0.063308 0.000082 0.049034
v -0.061640 -0.111227 0.049034
v -0.055812 -0.105325 0.054862
v -0.055812 -0.087542 0.054862
v -0.061640 -0.081714 0.049034
v -0.051295 -0.032201 0.049034
v -0.046717 -0.026373 0.054862
v -0.051397 -0.007161 0.054862
v -0.058793 -0.001425 0.049034
v -0.039130 0.011685 0.054862
v -0.033302 0.005857 0.049034
v -0.058577 0.011685 0.054862
v -0.064404 0.005857 0.049034
v -0.039130 0.086139 0.054862
v -0.033302 0.080311 0.049034
v -0.064404 0.109028 0.049034
v -0.058577 0.103299 0.054862
v 0.058577 0.086139 0.054862
v 0.064404 0.080311 0.049034
v 0.058577 0.105299 0.054862
v 0.064404 0.111227 0.049034
vt 0.625585 0.485476
vt 0.611869 0.507879
vt 0.548458 0.522257
vt 0.553116 0.500109
vt 0.719979 0.549065
vt 0.723792 0.629463
vt 0.657343 0.620885
vt 0.655871 0.560461
vt 0.634722 0.568781
vt 0.632696 0.608631
vt 0.561561 0.608122
vt 0.568919 0.579516
vt 0.609068 0.661369
vt 0.622377 0.685245
vt 0.688191 0.709596
vt 0.543243 0.656684
vt 0.248991 0.554544
vt 0.264125 0.625706
vt 0.242842 0.686074
vt 0.185666 0.560746
vt 0.315210 0.514098
vt 0.333653 0.563606
vt 0.283136 0.612509
vt 0.270513 0.561471
vt 0.389148 0.594593
vt 0.398717 0.614942
vt 0.347839 0.665601
vt 0.344529 0.641944
vt 0.639144 0.564589
vt 0.616942 0.507889
vt 0.636649 0.613754
vt 0.623937 0.495649
vt 0.650172 0.561365
vt 0.651179 0.619592
vt 0.614218 0.661554
vt 0.621343 0.675167
vt 0.266800 0.565179
vt 0.278975 0.615911
vt 0.255336 0.561935
vt 0.340151 0.644992
vt 0.268467 0.622470
vt 0.342404 0.657931
vt 0.322858 0.726917
vt 0.197093 0.627973
vt 0.297408 0.503291
vt 0.548586 0.676848
vt 0.690181 0.467522
vn 0.000000 0.707098 0.707115
vn 0.000000 0.707098 0.707115
vn 0.000000 0.707098 0.707115
vn 0.000000 0.707098 0.707115
vn -0.707128 0.000000 0.707086
vn -0.707128 0.000000 0.707086
vn -0.707128 0.000000 0.707086
vn -0.707128 0.000000 0.707086
vn 0.000000 -0.707099 0.707115
vn 0.000000 -0.707099 0.707115
vn 0.000000 -0.707099 0.707115
vn 0.000000 -0.707099 0.707115
vn 0.008959 -0.707045 0.707112
vn 0.008958 -0.707051 0.707106
vn 0.008959 -0.707046 0.707111
vn 0.008958 -0.707051 0.707106
vn 0.707099 0.000000 0.707115
vn 0.707099 0.000000 0.707115
vn 0.707099 0.000000 0.707115
vn 0.707099 0.000000 0.707115
vn -0.008726 0.707053 0.707107
vn -0.008726 0.707053 0.707107
vn -0.008727 0.707059 0.707101
vn -0.008727 0.707059 0.707101
vn -0.707098 0.000000 0.707115
vn -0.707098 0.000000 0.707115
vn -0.707099 0.000000 0.707115
vn -0.707099 0.000000 0.707115
vn -0.687009 -0.167360 0.707113
vn -0.687014 -0.167359 0.707109
vn -0.687011 -0.167359 0.707111
vn -0.687014 -0.167359 0.707109
vn 0.707128 0.000000 0.707086
vn 0.707128 0.000000 0.707086
vn 0.707128 0.000000 0.707086
vn 0.707128 0.000000 0.707086
vn 0.000000 -0.707113 0.707100
vn 0.000000 -0.707113 0.707100
vn 0.000000 -0.707113 0.707101
vn 0.000000 -0.707113 0.707101
vn -0.707127 0.000000 0.707086
vn -0.707127 0.000000 0.707086
vn -0.707128 0.000000 0.707086
vn -0.707128 0.000000 0.707086
vn 0.000000 -0.707113 0.707100
vn 0.000000 -0.707113 0.707100
vn 0.000000 -0.707113 0.707100
vn 0.000000 -0.707113 0.707100
vn -0.012069 0.707014 0.707096
vn -0.012070 0.707008 0.707102
vn -0.012069 0.707014 0.707097
vn -0.012070 0.707008 0.707102
vn 0.707127 0.000000 0.707086
vn 0.707128 0.000000 0.707086
vn 0.707128 0.000000 0.707086
vn 0.707128 0.000000 0.707086
vn -1.000000 0.000000 0.000000
vn -1.000000 0.000000 0.000000
vn -1.000000 0.000000 0.000000
vn -1.000000 0.000000 0.000000
vn -0.000000 0.000000 1.000000
vn -0.000000 0.000000 1.000000
vn 0.000000 0.000000 1.000000
vn 0.000000 0.000000 1.000000
vn 1.000000 0.000000 0.000000
vn 1.000000 0.000000 0.000000
vn 1.000000 0.000000 0.000000
vn 1.000000 0.000000 0.000000
vn -1.000000 0.000000 0.000000
vn -1.000000 0.000000 0.000000
vn -1.000000 0.000000 0.000000
vn -1.000000 0.000000 0.000000
vn -0.971587 -0.236682 0.000000
vn -0.971587 -0.236682 0.000000
vn -0.971587 -0.236682 0.000000
vn -0.971587 -0.236682 0.000000
vn 0.012669 -0.999920 0.000000
vn 0.012669 -0.999920 0.000000
vn 0.012669 -0.999920 0.000000
vn 0.012669 -0.999920 0.000000
vn 0.000000 1.000000 0.000000
vn 0.000000 1.000000 0.000000
vn 0.000000 1.000000 0.000000
vn 0.000000 1.000000 0.000000
vn 0.000000 0.000000 1.000000
vn 0.000000 0.000000 1.000000
vn 0.000000 -1.000000 0.000000
vn 0.000000 -1.000000 0.000000
vn 0.000000 -1.000000 0.000000
vn 0.000000 -1.000000 0.000000
vn -0.012342 0.999924 0.000000
vn -0.012342 0.999924 0.000000
vn -0.012342 0.999924 0.000000
vn -0.012342 0.999924 0.000000
vn -0.000000 0.000000 1.000000
vn 0.000000 0.000000 1.000000
vn 0.000000 0.000000 1.000000
vn 0.000000 0.000000 1.000000
vn 0.000000 0.000000 1.000000
vn 0.000000 0.000000 1.000000
vn 0.000000 -1.000000 0.000000
vn 0.000000 -1.000000 0.000000
vn 0.000000 -1.000000 0.000000
vn 0.000000 -1.000000 0.000000
vn -1.000000 0.000000 0.000000
vn -1.000000 0.000000 0.000000
vn -1.000000 0.000000 0.000000
vn -1.000000 0.000000 0.000000
vn 1.000000 0.000000 0.000000
vn 1.000000 0.000000 0.000000
vn 1.000000 0.000000 0.000000
vn 1.000000 0.000000 0.000000
vn 1.000000 0.000000 0.000000
vn 1.000000 0.000000 0.000000
vn 1.000000 0.000000 0.000000
vn 1.000000 0.000000 0.000000
vn 0.000000 -1.000000 0.000000
vn 0.000000 -1.000000 0.000000
vn 0.000000 -1.000000 0.000000
vn 0.000000 -1.000000 0.000000
vn 0.000000 0.000000 1.000000
vn 0.000000 0.000000 1.000000
vn -0.017069 0.999854 0.000000
vn -0.017069 0.999854 0.000000
vn -0.017069 0.999854 0.000000
vn -0.017069 0.999854 0.000000
s 1
g nr_five
usemtl numbers_sg
f 15/29/1 16/9/2 25/30/3
f 25/30/3 16/9/2 26/2/4
s 2
f 16/9/5 15/29/6 17/10/7
f 17/10/7 15/29/6 18/31/8
s 3
f 18/31/9 28/35/10 17/10/11
f 17/10/11 28/35/10 27/13/12
s 4
f 20/33/13 24/32/14 19/8/15
f 19/8/15 24/32/14 23/1/16
s 5
f 20/33/17 19/8/18 21/34/19
f 21/34/19 19/8/18 22/7/20
s 6
f 21/34/21 22/7/22 29/36/23
f 29/36/23 22/7/22 30/14/24
s 7
f 23/1/25 24/32/26 26/2/27
f 26/2/27 24/32/26 25/30/28
s 8
f 28/35/29 29/36/30 27/13/31
f 27/13/31 29/36/30 30/14/32
s 9
f 32/24/33 36/23/34 31/37/35
f 31/37/35 36/23/34 35/38/36
s 10
f 32/24/37 31/37/38 34/17/39
f 34/17/39 31/37/38 33/39/40
s 11
f 34/17/41 33/39/42 37/18/43
f 37/18/43 33/39/42 38/41/44
s 12
f 35/38/45 36/23/46 39/40/47
f 39/40/47 36/23/46 40/28/48
s 13
f 38/41/49 41/42/50 37/18/51
f 37/18/51 41/42/50 42/27/52
s 14
f 39/40/53 40/28/54 41/42/55
f 41/42/55 40/28/54 42/27/56
s 15
f 23/1/57 26/2/58 5/4/59
f 5/4/59 26/2/58 6/3/60
s 16
f 21/34/61 18/31/62 20/33/63
f 20/33/63 18/31/62 15/29/64
s 17
f 2/5/65 1/6/66 19/8/67
f 19/8/67 1/6/66 22/7/68
s 18
f 16/9/69 17/10/70 3/12/71
f 3/12/71 17/10/70 4/11/72
s 19
f 27/13/73 30/14/74 7/16/75
f 7/16/75 30/14/74 8/46/76
s 20
f 19/8/77 23/1/78 2/5/79
f 2/5/79 23/1/78 5/47/80
s 21
f 3/12/81 6/3/82 16/9/83
f 16/9/83 6/3/82 26/2/84
s 16
f 25/30/85 24/32/86 15/29/64
f 15/29/64 24/32/86 20/33/63
s 22
f 17/10/87 27/13/88 4/11/89
f 4/11/89 27/13/88 7/16/90
s 23
f 1/6/91 8/15/92 22/7/93
f 22/7/93 8/15/92 30/14/94
s 16
f 21/34/61 29/36/95 18/31/62
f 18/31/62 29/36/95 28/35/96
s 24
f 31/37/97 35/38/98 33/39/99
f 33/39/99 35/38/98 38/41/100
s 25
f 11/21/101 32/24/102 12/45/103
f 12/45/103 32/24/102 34/17/104
s 26
f 34/17/105 37/18/106 12/20/107
f 12/20/107 37/18/106 10/44/108
s 27
f 11/21/109 9/22/110 32/24/111
f 32/24/111 9/22/110 36/23/112
s 28
f 13/25/113 14/26/114 40/28/115
f 40/28/115 14/26/114 42/27/116
s 29
f 9/22/117 13/25/118 36/23/119
f 36/23/119 13/25/118 40/28/120
s 24
f 39/40/121 41/42/122 35/38/98
f 35/38/98 41/42/122 38/41/100
s 30
f 37/18/123 42/27/124 10/19/125
f 10/19/125 42/27/124 14/43/126
