# This file uses centimeters as units for non-parametric coordinates.

mtllib four.mtl
g default
v 0.032091 0.106499 -0.054862
v 0.065839 0.106499 -0.054862
v 0.032091 0.017163 -0.054862
v 0.065839 0.017163 -0.054862
v 0.031355 -0.022974 -0.054862
v 0.065104 0.007319 -0.054862
v 0.031355 -0.113019 -0.054862
v 0.065104 -0.113019 -0.054862
v -0.061587 -0.019330 -0.054862
v -0.031041 0.008902 -0.054862
v -0.065839 0.113019 -0.054862
v -0.031739 0.112462 -0.054862
v 0.036964 0.022036 0.054862
v 0.032091 0.017163 0.049988
v 0.060966 0.022036 0.054862
v 0.065839 0.017163 0.049988
v 0.036964 0.101626 0.054862
v 0.032091 0.106499 0.049988
v 0.060966 0.101626 0.054862
v 0.065839 0.106499 0.049988
v 0.036229 -0.108146 0.054862
v 0.031355 -0.113019 0.049988
v 0.060230 -0.108146 0.054862
v 0.065104 -0.113019 0.049988
v 0.031355 -0.022974 0.049988
v 0.036229 -0.018288 0.054862
v 0.060230 0.002526 0.054862
v 0.065104 0.007319 0.049988
v -0.061587 -0.019330 0.049988
v -0.056862 -0.014638 0.054862
v -0.035882 0.004107 0.054862
v -0.031041 0.008902 0.049988
v -0.065839 0.113019 0.049988
v -0.060804 0.108063 0.054862
v -0.036579 0.107667 0.054862
v -0.031739 0.112462 0.049988
vt 0.622001 0.769817
vt 0.619844 0.702768
vt 0.690925 0.827186
vt 0.624269 0.830454
vt 0.531519 0.775826
vt 0.598954 0.770817
vt 0.601198 0.832485
vt 0.601746 0.898943
vt 0.845350 0.289607
vt 0.797781 0.235766
vt 0.859451 0.398285
vt 0.810275 0.358996
vt 0.775540 0.248332
vt 0.819508 0.291665
vt 0.789409 0.346854
vt 0.736510 0.304098
vt 0.692520 0.346246
vt 0.741849 0.386390
vt 0.700640 0.464877
vt 0.752267 0.515931
vt 0.760024 0.398615
vt 0.814349 0.440926
vt 0.772032 0.505568
vt 0.728698 0.460142
vt 0.603170 0.775107
vt 0.617906 0.774113
vt 0.605238 0.828007
vt 0.619982 0.826373
vt 0.821953 0.295476
vt 0.838352 0.293832
vt 0.792151 0.350250
vt 0.806393 0.356819
vt 0.745312 0.388891
vt 0.757087 0.395296
vt 0.707844 0.460240
vt 0.725693 0.456938
vt 0.642895 0.427839
vt 0.904286 0.325876
vt 0.598611 0.701307
vt 0.688488 0.769842
vt 0.534508 0.833574
vt 0.622720 0.900394
vn 0.000000 -0.707118 0.707096
vn 0.000000 -0.707118 0.707096
vn 0.000000 -0.707118 0.707095
vn 0.000000 -0.707118 0.707095
vn -0.707101 0.000000 0.707113
vn -0.707101 0.000000 0.707113
vn -0.707101 0.000000 0.707113
vn -0.707101 0.000000 0.707113
vn 0.707101 0.000000 0.707113
vn 0.707101 0.000000 0.707113
vn 0.707101 0.000000 0.707113
vn 0.707101 0.000000 0.707112
vn 0.000000 0.707118 0.707096
vn 0.000000 0.707118 0.707096
vn 0.000000 0.707118 0.707095
vn 0.000000 0.707118 0.707095
vn 0.000000 -0.707135 0.707078
vn 0.000000 -0.707135 0.707078
vn 0.000000 -0.707135 0.707078
vn 0.000000 -0.707135 0.707078
vn -0.707100 0.000000 0.707113
vn -0.707100 0.000000 0.707113
vn -0.707101 0.000000 0.707113
vn -0.707101 0.000000 0.707113
vn 0.707101 0.000000 0.707113
vn 0.707101 0.000000 0.707113
vn 0.707101 0.000000 0.707113
vn 0.707101 0.000000 0.707113
vn -0.027700 -0.706565 0.707106
vn -0.027698 -0.706555 0.707116
vn -0.027700 -0.706564 0.707106
vn -0.027698 -0.706555 0.707116
vn 0.011634 0.707012 0.707106
vn 0.011633 0.707000 0.707118
vn 0.011634 0.707012 0.707106
vn 0.011633 0.707000 0.707118
vn -0.706741 -0.022707 0.707108
vn -0.706744 -0.022707 0.707105
vn -0.706741 -0.022707 0.707108
vn -0.706744 -0.022707 0.707105
vn 0.707104 0.004760 0.707094
vn 0.707104 0.004760 0.707094
vn 0.707104 0.004760 0.707094
vn 0.707104 0.004760 0.707094
vn 0.011552 0.707003 0.707116
vn 0.011552 0.707005 0.707114
vn 0.011547 0.707020 0.707099
vn 0.011544 0.707027 0.707092
vn 0.000000 0.000000 1.000000
vn 0.000000 0.000000 1.000000
vn 0.000000 0.000000 1.000000
vn 0.000000 0.000000 1.000000
vn 0.000000 1.000000 0.000000
vn 0.000000 1.000000 0.000000
vn 0.000000 1.000000 0.000000
vn 0.000000 1.000000 0.000000
vn 0.000000 -1.000000 0.000000
vn 0.000000 -1.000000 0.000000
vn 0.000000 -1.000000 0.000000
vn 0.000000 -1.000000 0.000000
vn 1.000000 0.000000 0.000000
vn 1.000000 0.000000 0.000000
vn 1.000000 0.000000 0.000000
vn 1.000000 0.000000 0.000000
vn -1.000000 0.000000 0.000000
vn -1.000000 0.000000 0.000000
vn -1.000000 0.000000 0.000000
vn -1.000000 0.000000 0.000000
vn 0.000000 0.000000 1.000000
vn 0.000000 0.000000 1.000000
vn 0.000000 0.000000 1.000000
vn 0.000000 0.000000 1.000000
vn 0.000000 -1.000000 0.000000
vn 0.000000 -1.000000 0.000000
vn 0.000000 -1.000000 0.000000
vn 0.000000 -1.000000 0.000000
vn 1.000000 0.000000 0.000000
vn 1.000000 0.000000 0.000000
vn 1.000000 0.000000 0.000000
vn 1.000000 0.000000 0.000000
vn -1.000000 0.000000 0.000000
vn -1.000000 0.000000 0.000000
vn -1.000000 0.000000 0.000000
vn -1.000000 0.000000 0.000000
vn 0.016337 0.999867 0.000000
vn 0.016337 0.999867 0.000000
vn 0.016337 0.999867 0.000000
vn 0.016337 0.999867 0.000000
vn -0.039172 -0.999232 0.000000
vn -0.039172 -0.999232 0.000000
vn -0.039172 -0.999232 0.000000
vn -0.039172 -0.999232 0.000000
vn -0.000000 0.000000 1.000000
vn -0.000000 0.000000 1.000000
vn 0.016454 0.999865 0.000000
vn 0.016454 0.999865 0.000000
vn 0.016454 0.999865 0.000000
vn 0.016454 0.999865 0.000000
vn -0.999484 -0.032112 0.000000
vn -0.999484 -0.032112 0.000000
vn -0.999484 -0.032112 0.000000
vn -0.999484 -0.032112 0.000000
vn -0.000000 0.000000 1.000000
vn 0.000000 0.000000 1.000000
vn 0.999977 0.006732 0.000000
vn 0.999977 0.006732 0.000000
vn 0.999977 0.006732 0.000000
vn 0.999977 0.006732 0.000000
s 1
g nr_four
usemtl numbers_sg
f 13/25/1 14/6/2 15/26/3
f 15/26/3 14/6/2 16/1/4
s 2
f 14/6/5 13/25/6 18/7/7
f 18/7/7 13/25/6 17/27/8
s 3
f 15/26/9 16/1/10 19/28/11
f 19/28/11 16/1/10 20/4/12
s 4
f 18/7/13 17/27/14 20/4/15
f 20/4/15 17/27/14 19/28/16
s 5
f 21/29/17 22/14/18 23/30/19
f 23/30/19 22/14/18 24/9/20
s 6
f 22/14/21 21/29/22 25/15/23
f 25/15/23 21/29/22 26/31/24
s 7
f 24/9/25 28/12/26 23/30/27
f 23/30/27 28/12/26 27/32/28
s 8
f 26/31/29 30/33/30 25/15/31
f 25/15/31 30/33/30 29/18/32
s 9
f 28/12/33 32/21/34 27/32/35
f 27/32/35 32/21/34 31/34/36
s 10
f 30/33/37 34/35/38 29/18/39
f 29/18/39 34/35/38 33/19/40
s 11
f 31/34/41 32/21/42 35/36/43
f 35/36/43 32/21/42 36/24/44
s 12
f 33/19/45 34/35/46 36/24/47
f 36/24/47 34/35/46 35/36/48
s 13
f 13/25/49 15/26/50 17/27/51
f 17/27/51 15/26/50 19/28/52
s 14
f 18/7/53 20/4/54 1/8/55
f 1/8/55 20/4/54 2/42/56
s 15
f 3/39/57 4/2/58 14/6/59
f 14/6/59 4/2/58 16/1/60
s 16
f 16/1/61 4/40/62 20/4/63
f 20/4/63 4/40/62 2/3/64
s 17
f 3/5/65 14/6/66 1/41/67
f 1/41/67 14/6/66 18/7/68
s 18
f 21/29/69 23/30/70 26/31/71
f 26/31/71 23/30/70 27/32/72
s 19
f 7/13/73 8/10/74 22/14/75
f 22/14/75 8/10/74 24/9/76
s 20
f 24/9/77 8/38/78 28/12/79
f 28/12/79 8/38/78 6/11/80
s 21
f 7/13/81 22/14/82 5/16/83
f 5/16/83 22/14/82 25/15/84
s 22
f 11/20/85 33/19/86 12/23/87
f 12/23/87 33/19/86 36/24/88
s 23
f 5/16/89 25/15/90 9/17/91
f 9/17/91 25/15/90 29/18/92
s 18
f 27/32/72 31/34/93 26/31/71
f 26/31/71 31/34/93 30/33/94
s 24
f 28/12/95 6/11/96 32/21/97
f 32/21/97 6/11/96 10/22/98
s 25
f 9/17/99 29/18/100 11/37/101
f 11/37/101 29/18/100 33/19/102
s 18
f 30/33/94 31/34/93 34/35/103
f 34/35/103 31/34/93 35/36/104
s 26
f 32/21/105 10/22/106 36/24/107
f 36/24/107 10/22/106 12/23/108
