# This file uses centimeters as units for non-parametric coordinates.

mtllib leaf_big.mtl
g default
v -0.027031 0.000000 0.000000
v 0.027031 0.000000 0.000000
v -0.026579 0.398545 -0.089688
v 0.026579 0.398545 -0.089688
v -0.182967 0.388652 -0.044187
v 0.182967 0.388652 -0.044187
v -0.380557 0.415707 -0.168618
v 0.380557 0.415707 -0.168618
v -0.288579 0.440253 -0.924886
v 0.288579 0.440253 -0.924886
v 0.000000 -0.004659 -0.021001
v 0.000000 0.403077 -0.110529
v 0.000000 0.450554 -0.177761
v 0.000000 0.511926 -0.303401
v 0.000000 0.426964 -1.046683
v 0.450481 0.468878 -0.428876
v 0.000000 0.561567 -0.483171
v -0.450481 0.468878 -0.428876
v 0.413887 0.472862 -0.716016
v 0.000000 0.546131 -0.741677
v -0.413887 0.472862 -0.716016
v -0.202447 0.342884 0.002712
v -0.421073 0.372819 -0.134967
v 0.202447 0.342884 0.002712
v 0.421073 0.372819 -0.134967
v -0.498442 0.433038 -0.417128
v 0.498442 0.433038 -0.417128
v -0.319303 0.401148 -0.966121
v 0.000000 0.386444 -1.100885
v 0.319303 0.401148 -0.966121
v 0.457951 0.434954 -0.717956
v -0.457951 0.434954 -0.717956
v 0.019347 0.274773 -0.038045
v 0.000000 0.269530 -0.061679
v -0.019347 0.274773 -0.038045
vt 0.315375 0.002845
vt 0.338822 0.001992
vt 0.337137 0.191166
vt 0.316001 0.191326
vt 0.318455 0.281133
vt 0.338790 0.292214
vt 0.340681 0.348048
vt 0.208334 0.258521
vt 0.343925 0.441783
vt 0.079581 0.354956
vt 0.041757 0.537707
vt 0.348235 0.565502
vt 0.362247 0.003214
vt 0.358324 0.191101
vt 0.358509 0.280163
vt 0.466668 0.249781
vt 0.601689 0.336918
vt 0.652061 0.516499
vt 0.633962 0.712142
vt 0.354160 0.735106
vt 0.073458 0.731674
vt 0.556608 0.861070
vt 0.361746 0.952078
vt 0.161014 0.874867
vt 0.044622 0.324820
vt 0.187735 0.216948
vt 0.484250 0.206840
vt 0.634474 0.304410
vt 0.001381 0.528580
vt 0.691711 0.504585
vt 0.363349 0.998008
vt 0.137093 0.911691
vt 0.583041 0.896139
vt 0.673418 0.716783
vt 0.034431 0.739054
vn 0.621729 0.114939 0.774753
vn 0.763510 0.141490 0.630106
vn 0.632590 0.111928 0.766356
vn 0.781169 0.134352 0.609692
vn 0.458767 0.543204 0.703180
vn 0.030914 0.890868 0.453208
vn 0.219485 0.763886 0.606881
vn -0.123909 0.897639 0.422955
vn -0.140347 0.947554 0.287130
vn -0.206134 0.925187 0.318650
vn -0.246122 0.963214 0.107905
vn -0.180933 0.980566 0.075857
vn -0.621729 0.114939 0.774753
vn -0.632590 0.111928 0.766356
vn -0.763510 0.141490 0.630106
vn -0.781169 0.134352 0.609692
vn -0.458767 0.543204 0.703180
vn -0.219485 0.763886 0.606881
vn -0.030914 0.890868 0.453208
vn 0.123909 0.897639 0.422955
vn 0.140347 0.947554 0.287130
vn 0.206134 0.925187 0.318650
vn 0.180933 0.980566 0.075857
vn 0.246122 0.963214 0.107905
vn 0.160699 0.969779 -0.183587
vn 0.257755 0.958736 -0.119952
vn -0.257755 0.958736 -0.119952
vn -0.160699 0.969779 -0.183587
vn 0.138517 0.894173 -0.425755
vn 0.200368 0.915345 -0.349280
vn -0.200368 0.915345 -0.349280
vn -0.138517 0.894173 -0.425755
vn -0.418469 0.771435 0.479345
vn -0.281147 0.742574 0.607899
vn 0.418469 0.771435 0.479345
vn 0.281147 0.742574 0.607899
vn -0.573771 0.807220 0.138503
vn 0.573771 0.807220 0.138503
vn -0.329757 0.795365 -0.508582
vn -0.210969 0.782906 -0.585278
vn 0.329756 0.795364 -0.508583
vn 0.210969 0.782906 -0.585278
vn 0.618822 0.753227 -0.222952
vn -0.618822 0.753228 -0.222952
s 1
g leaf_big
usemtl leaf_big_sg
f 11/2/1 34/3/2 1/1/3
f 1/1/3 34/3/2 35/4/4
f 12/6/5 13/7/6 3/5/7
f 3/5/7 13/7/6 5/8/8
f 13/7/6 14/9/9 5/8/8
f 5/8/8 14/9/9 7/10/10
f 7/10/10 14/9/9 18/11/11
f 18/11/11 14/9/9 17/12/12
s 3
f 11/2/13 2/13/14 34/3/15
f 34/3/15 2/13/14 33/14/16
f 12/6/17 4/15/18 13/7/19
f 13/7/19 4/15/18 6/16/20
f 13/7/19 6/16/20 14/9/21
f 14/9/21 6/16/20 8/17/22
f 17/12/23 14/9/21 16/18/24
f 16/18/24 14/9/21 8/17/22
f 20/20/25 17/12/23 19/19/26
f 19/19/26 17/12/23 16/18/24
s 1
f 18/11/11 17/12/12 21/21/27
f 21/21/27 17/12/12 20/20/28
s 3
f 15/23/29 20/20/25 10/22/30
f 10/22/30 20/20/25 19/19/26
s 1
f 21/21/27 20/20/28 9/24/31
f 9/24/31 20/20/28 15/23/32
f 7/10/10 23/25/33 5/8/8
f 5/8/8 23/25/33 22/26/34
s 3
f 8/17/22 6/16/20 25/28/35
f 25/28/35 6/16/20 24/27/36
s 1
f 18/11/11 26/29/37 7/10/10
f 7/10/10 26/29/37 23/25/33
s 3
f 16/18/24 8/17/22 27/30/38
f 27/30/38 8/17/22 25/28/35
s 1
f 9/24/31 15/23/32 28/32/39
f 28/32/39 15/23/32 29/31/40
s 3
f 10/22/30 30/33/41 15/23/29
f 15/23/29 30/33/41 29/31/42
f 19/19/26 16/18/24 31/34/43
f 31/34/43 16/18/24 27/30/38
s 1
f 21/21/27 32/35/44 18/11/11
f 18/11/11 32/35/44 26/29/37
s 3
f 19/19/26 31/34/43 10/22/30
f 10/22/30 31/34/43 30/33/41
s 1
f 21/21/27 9/24/31 32/35/44
f 32/35/44 9/24/31 28/32/39
s 3
f 12/6/17 34/3/15 4/15/18
f 4/15/18 34/3/15 33/14/16
s 1
f 35/4/4 34/3/2 3/5/7
f 3/5/7 34/3/2 12/6/5
