# This file uses centimeters as units for non-parametric coordinates.

mtllib playfield_elementtile.mtl
g default
v -0.500000 -0.500000 0.500000
v 0.500000 -0.500000 0.500000
v -0.500000 -0.500000 -0.500000
v 0.500000 -0.500000 -0.500000
v -0.457484 0.500000 0.457484
v 0.457484 0.500000 0.457484
v 0.457484 0.500000 -0.457484
v -0.457484 0.500000 -0.457484
v -0.500000 0.484217 0.500000
v -0.484217 0.500000 0.484217
v 0.500000 0.484217 0.500000
v 0.484217 0.500000 0.484217
v -0.500000 0.484217 -0.500000
v -0.484217 0.500000 -0.484217
v 0.500000 0.484217 -0.500000
v 0.484217 0.500000 -0.484217
v -0.457484 0.523678 0.457484
v -0.440292 0.539461 0.440292
v 0.440292 0.539461 0.440292
v 0.457484 0.523678 0.457484
v 0.367366 0.539461 0.367366
v -0.367366 0.539461 0.367366
v 0.440292 0.539461 -0.440292
v 0.457484 0.523678 -0.457484
v 0.367366 0.539461 -0.367367
v -0.440292 0.539461 -0.440292
v -0.457484 0.523678 -0.457484
v -0.367366 0.539461 -0.367367
vt 0.998008 0.332562
vt 0.997990 0.667444
vt 0.672279 0.672065
vt 0.672316 0.328007
vt 0.665848 0.334433
vt 0.665847 0.665600
vt 0.001992 0.667438
vt 0.002010 0.332556
vt 0.327721 0.327936
vt 0.327684 0.671993
vt 0.334152 0.334400
vt 0.334152 0.665568
vt 0.645520 0.354694
vt 0.645586 0.645243
vt 0.639895 0.639591
vt 0.639946 0.360453
vt 0.633685 0.366813
vt 0.633700 0.633168
vt 0.613354 0.387156
vt 0.613375 0.612806
vt 0.354480 0.645306
vt 0.354414 0.354757
vt 0.360105 0.360410
vt 0.360054 0.639547
vt 0.366299 0.366833
vt 0.366315 0.633188
vt 0.386625 0.387194
vt 0.386646 0.612844
vt 0.332556 0.001992
vt 0.667450 0.002012
vt 0.667444 0.998008
vt 0.332550 0.997988
vn -0.707107 0.707106 0.000000
vn -0.707107 0.707107 0.000000
vn -0.707107 0.707106 0.000000
vn -0.707107 0.707107 0.000000
vn 0.000000 0.707107 0.707106
vn 0.000000 0.707105 0.707108
vn 0.000000 0.707107 0.707106
vn 0.000000 0.707105 0.707108
vn 0.707107 0.707107 0.000000
vn 0.707107 0.707106 0.000000
vn 0.707107 0.707107 0.000000
vn 0.707107 0.707106 0.000000
vn 0.000000 0.707105 -0.707109
vn 0.000000 0.707108 -0.707106
vn 0.000000 0.707105 -0.707109
vn 0.000000 0.707108 -0.707106
vn -0.676273 0.736651 0.000000
vn -0.676272 0.736652 0.000000
vn -0.676273 0.736651 0.000000
vn -0.676272 0.736652 0.000000
vn 0.000000 0.736653 0.676271
vn 0.000000 0.736654 0.676270
vn 0.000000 0.736653 0.676271
vn 0.000000 0.736654 0.676270
vn 0.676272 0.736652 0.000000
vn 0.676273 0.736651 0.000000
vn 0.676272 0.736652 0.000000
vn 0.676273 0.736651 0.000000
vn 0.000000 0.736651 -0.676274
vn 0.000000 0.736651 -0.676273
vn 0.000000 0.736651 -0.676274
vn 0.000000 0.736651 -0.676273
vn 0.000000 0.000000 1.000000
vn 0.000000 0.000000 1.000000
vn 0.000000 0.000000 1.000000
vn 0.000000 0.000000 1.000000
vn 0.000000 0.000000 -1.000000
vn 0.000000 0.000000 -1.000000
vn 0.000000 0.000000 -1.000000
vn 0.000000 0.000000 -1.000000
vn 1.000000 0.000000 0.000000
vn 1.000000 0.000000 0.000000
vn 1.000000 0.000000 0.000000
vn 1.000000 0.000000 0.000000
vn -1.000000 0.000000 0.000000
vn -1.000000 0.000000 0.000000
vn -1.000000 0.000000 0.000000
vn -1.000000 0.000000 0.000000
vn 0.000000 1.000000 0.000000
vn 0.000000 1.000000 -0.000000
vn 0.000000 1.000000 -0.000001
vn 0.000000 1.000000 -0.000001
vn 0.000000 1.000000 0.000000
vn 0.000000 1.000000 0.000000
vn 0.000000 1.000000 0.000001
vn 0.000000 1.000000 0.000001
vn 0.000000 1.000000 -0.000000
vn 0.000000 1.000000 -0.000000
vn 0.000000 1.000000 0.000000
vn 0.000000 1.000000 0.000000
vn 0.000000 1.000000 0.000000
vn 0.000000 1.000000 0.000000
vn 0.000000 1.000000 -0.000000
vn 0.000000 1.000000 -0.000000
vn 0.000000 0.000000 1.000000
vn 0.000000 0.000000 1.000000
vn 0.000000 0.000000 1.000000
vn 0.000000 0.000000 1.000000
vn 1.000000 0.000000 0.000000
vn 1.000000 0.000000 0.000000
vn 1.000000 0.000000 0.000000
vn 1.000000 0.000000 0.000000
vn 0.000000 0.000000 -1.000000
vn 0.000000 0.000000 -1.000000
vn 0.000000 0.000000 -1.000000
vn 0.000000 0.000000 -1.000000
vn -1.000000 0.000000 0.000000
vn -1.000000 0.000000 0.000000
vn -1.000000 0.000000 0.000000
vn -1.000000 0.000000 0.000000
s 1
g playfield_elementtile
usemtl playfield_tile_sg
f 13/10/1 9/9/2 14/12/3
f 14/12/3 9/9/2 10/11/4
s 2
f 12/5/5 10/11/6 11/4/7
f 11/4/7 10/11/6 9/9/8
s 3
f 16/6/9 12/5/10 15/3/11
f 15/3/11 12/5/10 11/4/12
s 4
f 15/3/13 13/10/14 16/6/15
f 16/6/15 13/10/14 14/12/16
s 5
f 27/24/17 17/23/18 26/26/19
f 26/26/19 17/23/18 18/25/20
s 6
f 19/17/21 18/25/22 20/16/23
f 20/16/23 18/25/22 17/23/24
s 7
f 23/18/25 19/17/26 24/15/27
f 24/15/27 19/17/26 20/16/28
s 8
f 26/26/29 23/18/30 27/24/31
f 27/24/31 23/18/30 24/15/32
s 9
f 9/9/33 1/29/34 11/4/35
f 11/4/35 1/29/34 2/30/36
s 10
f 3/32/37 13/10/38 4/31/39
f 4/31/39 13/10/38 15/3/40
s 11
f 11/4/41 2/1/42 15/3/43
f 15/3/43 2/1/42 4/2/44
s 12
f 13/10/45 3/7/46 9/9/47
f 9/9/47 3/7/46 1/8/48
s 13
f 5/22/49 10/11/50 6/13/51
f 6/13/51 10/11/50 12/5/52
f 6/13/51 12/5/52 7/14/53
f 7/14/53 12/5/52 16/6/54
f 7/14/53 16/6/54 8/21/55
f 8/21/55 16/6/54 14/12/56
f 8/21/55 14/12/56 5/22/49
f 5/22/49 14/12/56 10/11/50
s 14
f 22/27/57 18/25/58 21/19/59
f 21/19/59 18/25/58 19/17/60
f 21/19/59 19/17/60 25/20/61
f 25/20/61 19/17/60 23/18/62
f 25/20/61 23/18/62 28/28/63
f 28/28/63 23/18/62 26/26/64
f 28/28/63 26/26/64 22/27/57
f 22/27/57 26/26/64 18/25/58
s 15
f 17/23/65 5/22/66 20/16/67
f 20/16/67 5/22/66 6/13/68
s 16
f 20/16/69 6/13/70 24/15/71
f 24/15/71 6/13/70 7/14/72
s 17
f 24/15/73 7/14/74 27/24/75
f 27/24/75 7/14/74 8/21/76
s 18
f 27/24/77 8/21/78 17/23/79
f 17/23/79 8/21/78 5/22/80
s 14
f 21/19/59 25/20/61 22/27/57
f 22/27/57 25/20/61 28/28/63
