# This file uses centimeters as units for non-parametric coordinates.

g default
v -0.500000 -0.500000 0.500000
v 0.500000 -0.500000 0.500000
v -0.500000 -0.500000 -0.500000
v 0.500000 -0.500000 -0.500000
v -0.419987 0.500000 0.419987
v 0.419987 0.500000 0.419987
v 0.419987 0.500000 -0.419987
v -0.419987 0.500000 -0.419987
v -0.321473 0.500000 0.321473
v 0.321473 0.500000 0.321473
v 0.321473 0.500000 -0.321473
v -0.321473 0.500000 -0.321473
v -0.500000 0.484217 0.500000
v -0.484217 0.500000 0.484217
v 0.500000 0.484217 0.500000
v 0.484217 0.500000 0.484217
v -0.500000 0.484217 -0.500000
v -0.484217 0.500000 -0.484217
v 0.500000 0.484217 -0.500000
v 0.484217 0.500000 -0.484217
v -0.419987 0.523678 0.419987
v -0.404204 0.539461 0.404204
v 0.404204 0.539461 0.404204
v 0.419987 0.523678 0.419987
v 0.321473 0.523678 0.321473
v 0.337256 0.539461 0.337256
v -0.337256 0.539461 0.337256
v -0.321473 0.523678 0.321473
v 0.404204 0.539461 -0.404204
v 0.419987 0.523678 -0.419987
v 0.321473 0.523678 -0.321473
v 0.337256 0.539461 -0.337256
v -0.404204 0.539461 -0.404204
v -0.419987 0.523678 -0.419987
v -0.321473 0.523678 -0.321473
v -0.337256 0.539461 -0.337256
vt 0.998008 0.332562
vt 0.997990 0.667444
vt 0.672279 0.672065
vt 0.672316 0.328007
vt 0.665848 0.334433
vt 0.665847 0.665600
vt 0.001992 0.667438
vt 0.002010 0.332556
vt 0.327721 0.327936
vt 0.327684 0.671993
vt 0.334152 0.334400
vt 0.334152 0.665568
vt 0.645520 0.354694
vt 0.645586 0.645243
vt 0.639895 0.639591
vt 0.639946 0.360453
vt 0.633685 0.366813
vt 0.633700 0.633168
vt 0.600772 0.600685
vt 0.600830 0.399336
vt 0.606936 0.393631
vt 0.607037 0.606237
vt 0.613354 0.387156
vt 0.613375 0.612806
vt 0.354480 0.645306
vt 0.354414 0.354757
vt 0.360105 0.360410
vt 0.360054 0.639547
vt 0.366299 0.366833
vt 0.366315 0.633188
vt 0.399228 0.399316
vt 0.399170 0.600664
vt 0.393063 0.606370
vt 0.392963 0.393764
vt 0.386625 0.387194
vt 0.386646 0.612844
vt 0.332556 0.001992
vt 0.667450 0.002012
vt 0.667444 0.998008
vt 0.332550 0.997988
vn 0.000000 1.000000 0.000000
vn 0.000000 1.000000 0.000000
vn 0.000000 1.000000 0.000000
vn 0.000000 1.000000 0.000000
vn -0.707107 0.707106 0.000000
vn -0.707107 0.707106 0.000000
vn -0.707106 0.707107 0.000000
vn -0.707106 0.707108 0.000000
vn 0.000000 0.707108 0.707105
vn 0.000000 0.707108 0.707105
vn 0.000000 0.707106 0.707108
vn 0.000000 0.707106 0.707108
vn 0.707106 0.707108 0.000000
vn 0.707106 0.707108 0.000000
vn 0.707108 0.707106 0.000000
vn 0.707108 0.707106 0.000000
vn 0.000000 0.707106 -0.707107
vn 0.000000 0.707106 -0.707107
vn 0.000000 0.707108 -0.707106
vn 0.000000 0.707108 -0.707106
vn -0.707109 0.707105 0.000000
vn -0.707109 0.707105 0.000000
vn -0.707105 0.707109 0.000000
vn -0.707104 0.707109 0.000000
vn 0.000000 0.707109 0.707104
vn 0.000000 0.707109 0.707105
vn 0.000000 0.707108 0.707106
vn 0.000000 0.707108 0.707106
vn 0.707105 0.707108 0.000000
vn 0.707105 0.707108 0.000000
vn 0.707108 0.707105 0.000000
vn 0.707108 0.707105 0.000000
vn -0.707105 0.707109 0.000000
vn -0.707105 0.707109 0.000000
vn -0.707107 0.707106 0.000000
vn -0.707107 0.707106 0.000000
vn 0.000000 0.707108 -0.707106
vn 0.000000 0.707108 -0.707106
vn 0.000000 0.707106 -0.707108
vn 0.000000 0.707106 -0.707108
vn 0.707107 0.707106 0.000000
vn 0.707107 0.707106 0.000000
vn 0.707105 0.707109 0.000000
vn 0.707104 0.707109 0.000000
vn 0.000000 0.707109 -0.707104
vn 0.000000 0.707109 -0.707105
vn 0.000000 0.707108 -0.707106
vn 0.000000 0.707108 -0.707106
vn 0.000000 0.707105 0.707108
vn 0.000000 0.707105 0.707108
vn 0.000000 0.707109 0.707105
vn 0.000000 0.707109 0.707105
vn 0.000000 0.000000 1.000000
vn 0.000000 0.000000 1.000000
vn 0.000000 0.000000 1.000000
vn 0.000000 0.000000 1.000000
vn 0.000000 0.000000 -1.000000
vn 0.000000 0.000000 -1.000000
vn 0.000000 0.000000 -1.000000
vn 0.000000 0.000000 -1.000000
vn 1.000000 0.000000 0.000000
vn 1.000000 0.000000 0.000000
vn 1.000000 0.000000 0.000000
vn 1.000000 0.000000 0.000000
vn -1.000000 0.000000 0.000000
vn -1.000000 0.000000 0.000000
vn -1.000000 0.000000 0.000000
vn -1.000000 0.000000 0.000000
vn 0.000000 1.000000 -0.000000
vn 0.000000 1.000000 -0.000000
vn 0.000000 1.000000 -0.000000
vn 0.000000 1.000000 0.000000
vn 0.000000 1.000000 0.000000
vn 0.000000 1.000000 0.000000
vn 0.000000 1.000000 0.000000
vn 0.000000 1.000000 0.000000
vn 0.000000 1.000000 0.000000
vn 0.000000 1.000000 0.000000
vn 0.000000 1.000000 0.000000
vn 0.000000 1.000000 0.000000
vn 0.000000 1.000000 -0.000000
vn 0.000000 1.000000 -0.000000
vn 0.000000 1.000000 -0.000000
vn 0.000000 1.000000 0.000000
vn 0.000000 0.000000 1.000000
vn 0.000000 0.000000 1.000000
vn 0.000000 0.000000 1.000000
vn 0.000000 0.000000 1.000000
vn 0.000000 0.000000 -1.000000
vn 0.000000 0.000000 -1.000000
vn 0.000000 0.000000 -1.000000
vn 0.000000 0.000000 -1.000000
vn 1.000000 0.000000 0.000000
vn 1.000000 0.000000 0.000000
vn 1.000000 0.000000 0.000000
vn 1.000000 0.000000 0.000000
vn -1.000000 0.000000 0.000000
vn -1.000000 0.000000 0.000000
vn -1.000000 0.000000 0.000000
vn -1.000000 0.000000 0.000000
vn 0.000000 0.000000 -1.000000
vn 0.000000 0.000000 -1.000000
vn 0.000000 0.000000 -1.000000
vn 0.000000 0.000000 -1.000000
vn 0.000000 0.000000 1.000000
vn 0.000000 0.000000 1.000000
vn 0.000000 0.000000 1.000000
vn 0.000000 0.000000 1.000000
vn -1.000000 0.000000 0.000000
vn -1.000000 0.000000 0.000000
vn -1.000000 0.000000 0.000000
vn -1.000000 0.000000 0.000000
vn 1.000000 0.000000 0.000000
vn 1.000000 0.000000 0.000000
vn 1.000000 0.000000 0.000000
vn 1.000000 0.000000 0.000000
s 1
g playfield_tile
f 9/31/1 10/20/2 12/32/3
f 12/32/3 10/20/2 11/19/4
s 2
f 13/9/5 14/11/6 17/10/7
f 17/10/7 14/11/6 18/12/8
s 3
f 14/11/9 13/9/10 16/5/11
f 16/5/11 13/9/10 15/4/12
s 4
f 16/5/13 15/4/14 20/6/15
f 20/6/15 15/4/14 19/3/16
s 5
f 17/10/17 18/12/18 19/3/19
f 19/3/19 18/12/18 20/6/20
s 6
f 21/27/21 22/29/22 34/28/23
f 34/28/23 22/29/22 33/30/24
s 7
f 22/29/25 21/27/26 23/17/27
f 23/17/27 21/27/26 24/16/28
s 8
f 23/17/29 24/16/30 29/18/31
f 29/18/31 24/16/30 30/15/32
s 9
f 25/21/33 26/23/34 31/22/35
f 31/22/35 26/23/34 32/24/36
s 10
f 26/23/37 25/21/38 27/35/39
f 27/35/39 25/21/38 28/34/40
s 11
f 27/35/41 28/34/42 36/36/43
f 36/36/43 28/34/42 35/33/44
s 12
f 29/18/45 30/15/46 33/30/47
f 33/30/47 30/15/46 34/28/48
s 13
f 31/22/49 32/24/50 35/33/51
f 35/33/51 32/24/50 36/36/52
s 14
f 1/37/53 2/38/54 13/9/55
f 13/9/55 2/38/54 15/4/56
s 15
f 17/10/57 19/3/58 3/40/59
f 3/40/59 19/3/58 4/39/60
s 16
f 2/1/61 4/2/62 15/4/63
f 15/4/63 4/2/62 19/3/64
s 17
f 3/7/65 1/8/66 17/10/67
f 17/10/67 1/8/66 13/9/68
s 18
f 14/11/69 16/5/70 5/26/71
f 5/26/71 16/5/70 6/13/72
f 16/5/70 20/6/73 6/13/72
f 6/13/72 20/6/73 7/14/74
f 20/6/73 18/12/75 7/14/74
f 7/14/74 18/12/75 8/25/76
f 18/12/75 14/11/69 8/25/76
f 8/25/76 14/11/69 5/26/71
s 19
f 22/29/77 23/17/78 27/35/79
f 27/35/79 23/17/78 26/23/80
f 23/17/78 29/18/81 26/23/80
f 26/23/80 29/18/81 32/24/82
f 29/18/81 33/30/83 32/24/82
f 32/24/82 33/30/83 36/36/84
f 33/30/83 22/29/77 36/36/84
f 36/36/84 22/29/77 27/35/79
s 20
f 5/26/85 6/13/86 21/27/87
f 21/27/87 6/13/86 24/16/88
s 21
f 10/20/89 9/31/90 25/21/91
f 25/21/91 9/31/90 28/34/92
s 22
f 6/13/93 7/14/94 24/16/95
f 24/16/95 7/14/94 30/15/96
s 23
f 11/19/97 10/20/98 31/22/99
f 31/22/99 10/20/98 25/21/100
s 24
f 7/14/101 8/25/102 30/15/103
f 30/15/103 8/25/102 34/28/104
s 25
f 12/32/105 11/19/106 35/33/107
f 35/33/107 11/19/106 31/22/108
s 26
f 8/25/109 5/26/110 34/28/111
f 34/28/111 5/26/110 21/27/112
s 27
f 9/31/113 12/32/114 28/34/115
f 28/34/115 12/32/114 35/33/116
