# This file uses centimeters as units for non-parametric coordinates.

mtllib playfield_tile_dmgtwo.mtl
g default
v -0.321473 0.500000 0.321473
v 0.321473 0.500000 0.321473
v 0.321473 0.500000 -0.321473
v -0.321473 0.500000 -0.321473
v -0.321473 0.512818 0.154039
v -0.321473 0.523678 0.321473
v 0.321473 0.523678 0.321473
v 0.321473 0.523678 -0.321473
v -0.321473 0.523678 -0.321473
v -0.321473 0.523678 -0.230733
v -0.321473 0.516482 0.051342
v -0.321473 0.523678 0.222046
v 0.337256 0.539461 0.337256
v 0.337256 0.539461 -0.337256
v -0.337256 0.539461 0.337256
v -0.337256 0.539461 -0.337256
v 0.404204 0.539461 -0.248213
v 0.344865 0.539461 -0.344865
v 0.404204 0.539461 0.404204
v -0.337256 0.539461 0.245093
v -0.337256 0.539461 -0.264822
v 0.419987 0.523678 -0.245572
v 0.419987 0.523678 0.419987
v 0.406627 0.527678 -0.357854
v 0.323176 0.539461 -0.404204
v -0.404204 0.539461 -0.404204
v -0.404204 0.539461 0.404204
v -0.361906 0.539461 0.153781
v 0.419987 0.500000 -0.305712
v 0.419987 0.500000 0.419987
v -0.419987 0.523678 0.419987
v 0.412230 0.523519 -0.395438
v 0.333984 0.523678 -0.419987
v -0.419987 0.523678 -0.419987
v -0.373836 0.539461 0.044173
v 0.484217 0.500000 -0.305514
v 0.484217 0.500000 0.484217
v -0.419987 0.500000 -0.419987
v 0.334624 0.500000 -0.419987
v 0.500000 0.484217 -0.307757
v 0.500000 0.484217 0.500000
v 0.484217 0.500000 -0.484217
v 0.419987 0.500000 -0.419987
v -0.419987 0.500000 0.419987
v 0.414151 0.520045 -0.420334
v -0.484217 0.500000 -0.484217
v 0.348430 0.500000 -0.484217
v 0.500000 -0.500000 -0.319159
v 0.500000 -0.500000 0.500000
v 0.500000 0.484217 -0.500000
v -0.500000 0.484217 0.500000
v -0.484217 0.500000 0.484217
v 0.347649 0.484217 -0.500000
v -0.500000 0.484217 -0.500000
v 0.500000 -0.500000 -0.500000
v -0.500000 -0.500000 -0.500000
v 0.332722 -0.500000 -0.500000
v -0.500000 -0.500000 0.500000
v -0.321473 0.500000 0.155335
v 0.337256 0.539461 -0.242877
v 0.321473 0.523678 -0.243538
v 0.321473 0.500000 -0.247490
v -0.321473 0.500000 -0.233544
v 0.321473 0.500000 0.143322
v 0.321473 0.523678 0.143513
v 0.337256 0.539461 0.143346
v 0.404203 0.539461 0.142095
v 0.419987 0.523678 0.141672
v 0.419987 0.500000 0.141480
v 0.484217 0.500000 0.140280
v 0.500000 0.484217 0.139858
v 0.500000 -0.500000 0.129115
v -0.404204 0.539461 0.154499
v -0.419987 0.523678 0.155443
v -0.419987 0.500000 0.156940
v -0.484217 0.500000 0.156723
v -0.500000 0.484217 0.157667
v -0.500000 -0.500000 0.214521
v -0.404204 0.539461 -0.265597
v -0.419986 0.523678 -0.267601
v -0.419987 0.500000 -0.270335
v -0.484217 0.500000 -0.271079
v -0.500000 0.484217 -0.273084
v -0.500000 -0.500000 -0.305280
vt 0.396797 0.595201
vt 0.396432 0.403398
vt 0.586588 0.404159
vt 0.586823 0.595090
vt 0.445015 0.600395
vt 0.390231 0.598827
vt 0.390012 0.399476
vt 0.592732 0.399836
vt 0.593146 0.599211
vt 0.563701 0.602718
vt 0.476602 0.601467
vt 0.423569 0.603062
vt 0.383461 0.393475
vt 0.599380 0.393842
vt 0.383738 0.604856
vt 0.599739 0.605021
vt 0.571398 0.371038
vt 0.601462 0.391099
vt 0.363075 0.371797
vt 0.414302 0.608300
vt 0.575771 0.608540
vt 0.571062 0.364081
vt 0.356554 0.365789
vt 0.606458 0.370050
vt 0.620146 0.397620
vt 0.620014 0.626883
vt 0.363482 0.626247
vt 0.443988 0.616175
vt 0.591159 0.358024
vt 0.350312 0.361758
vt 0.356955 0.632247
vt 0.618335 0.368906
vt 0.627050 0.393812
vt 0.626535 0.632905
vt 0.478386 0.619841
vt 0.592777 0.338444
vt 0.329780 0.340449
vt 0.633150 0.636527
vt 0.634522 0.392929
vt 0.593815 0.331459
vt 0.323061 0.334420
vt 0.651541 0.342806
vt 0.629784 0.363632
vt 0.350632 0.636097
vt 0.626040 0.369441
vt 0.653376 0.658165
vt 0.653592 0.386811
vt 0.600572 0.003567
vt 0.324155 0.002254
vt 0.658057 0.336414
vt 0.323459 0.663529
vt 0.330195 0.657513
vt 0.660636 0.386876
vt 0.660152 0.664162
vt 0.660925 0.004335
vt 0.001956 0.335895
vt 0.979762 0.662425
vt 0.978723 0.391352
vt 0.978444 0.337131
vt 0.002514 0.662883
vt 0.323008 0.997433
vt 0.660711 0.997071
vt 0.445060 0.596191
vt 0.567691 0.390345
vt 0.566643 0.397157
vt 0.565903 0.404439
vt 0.562307 0.595424
vt 0.448312 0.403627
vt 0.447777 0.395964
vt 0.447122 0.388945
vt 0.445897 0.368398
vt 0.445620 0.361335
vt 0.445111 0.354006
vt 0.444621 0.334525
vt 0.444642 0.327568
vt 0.449189 0.001992
vt 0.442848 0.629479
vt 0.442197 0.636528
vt 0.441195 0.643966
vt 0.440057 0.663715
vt 0.439553 0.670696
vt 0.419284 0.998008
vt 0.577760 0.628932
vt 0.578861 0.636021
vt 0.580653 0.643401
vt 0.582789 0.662631
vt 0.583711 0.669591
vt 0.595496 0.997512
vn 0.000000 1.000000 0.000000
vn 0.000000 1.000000 0.000000
vn 0.000000 1.000000 0.000000
vn 0.000000 1.000000 0.000000
vn 0.000000 1.000000 0.000000
vn 0.000000 1.000000 0.000000
vn 1.000000 0.000000 0.000000
vn 1.000000 0.000000 0.000000
vn 1.000000 0.000000 0.000000
vn 1.000000 0.000000 0.000000
vn 1.000000 0.000000 0.000000
vn 1.000000 0.000000 0.000000
vn 0.000000 0.000000 -1.000000
vn 0.000000 0.000000 -1.000000
vn 0.000000 0.000000 -1.000000
vn -1.000000 -0.000002 0.000000
vn -1.000000 -0.000002 0.000000
vn -1.000000 -0.000002 0.000000
vn -1.000000 0.000002 0.000000
vn -1.000000 0.000002 0.000000
vn -1.000000 0.000002 0.000000
vn 0.000000 0.000000 1.000000
vn 0.000000 0.000000 1.000000
vn 0.000000 0.000000 1.000000
vn 0.000000 0.000000 -1.000000
vn 0.000000 0.000000 -1.000000
vn 0.000000 0.000000 -1.000000
vn -0.707107 0.707107 0.000000
vn -0.707107 0.707107 0.000000
vn -0.707107 0.707107 0.000000
vn -0.707106 0.707107 0.000000
vn -0.707106 0.707107 0.000000
vn -0.707106 0.707107 0.000000
vn 0.000000 0.000000 1.000000
vn 0.000000 0.000000 1.000000
vn 0.000000 0.000000 1.000000
vn 0.000000 0.707106 -0.707107
vn 0.000000 0.707106 -0.707107
vn 0.000000 0.707106 -0.707107
vn 0.707108 0.707105 0.000000
vn 0.707108 0.707106 0.000000
vn 0.707108 0.707105 0.000000
vn 0.707106 0.707107 0.000000
vn 0.707106 0.707107 0.000000
vn 0.707107 0.707107 0.000000
vn 0.707107 0.707106 0.000000
vn 0.707107 0.707106 0.000000
vn 0.707107 0.707106 0.000000
vn 0.707107 0.707107 0.000000
vn 0.707107 0.707107 0.000000
vn 0.707107 0.707107 0.000000
vn 0.000000 0.707107 0.707107
vn 0.000000 0.707107 0.707107
vn 0.000000 0.707107 0.707107
vn 0.000000 0.707106 -0.707108
vn 0.000000 0.707105 -0.707108
vn 0.000000 0.707105 -0.707108
vn 0.000000 1.000000 -0.000000
vn 0.000000 1.000000 -0.000000
vn 0.000000 1.000000 -0.000000
vn 0.000000 1.000000 0.000000
vn 0.000000 1.000000 0.000000
vn 0.000000 1.000000 0.000000
vn 0.000000 0.707106 0.707108
vn 0.000000 0.707106 0.707108
vn 0.000000 0.707106 0.707108
vn 0.000000 1.000000 -0.000001
vn 0.000000 1.000000 -0.000001
vn 0.000000 1.000000 -0.000001
vn 0.707108 0.707106 0.000001
vn 0.707108 0.707106 0.000001
vn 0.707108 0.707106 0.000001
vn 0.707095 0.707119 0.000000
vn 0.707095 0.707119 0.000000
vn 0.707095 0.707119 0.000000
vn 0.165733 0.980907 -0.101752
vn 0.165733 0.980907 -0.101752
vn 0.165733 0.980907 -0.101752
vn 0.710820 0.700844 -0.059608
vn 0.710820 0.700844 -0.059608
vn 0.710820 0.700844 -0.059608
vn 0.000000 1.000000 0.000000
vn 0.000000 1.000000 0.000000
vn 0.000000 1.000000 0.000000
vn 0.000000 1.000000 -0.000000
vn 0.000000 1.000000 -0.000000
vn 0.000000 1.000000 -0.000000
vn 0.000000 1.000000 -0.000001
vn 0.000000 1.000000 -0.000001
vn 0.000000 1.000000 -0.000001
vn 0.000000 1.000000 0.000001
vn 0.000000 1.000000 0.000001
vn 0.000000 1.000000 0.000001
vn 0.000000 1.000000 0.000000
vn 0.000000 1.000000 0.000000
vn 0.000000 1.000000 0.000000
vn 1.000000 0.000003 0.000000
vn 1.000000 0.000003 0.000000
vn 1.000000 0.000003 0.000000
vn 1.000000 -0.000001 0.000000
vn 1.000000 -0.000001 0.000000
vn 1.000000 -0.000001 0.000000
vn 0.000000 0.707106 0.707108
vn 0.000000 0.707106 0.707108
vn 0.000000 0.707106 0.707108
vn 0.169797 0.981946 -0.083372
vn 0.169797 0.981946 -0.083372
vn 0.169797 0.981946 -0.083372
vn 0.182175 0.981009 -0.066584
vn 0.182175 0.981009 -0.066584
vn 0.182175 0.981009 -0.066584
vn -0.000000 0.707095 -0.707119
vn -0.000000 0.707095 -0.707119
vn -0.000000 0.707095 -0.707119
vn 0.000000 0.707107 -0.707106
vn 0.000000 0.707107 -0.707106
vn 0.000000 0.707107 -0.707106
vn 0.000000 0.707107 0.707107
vn 0.000000 0.707107 0.707107
vn 0.000000 0.707107 0.707107
vn 0.000000 1.000000 0.000000
vn 0.000000 1.000000 0.000000
vn 0.000000 1.000000 0.000000
vn 0.000000 1.000000 0.000000
vn 0.000000 1.000000 0.000000
vn 0.000000 1.000000 0.000000
vn 0.958394 0.265605 -0.104573
vn 0.958394 0.265605 -0.104573
vn 0.958394 0.265605 -0.104573
vn 0.843515 0.532940 0.066772
vn 0.843514 0.532940 0.066772
vn 0.843514 0.532940 0.066772
vn 0.000000 0.000000 1.000000
vn 0.000000 0.000000 1.000000
vn 0.000000 0.000000 1.000000
vn 0.196875 0.757383 -0.622584
vn 0.196875 0.757383 -0.622584
vn 0.196875 0.757383 -0.622584
vn 0.044279 0.989898 -0.134693
vn 0.044279 0.989898 -0.134693
vn 0.044279 0.989898 -0.134693
vn -0.707106 0.707108 0.000000
vn -0.707106 0.707108 0.000000
vn -0.707106 0.707108 0.000000
vn -0.707107 0.707106 0.000000
vn -0.707107 0.707106 0.000000
vn -0.707107 0.707106 0.000000
vn 0.000000 0.000000 -1.000000
vn 0.000000 0.000000 -1.000000
vn 0.000000 0.000000 -1.000000
vn -0.000001 0.000020 -1.000000
vn -0.000001 0.000020 -1.000000
vn -0.000001 0.000020 -1.000000
vn 0.707108 0.707105 -0.000000
vn 0.707108 0.707105 -0.000000
vn 0.707108 0.707105 -0.000000
vn 0.707108 0.707106 0.000000
vn 0.707108 0.707106 0.000000
vn 0.707108 0.707106 0.000000
vn 0.000000 1.000000 0.000000
vn 0.000000 1.000000 0.000000
vn 0.000000 1.000000 0.000000
vn 0.000000 1.000000 0.000000
vn 0.000000 1.000000 0.000000
vn 0.000000 1.000000 0.000000
vn 0.000000 1.000000 0.000000
vn 0.000000 1.000000 0.000000
vn 0.000000 1.000000 0.000000
vn 0.000000 0.000000 1.000000
vn 0.000000 0.000000 1.000000
vn 0.000000 0.000000 1.000000
vn 0.949682 0.313215 0.000000
vn 0.949682 0.313215 0.000000
vn 0.949682 0.313215 0.000000
vn 0.959390 0.279906 0.034979
vn 0.959390 0.279906 0.034979
vn 0.959390 0.279906 0.034979
vn 0.000000 1.000000 0.000000
vn 0.000000 1.000000 0.000000
vn 0.000000 1.000000 0.000000
vn 0.000000 1.000000 0.000000
vn 0.000000 1.000000 0.000000
vn 0.000000 1.000000 0.000000
vn -1.000000 0.000002 0.000000
vn -1.000000 0.000002 0.000000
vn -1.000000 0.000002 0.000000
vn -1.000000 0.000000 0.000000
vn -1.000000 0.000000 0.000000
vn -1.000000 0.000000 0.000000
vn -0.004340 -0.000097 -0.999991
vn -0.004340 -0.000097 -0.999991
vn -0.004340 -0.000097 -0.999991
vn 0.000005 -0.017337 -0.999850
vn 0.000005 -0.017337 -0.999850
vn 0.000005 -0.017337 -0.999850
vn 1.000000 0.000000 0.000000
vn 1.000000 0.000000 0.000000
vn 1.000000 0.000000 0.000000
vn 1.000000 0.000000 0.000000
vn 1.000000 0.000000 0.000000
vn 1.000000 0.000000 0.000000
vn 0.707109 0.707105 0.000000
vn 0.707109 0.707105 0.000000
vn 0.707109 0.707105 0.000000
vn 0.707107 0.707107 0.000000
vn 0.707107 0.707107 0.000000
vn 0.707107 0.707107 0.000000
vn 0.000000 0.707107 0.707107
vn 0.000000 0.707107 0.707107
vn 0.000000 0.707107 0.707107
vn 0.000000 1.000000 0.000000
vn 0.000000 1.000000 0.000000
vn 0.000000 1.000000 0.000000
vn 0.000000 1.000000 0.000000
vn 0.000000 1.000000 0.000000
vn 0.000000 1.000000 0.000000
vn 0.000000 1.000000 0.000000
vn 0.000000 1.000000 0.000000
vn 0.000000 1.000000 0.000000
vn 0.000000 0.707106 -0.707108
vn 0.000000 0.707106 -0.707108
vn 0.000000 0.707106 -0.707108
vn 0.000000 0.707107 -0.707106
vn 0.000000 0.707107 -0.707106
vn 0.000000 0.707107 -0.707106
vn 0.000000 1.000000 0.000000
vn 0.000000 1.000000 0.000000
vn 0.000000 1.000000 0.000000
vn 0.000000 1.000000 0.000000
vn 0.000000 1.000000 0.000000
vn 0.000000 1.000000 0.000000
vn 1.000000 0.000000 0.000000
vn 1.000000 0.000000 0.000000
vn 1.000000 0.000000 0.000000
vn 1.000000 0.000000 0.000000
vn 1.000000 0.000000 0.000000
vn 1.000000 0.000000 0.000000
vn 0.000000 0.000000 1.000000
vn 0.000000 0.000000 1.000000
vn 0.000000 0.000000 1.000000
vn 0.000000 0.707106 -0.707108
vn 0.000000 0.707106 -0.707108
vn 0.000000 0.707106 -0.707108
vn 0.000000 0.707107 -0.707106
vn 0.000000 0.707107 -0.707106
vn 0.000000 0.707107 -0.707106
vn 0.000000 0.707107 0.707107
vn 0.000000 0.707107 0.707107
vn 0.000000 0.707107 0.707107
vn -0.707108 0.707106 0.000000
vn -0.707108 0.707106 0.000000
vn -0.707108 0.707106 0.000000
vn -0.707107 0.707107 -0.000000
vn -0.707107 0.707107 -0.000000
vn -0.707107 0.707107 -0.000000
vn 0.000000 0.000000 -1.000000
vn 0.000000 0.000000 -1.000000
vn 0.000000 0.000000 -1.000000
vn 0.000000 0.000000 -1.000000
vn 0.000000 0.000000 -1.000000
vn 0.000000 0.000000 -1.000000
vn 0.000000 0.000000 -1.000000
vn 0.000000 0.000000 -1.000000
vn 0.000000 0.000000 -1.000000
vn 0.000000 0.000000 -1.000000
vn 0.000000 0.000000 -1.000000
vn 0.000000 0.000000 -1.000000
vn 0.000000 0.000000 1.000000
vn 0.000000 0.000000 1.000000
vn 0.000000 0.000000 1.000000
vn -1.000000 0.000000 0.000000
vn -1.000000 0.000000 0.000000
vn -1.000000 0.000000 0.000000
vn -1.000000 0.000000 0.000000
vn -1.000000 0.000000 0.000000
vn -1.000000 0.000000 0.000000
vn 0.399055 0.916629 0.023385
vn 0.399055 0.916629 0.023385
vn 0.399055 0.916629 0.023385
vn 0.621276 0.780132 0.073549
vn 0.621276 0.780132 0.073549
vn 0.621276 0.780132 0.073549
vn 0.549849 0.834733 0.029779
vn 0.549849 0.834733 0.029779
vn 0.549849 0.834733 0.029779
vn 0.406531 0.912565 -0.044248
vn 0.406531 0.912565 -0.044248
vn 0.406531 0.912565 -0.044248
vn 0.545992 0.827308 -0.132114
vn 0.545992 0.827308 -0.132114
vn 0.545992 0.827308 -0.132114
vn 0.575752 0.802716 -0.155426
vn 0.575752 0.802716 -0.155426
vn 0.575752 0.802716 -0.155426
vn 1.000000 0.000000 0.000000
vn 1.000000 0.000000 0.000000
vn 1.000000 0.000000 0.000000
vn 1.000000 0.000000 0.000000
vn 1.000000 0.000000 0.000000
vn 1.000000 0.000000 0.000000
vn 1.000000 -0.000001 0.000000
vn 1.000000 -0.000001 0.000000
vn 1.000000 -0.000001 0.000000
vn 1.000000 0.000000 -0.000000
vn 1.000000 0.000000 -0.000000
vn 1.000000 0.000000 -0.000000
vn 0.000000 1.000000 0.000000
vn 0.000000 1.000000 0.000000
vn 0.000000 1.000000 0.000000
vn 0.000000 1.000000 0.000000
vn 0.000000 1.000000 0.000000
vn 0.000000 1.000000 0.000000
vn -0.707107 0.707107 0.000000
vn -0.707107 0.707107 0.000000
vn -0.707107 0.707107 0.000000
vn -0.707107 0.707106 0.000000
vn -0.707107 0.707106 0.000000
vn -0.707107 0.707106 0.000000
vn -1.000000 0.000000 0.000000
vn -1.000000 0.000000 0.000000
vn -1.000000 0.000000 0.000000
vn -1.000000 -0.000002 0.000000
vn -1.000000 -0.000002 0.000000
vn -1.000000 -0.000002 0.000000
vn 0.000000 1.000000 -0.000001
vn 0.000000 1.000000 -0.000001
vn 0.000000 1.000000 -0.000001
vn 0.000000 1.000000 0.000000
vn 0.000000 1.000000 0.000000
vn 0.000000 1.000000 0.000000
vn 1.000000 0.000002 0.000000
vn 1.000000 0.000002 0.000000
vn 1.000000 0.000002 0.000000
vn 1.000000 0.000000 -0.000000
vn 1.000000 0.000000 -0.000000
vn 1.000000 0.000000 -0.000000
vn 0.000000 1.000000 0.000000
vn 0.000000 1.000000 0.000000
vn 0.000000 1.000000 0.000000
vn 0.000000 1.000000 0.000000
vn 0.000000 1.000000 0.000000
vn 0.000000 1.000000 0.000000
vn -1.000000 0.000001 0.000000
vn -1.000000 0.000001 0.000000
vn -1.000000 0.000001 0.000000
vn -1.000000 0.000000 0.000000
vn -1.000000 0.000000 0.000000
vn -1.000000 0.000000 0.000000
vn -0.707107 0.707106 0.000000
vn -0.707107 0.707106 0.000000
vn -0.707107 0.707106 0.000000
vn -0.707106 0.707108 0.000000
vn -0.707106 0.707108 0.000000
vn -0.707106 0.707108 0.000000
vn 0.000000 1.000000 0.000000
vn 0.000000 1.000000 0.000000
vn 0.000000 1.000000 0.000000
vn 0.000000 1.000000 -0.000000
vn 0.000000 1.000000 -0.000000
vn 0.000000 1.000000 -0.000000
vn 0.707097 0.707117 -0.000001
vn 0.707097 0.707117 -0.000001
vn 0.707097 0.707117 -0.000001
vn 0.707105 0.707108 -0.000000
vn 0.707105 0.707108 -0.000000
vn 0.707105 0.707108 -0.000000
vn 1.000000 0.000000 -0.000000
vn 1.000000 0.000000 -0.000000
vn 1.000000 0.000000 -0.000000
vn 1.000000 0.000000 -0.000000
vn 1.000000 0.000000 -0.000000
vn 1.000000 0.000000 -0.000000
vn 0.000000 1.000000 0.000000
vn 0.000000 1.000000 0.000000
vn 0.000000 1.000000 0.000000
vn 0.000000 1.000000 0.000000
vn 0.000000 1.000000 0.000000
vn 0.000000 1.000000 0.000000
vn 0.707107 0.707106 -0.000000
vn 0.707107 0.707106 -0.000000
vn 0.707107 0.707106 -0.000000
vn 0.707108 0.707105 0.000000
vn 0.707108 0.707106 0.000000
vn 0.707108 0.707106 0.000000
vn 1.000000 0.000000 0.000000
vn 1.000000 0.000000 0.000000
vn 1.000000 0.000000 0.000000
vn 1.000000 0.000000 0.000000
vn 1.000000 0.000000 0.000000
vn 1.000000 0.000000 0.000000
vn 0.000001 1.000000 0.000000
vn 0.000001 1.000000 0.000000
vn 0.000001 1.000000 0.000000
vn 0.000001 1.000000 0.000000
vn 0.000001 1.000000 0.000000
vn 0.000001 1.000000 0.000000
vn 0.000000 1.000000 0.000000
vn 0.000000 1.000000 0.000000
vn 0.000000 1.000000 0.000000
vn 0.000000 1.000000 0.000000
vn 0.000000 1.000000 0.000000
vn 0.000000 1.000000 0.000000
vn -0.707107 0.707106 0.000000
vn -0.707107 0.707106 0.000000
vn -0.707107 0.707106 0.000000
vn -0.707117 0.707096 -0.000001
vn -0.707117 0.707097 -0.000001
vn -0.707117 0.707097 -0.000001
vn -1.000000 0.000019 -0.000000
vn -1.000000 0.000019 -0.000000
vn -1.000000 0.000019 -0.000000
vn -1.000000 0.000000 -0.000001
vn -1.000000 0.000000 -0.000001
vn -1.000000 0.000000 -0.000001
vn 0.000000 1.000000 0.000000
vn 0.000000 1.000000 0.000000
vn 0.000000 1.000000 0.000000
vn 0.000000 1.000000 0.000000
vn 0.000000 1.000000 0.000000
vn 0.000000 1.000000 0.000000
vn -0.707108 0.707106 0.000000
vn -0.707108 0.707106 0.000000
vn -0.707108 0.707106 0.000000
vn -0.707106 0.707107 0.000000
vn -0.707106 0.707107 0.000000
vn -0.707106 0.707107 0.000000
vn -1.000000 0.000000 0.000000
vn -1.000000 0.000000 0.000000
vn -1.000000 0.000000 0.000000
vn -1.000000 0.000000 0.000000
vn -1.000000 0.000000 0.000000
vn -1.000000 0.000000 0.000000
vn 0.000001 1.000000 0.000000
vn 0.000001 1.000000 0.000000
vn 0.000001 1.000000 0.000000
vn 0.000000 1.000000 -0.000001
vn 0.000000 1.000000 -0.000001
vn 0.000000 1.000000 -0.000001
vn -0.707119 0.707095 -0.000001
vn -0.707119 0.707095 -0.000001
vn -0.707119 0.707095 -0.000001
vn -0.707106 0.707108 0.000002
vn -0.707106 0.707108 0.000002
vn -0.707106 0.707108 0.000002
vn -1.000000 0.000000 0.000000
vn -1.000000 0.000000 0.000000
vn -1.000000 0.000000 0.000000
vn -1.000000 0.000017 0.000003
vn -1.000000 0.000017 0.000003
vn -1.000000 0.000017 0.000003
vn 0.000000 1.000000 0.000000
vn 0.000000 1.000000 0.000000
vn 0.000000 1.000000 0.000000
vn 0.000000 1.000000 0.000000
vn 0.000000 1.000000 0.000000
vn 0.000000 1.000000 0.000000
vn -0.707107 0.707106 0.000000
vn -0.707107 0.707106 0.000000
vn -0.707107 0.707106 0.000000
vn -0.707107 0.707107 0.000000
vn -0.707107 0.707107 0.000000
vn -0.707107 0.707107 0.000000
vn -1.000000 0.000000 0.000000
vn -1.000000 0.000000 0.000000
vn -1.000000 0.000000 0.000000
vn -1.000000 0.000000 0.000000
vn -1.000000 0.000000 0.000000
vn -1.000000 0.000000 0.000000
vn 0.000000 1.000000 0.000000
vn 0.000000 1.000000 0.000000
vn 0.000000 1.000000 0.000000
s off
g playfield_tile_dmgtwo
usemtl playfield_tile_sg
f 59/63/1 64/68/2 63/67/3
f 63/67/4 64/68/5 62/66/6
f 12/12/7 59/63/8 5/5/9
f 5/5/10 59/63/11 11/11/12
f 2/2/13 1/1/14 7/7/15
f 62/66/16 64/68/17 61/65/18
f 61/65/19 64/68/20 65/69/21
f 4/4/22 3/3/23 9/9/24
f 7/7/25 1/1/26 6/6/27
f 61/65/28 65/69/29 60/64/30
f 60/64/31 65/69/32 66/70/33
f 9/9/34 3/3/35 8/8/36
f 15/15/37 7/7/38 6/6/39
f 10/10/40 9/9/41 21/21/42
f 21/21/43 9/9/44 16/16/45
f 12/12/46 20/20/47 6/6/48
f 6/6/49 20/20/50 15/15/51
f 8/8/52 14/14/53 9/9/54
f 13/13/55 7/7/56 15/15/57
f 17/17/58 60/64/59 67/71/60
f 67/71/61 60/64/62 66/70/63
f 9/9/64 14/14/65 16/16/66
f 15/15/67 19/19/68 13/13/69
f 17/17/70 67/71/71 22/22/72
f 22/22/73 67/71/74 68/72/75
f 18/18/76 17/17/77 24/24/78
f 24/24/79 17/17/80 22/22/81
f 18/18/82 25/25/83 14/14/84
f 25/25/85 26/26/86 14/14/87
f 73/77/88 20/20/89 28/28/90
f 14/14/91 26/26/92 16/16/93
f 27/27/94 19/19/95 15/15/96
f 29/29/97 22/22/98 69/73/99
f 69/73/100 22/22/101 68/72/102
f 23/23/103 19/19/104 31/31/105
f 24/24/106 32/32/107 18/18/108
f 18/18/109 32/32/110 25/25/111
f 25/25/112 33/33/113 26/26/114
f 26/26/115 33/33/116 34/34/117
f 31/31/118 19/19/119 27/27/120
f 36/36/121 29/29/122 70/74/123
f 70/74/124 29/29/125 69/73/126
f 22/22/127 29/29/128 24/24/129
f 24/24/130 29/29/131 32/32/132
f 31/31/133 30/30/134 23/23/135
f 25/25/136 32/32/137 33/33/138
f 33/33/139 32/32/140 45/45/141
f 73/77/142 74/78/143 27/27/144
f 27/27/145 74/78/146 31/31/147
f 34/34/148 33/33/149 38/38/150
f 38/38/151 33/33/152 39/39/153
f 40/40/154 36/36/155 71/75/156
f 71/75/157 36/36/158 70/74/159
f 42/42/160 43/43/161 36/36/162
f 36/36/163 43/43/164 29/29/165
f 44/44/166 37/37/167 30/30/168
f 44/44/169 30/30/170 31/31/171
f 29/29/172 43/43/173 32/32/174
f 32/32/175 43/43/176 45/45/177
f 46/46/178 38/38/179 47/47/180
f 47/47/181 38/38/182 39/39/183
f 74/78/184 75/79/185 31/31/186
f 31/31/187 75/79/188 44/44/189
f 33/33/190 45/45/191 39/39/192
f 39/39/193 45/45/194 43/43/195
f 48/48/196 40/40/197 72/76/198
f 72/76/199 40/40/200 71/75/201
f 36/36/202 40/40/203 42/42/204
f 42/42/205 40/40/206 50/50/207
f 41/41/208 37/37/209 51/51/210
f 39/39/211 43/43/212 47/47/213
f 47/47/214 43/43/215 42/42/216
f 52/52/217 37/37/218 44/44/219
f 47/47/220 53/53/221 46/46/222
f 46/46/223 53/53/224 54/54/225
f 75/79/226 76/80/227 44/44/228
f 44/44/229 76/80/230 52/52/231
f 55/55/232 50/50/233 48/48/234
f 48/48/235 50/50/236 40/40/237
f 51/51/238 49/56/239 41/41/240
f 47/47/241 42/42/242 53/53/243
f 53/53/244 42/42/245 50/50/246
f 51/51/247 37/37/248 52/52/249
f 76/80/250 77/81/251 52/52/252
f 52/52/253 77/81/254 51/51/255
f 56/57/256 54/54/257 57/58/258
f 57/58/259 54/54/260 53/53/261
f 57/58/262 53/53/263 55/59/264
f 55/59/265 53/53/266 50/50/267
f 58/60/268 49/56/269 51/51/270
f 77/81/271 78/82/272 51/51/273
f 51/51/274 78/82/275 58/61/276
f 11/11/277 10/10/278 35/35/279
f 35/35/280 10/10/281 21/21/282
f 5/5/283 11/11/284 28/28/285
f 28/28/286 11/11/287 35/35/288
f 5/5/289 28/28/290 12/12/291
f 12/12/292 28/28/293 20/20/294
f 6/6/295 1/1/296 12/12/297
f 12/12/298 1/1/299 59/63/300
f 59/63/301 63/67/302 11/11/303
f 11/11/304 63/67/305 10/10/306
f 18/18/307 14/14/308 17/17/309
f 17/17/310 14/14/311 60/64/312
f 61/65/313 60/64/314 8/8/315
f 8/8/316 60/64/317 14/14/318
f 3/3/319 62/66/320 8/8/321
f 8/8/322 62/66/323 61/65/324
f 63/67/325 62/66/326 4/4/327
f 4/4/328 62/66/329 3/3/330
f 10/10/331 63/67/332 9/9/333
f 9/9/334 63/67/335 4/4/336
f 1/1/337 2/2/338 59/63/339
f 59/63/340 2/2/341 64/68/342
f 64/68/343 2/2/344 65/69/345
f 65/69/346 2/2/347 7/7/348
f 65/69/349 7/7/350 66/70/351
f 66/70/352 7/7/353 13/13/354
f 66/70/355 13/13/356 67/71/357
f 67/71/358 13/13/359 19/19/360
f 67/71/361 19/19/362 68/72/363
f 68/72/364 19/19/365 23/23/366
f 69/73/367 68/72/368 30/30/369
f 30/30/370 68/72/371 23/23/372
f 69/73/373 30/30/374 70/74/375
f 70/74/376 30/30/377 37/37/378
f 70/74/379 37/37/380 71/75/381
f 71/75/382 37/37/383 41/41/384
f 72/76/385 71/75/386 49/49/387
f 49/49/388 71/75/389 41/41/390
f 73/77/391 35/35/392 79/83/393
f 79/83/394 35/35/395 21/21/396
f 15/15/397 20/20/398 27/27/399
f 27/27/400 20/20/401 73/77/402
f 73/77/403 79/83/404 74/78/405
f 74/78/406 79/83/407 80/84/408
f 81/85/409 75/79/410 80/84/411
f 80/84/412 75/79/413 74/78/414
f 82/86/415 76/80/416 81/85/417
f 81/85/418 76/80/419 75/79/420
f 76/80/421 82/86/422 77/81/423
f 77/81/424 82/86/425 83/87/426
f 83/87/427 84/88/428 77/81/429
f 77/81/430 84/88/431 78/82/432
f 21/21/433 16/16/434 79/83/435
f 79/83/436 16/16/437 26/26/438
f 79/83/439 26/26/440 80/84/441
f 80/84/442 26/26/443 34/34/444
f 38/38/445 81/85/446 34/34/447
f 34/34/448 81/85/449 80/84/450
f 46/46/451 82/86/452 38/38/453
f 38/38/454 82/86/455 81/85/456
f 82/86/457 46/46/458 83/87/459
f 83/87/460 46/46/461 54/54/462
f 56/62/463 84/88/464 54/54/465
f 54/54/466 84/88/467 83/87/468
f 73/77/469 28/28/470 35/35/471
