# This file uses centimeters as units for non-parametric coordinates.

v -1.500000 -0.125000 0.750000
v 1.500000 -0.125000 0.750000
v -1.500000 -0.125000 -0.750000
v 1.500000 -0.125000 -0.750000
v -1.500000 0.062506 0.750000
v 1.500000 0.062506 0.750000
v -1.500000 0.062506 -0.750000
v 1.500000 0.062506 -0.750000
v -1.168825 0.185168 0.465910
v -1.509554 0.069848 0.722111
v -1.509554 0.069848 -0.722111
v -1.168825 0.185168 -0.465910
v 1.168825 0.185168 0.465910
v 1.509554 0.069848 0.722111
v 1.168825 0.185168 -0.465910
v 1.509554 0.069848 -0.722111
v 1.168825 0.043765 0.465910
v -1.168825 0.043765 0.465910
v 1.168825 0.043765 -0.465910
v -1.168825 0.043765 -0.465910
v 1.112843 0.000000 0.457234
v -1.112843 0.000000 0.457234
v 1.112843 0.000000 -0.457234
v -1.112843 0.000000 -0.457234
v -1.367687 0.155069 0.654247
v -1.367687 0.155069 -0.654247
v 1.367687 0.155069 -0.654247
v 1.367687 0.155069 0.654247
v -1.306197 0.119376 0.597400
v -1.306197 0.119376 -0.597400
v 1.306197 0.119376 -0.597400
v 1.306197 0.119376 0.597400
v -1.361186 0.069610 0.637048
v -1.361186 0.069610 -0.637048
v -1.306197 0.073359 0.597400
v -1.306197 0.073359 -0.597400
v 1.361186 0.069610 -0.637048
v 1.306197 0.073359 -0.597400
v 1.306197 0.073359 0.597400
v 1.361186 0.069610 0.637048
v 1.500000 -0.012496 0.750000
v 1.500000 -0.012496 -0.750000
v -1.500000 -0.012496 -0.750000
v -1.500000 -0.012496 0.750000
v 1.500000 -0.057498 0.750000
v 1.500000 -0.057498 -0.750000
v -1.500000 -0.057498 -0.750000
v -1.500000 -0.057498 0.750000
v 1.458679 -0.056878 0.729339
v 1.458679 -0.056878 -0.729339
v 1.458679 -0.013116 -0.729339
v 1.458679 -0.013116 0.729339
v -1.458679 -0.013116 -0.729339
v -1.458679 -0.056878 -0.729339
v -1.458679 -0.056878 0.729339
v -1.458679 -0.013116 0.729339
v 0.698612 0.000000 0.376488
v -0.698612 0.000000 0.376488
v 0.698612 0.000000 -0.376488
v -0.698612 0.000000 -0.376488
v 0.652113 0.166464 0.351429
v 0.698612 0.075186 0.376488
v -0.698612 0.075186 0.376488
v -0.652113 0.166464 0.351429
v 0.652113 0.166464 -0.351429
v 0.698612 0.075186 -0.376488
v -0.652113 0.166464 -0.351429
v -0.698612 0.075186 -0.376488
vt 0.199087 0.066804
vt 0.783549 0.063991
vt 0.782631 0.088387
vt 0.200488 0.090684
vt 0.210452 0.092761
vt 0.772627 0.090293
vt 0.770035 0.934409
vt 0.185867 0.913486
vt 0.188000 0.889503
vt 0.769868 0.910196
vt 0.198011 0.887946
vt 0.759929 0.907691
vt 0.322576 0.188605
vt 0.657873 0.187513
vt 0.631343 0.193530
vt 0.349018 0.194790
vt 0.621349 0.208177
vt 0.358609 0.209237
vt 0.648201 0.807172
vt 0.313001 0.795454
vt 0.339651 0.790070
vt 0.621880 0.800351
vt 0.349683 0.775879
vt 0.612329 0.785450
vt 0.730243 0.867503
vt 0.228952 0.850105
vt 0.248365 0.841768
vt 0.711123 0.858137
vt 0.270218 0.825190
vt 0.689919 0.840055
vt 0.699388 0.844353
vt 0.260560 0.828978
vt 0.700640 0.155979
vt 0.280753 0.157516
vt 0.271207 0.153464
vt 0.710225 0.151944
vt 0.240231 0.131423
vt 0.741731 0.129705
vt 0.722387 0.138569
vt 0.259423 0.140262
vt 0.206129 0.040750
vt 0.776052 0.037699
vt 0.775579 0.051384
vt 0.206834 0.054308
vt 0.761729 0.960368
vt 0.192109 0.939832
vt 0.193228 0.926283
vt 0.761679 0.946694
vt 0.196497 0.005824
vt 0.785194 0.002574
vt 0.784890 0.024964
vt 0.197097 0.028134
vt 0.769779 0.995784
vt 0.181408 0.974420
vt 0.182693 0.952124
vt 0.770167 0.973410
vt 0.406552 0.343904
vt 0.389463 0.325190
vt 0.587153 0.325882
vt 0.569289 0.344352
vt 0.377032 0.315008
vt 0.599812 0.315543
vt 0.384025 0.660922
vt 0.401941 0.643090
vt 0.564662 0.647401
vt 0.581674 0.666750
vt 0.594020 0.677357
vt 0.371279 0.670833
vt 0.828919 0.092521
vt 0.822896 0.103643
vt 0.142606 0.884968
vt 0.148535 0.874203
vt 0.179064 0.092815
vt 0.172987 0.104298
vt 0.810277 0.102797
vt 0.791768 0.908264
vt 0.797955 0.896511
vt 0.166644 0.886808
vt 0.160571 0.104844
vt 0.160929 0.875137
vt 0.847860 0.093122
vt 0.835219 0.907348
vt 0.124086 0.884325
vt 0.136451 0.093962
vt 0.154979 0.093899
vt 0.810593 0.896057
vt 0.816270 0.907360
vt 0.804462 0.090852
vn 0.000000 0.000000 1.000000
vn 0.000000 0.000000 1.000000
vn 0.000000 0.000000 1.000000
vn 0.000000 0.000000 1.000000
vn -0.000000 0.000000 -1.000000
vn -0.000000 0.000000 -1.000000
vn -0.000000 0.000000 -1.000000
vn -0.000000 0.000000 -1.000000
vn 1.000000 0.000000 0.000000
vn 1.000000 0.000000 0.000000
vn 1.000000 0.000000 0.000000
vn 1.000000 0.000000 0.000000
vn -1.000000 0.000000 0.000000
vn -1.000000 0.000000 0.000000
vn -1.000000 0.000000 0.000000
vn -1.000000 0.000000 0.000000
vn 0.000000 0.622943 0.782268
vn 0.000000 0.622943 0.782268
vn 0.000000 0.777729 0.628600
vn 0.000000 0.777729 0.628600
vn -0.658286 0.752768 0.000000
vn -0.514942 0.857225 0.000000
vn -0.514942 0.857225 0.000000
vn -0.658286 0.752768 0.000000
vn 0.000000 0.777729 -0.628600
vn 0.000000 0.622943 -0.782268
vn 0.000000 0.622943 -0.782268
vn 0.000000 0.777729 -0.628600
vn 0.514942 0.857225 0.000000
vn 0.514942 0.857225 0.000000
vn 0.658286 0.752768 0.000000
vn 0.658286 0.752768 0.000000
vn -0.609292 -0.792946 0.000000
vn -0.609292 -0.792946 0.000000
vn 0.000000 0.967057 0.254560
vn 0.000000 0.967057 0.254560
vn 0.609292 -0.792946 0.000000
vn 0.609292 -0.792946 0.000000
vn 0.000000 0.967057 -0.254560
vn 0.000000 0.967057 -0.254560
vn 0.000000 0.000000 -1.000000
vn 0.000000 0.000000 -1.000000
vn 0.000000 0.000000 -1.000000
vn 0.000000 0.000000 -1.000000
vn -1.000000 0.000000 0.000000
vn -1.000000 0.000000 0.000000
vn -1.000000 0.000000 0.000000
vn -1.000000 0.000000 0.000000
vn 0.000000 0.000000 1.000000
vn 0.000000 0.000000 1.000000
vn 0.000000 0.000000 1.000000
vn 0.000000 0.000000 1.000000
vn 1.000000 0.000000 0.000000
vn 1.000000 0.000000 0.000000
vn 1.000000 0.000000 0.000000
vn 1.000000 0.000000 0.000000
vn 0.000000 0.194469 -0.980909
vn 0.000000 0.194469 -0.980909
vn 0.000000 0.194469 -0.980909
vn 0.000000 0.194469 -0.980909
vn -0.615899 0.787825 0.000000
vn -0.615899 0.787825 0.000000
vn -0.615899 0.787825 0.000000
vn -0.615899 0.787825 0.000000
vn 0.000000 0.194469 0.980909
vn 0.000000 0.194469 0.980909
vn 0.000000 0.194469 0.980909
vn 0.000000 0.194469 0.980909
vn 0.615899 0.787825 0.000000
vn 0.615899 0.787825 0.000000
vn 0.615899 0.787825 0.000000
vn 0.615899 0.787825 0.000000
vn -0.068024 0.997684 0.000000
vn -0.068024 0.997684 0.000000
vn -0.068024 0.997684 0.000000
vn -0.068024 0.997684 0.000000
vn 0.000000 0.995559 -0.094144
vn 0.000000 0.995559 -0.094144
vn 0.000000 0.995559 -0.094144
vn 0.000000 0.995559 -0.094144
vn 0.068024 0.997684 0.000000
vn 0.068024 0.997684 0.000000
vn 0.068024 0.997684 0.000000
vn 0.068024 0.997684 0.000000
vn 0.000000 0.995559 0.094144
vn 0.000000 0.995559 0.094144
vn 0.000000 0.995559 0.094144
vn 0.000000 0.995559 0.094144
vn -0.431950 0.901897 0.000000
vn -0.431950 0.901897 0.000000
vn -0.431950 0.901897 0.000000
vn -0.431950 0.901897 0.000000
vn 0.000000 0.894300 -0.447469
vn 0.000000 0.894300 -0.447469
vn 0.000000 0.894299 -0.447469
vn 0.000000 0.894299 -0.447469
vn 0.431950 0.901898 0.000000
vn 0.431950 0.901897 0.000000
vn 0.431950 0.901897 0.000000
vn 0.431950 0.901898 0.000000
vn 0.000000 0.894299 0.447469
vn 0.000000 0.894300 0.447469
vn 0.000000 0.894300 0.447469
vn 0.000000 0.894299 0.447469
vn 0.997119 0.075852 0.000000
vn 0.997119 0.075852 0.000000
vn 0.997119 0.075852 0.000000
vn 0.997119 0.075852 0.000000
vn -1.000000 0.000000 0.000000
vn -1.000000 0.000000 0.000000
vn -1.000000 0.000000 0.000000
vn -1.000000 0.000000 0.000000
vn 0.000000 0.197295 0.980344
vn 0.000000 0.197295 0.980344
vn 0.000000 0.197295 0.980344
vn 0.000000 0.197295 0.980344
vn 0.000000 0.000000 -1.000000
vn 0.000000 0.000000 -1.000000
vn 0.000000 0.000000 -1.000000
vn 0.000000 0.000000 -1.000000
vn 1.000000 0.000000 0.000000
vn 1.000000 0.000000 0.000000
vn 1.000000 0.000000 0.000000
vn 1.000000 0.000000 0.000000
vn -0.997119 0.075852 0.000000
vn -0.997119 0.075852 0.000000
vn -0.997119 0.075852 0.000000
vn -0.997119 0.075852 0.000000
vn 0.000000 0.000000 1.000000
vn 0.000000 0.000000 1.000000
vn 0.000000 0.000000 1.000000
vn 0.000000 0.000000 1.000000
vn 0.000000 0.197295 -0.980344
vn 0.000000 0.197295 -0.980344
vn 0.000000 0.197295 -0.980344
vn 0.000000 0.197295 -0.980344
vn 1.000000 0.000000 0.000000
vn 1.000000 0.000000 0.000000
vn 1.000000 0.000000 0.000000
vn 1.000000 0.000000 0.000000
vn -0.000000 0.000000 -1.000000
vn -0.000000 0.000000 -1.000000
vn -0.000000 0.000000 -1.000000
vn -0.000000 0.000000 -1.000000
vn -1.000000 0.000000 0.000000
vn -1.000000 0.000000 0.000000
vn -1.000000 0.000000 0.000000
vn -1.000000 0.000000 0.000000
vn 0.000000 0.000000 1.000000
vn 0.000000 0.000000 1.000000
vn 0.000000 0.000000 1.000000
vn 0.000000 0.000000 1.000000
vn 1.000000 0.000000 0.000000
vn 1.000000 0.000000 0.000000
vn 1.000000 0.000000 0.000000
vn 1.000000 0.000000 0.000000
vn -0.000000 0.000000 -1.000000
vn -0.000000 0.000000 -1.000000
vn -0.000000 0.000000 -1.000000
vn -0.000000 0.000000 -1.000000
vn -1.000000 0.000000 0.000000
vn -1.000000 0.000000 0.000000
vn -1.000000 0.000000 0.000000
vn -1.000000 0.000000 0.000000
vn 0.000000 0.000000 1.000000
vn 0.000000 0.000000 1.000000
vn 0.000000 0.000000 1.000000
vn 0.000000 0.000000 1.000000
vn 0.014997 0.999888 -0.000000
vn 0.014997 0.999888 -0.000000
vn 0.014997 0.999888 -0.000000
vn 0.014997 0.999888 -0.000000
vn 0.014999 -0.999888 0.000000
vn 0.014999 -0.999888 0.000000
vn 0.014999 -0.999888 0.000000
vn 0.014999 -0.999888 0.000000
vn -0.000000 -0.999550 -0.029988
vn -0.000000 -0.999550 -0.029988
vn -0.000000 -0.999550 -0.029988
vn -0.000000 -0.999550 -0.029988
vn 0.000000 0.999550 -0.029983
vn 0.000000 0.999550 -0.029983
vn 0.000000 0.999550 -0.029983
vn 0.000000 0.999550 -0.029983
vn -0.014997 0.999888 0.000000
vn -0.014997 0.999888 0.000000
vn -0.014997 0.999888 0.000000
vn -0.014997 0.999888 0.000000
vn -0.014999 -0.999888 -0.000000
vn -0.014999 -0.999888 -0.000000
vn -0.014999 -0.999888 -0.000000
vn -0.014999 -0.999888 -0.000000
vn -0.000000 0.999550 0.029983
vn -0.000000 0.999550 0.029983
vn -0.000000 0.999550 0.029983
vn -0.000000 0.999550 0.029983
vn 0.000000 -0.999550 0.029988
vn 0.000000 -0.999550 0.029988
vn 0.000000 -0.999550 0.029988
vn 0.000000 -0.999550 0.029988
vn 0.000000 1.000000 0.000000
vn 0.000000 1.000000 0.000000
vn 0.000000 1.000000 0.000000
vn 0.000000 1.000000 0.000000
vn 0.000000 1.000000 0.000000
vn 0.000000 1.000000 0.000000
vn 0.000000 1.000000 0.000000
vn 0.000000 1.000000 0.000000
vn 0.000000 1.000000 0.000000
vn 0.000000 1.000000 0.000000
vn 0.000000 1.000000 0.000000
vn 0.000000 1.000000 0.000000
vn 0.000000 1.000000 0.000000
vn 0.000000 1.000000 0.000000
vn 0.000000 1.000000 0.000000
vn 0.000000 1.000000 0.000000
vn 0.891045 0.453915 0.000000
vn 0.891045 0.453915 0.000000
vn 0.891045 0.453915 0.000000
vn 0.891045 0.453915 0.000000
vn 0.000000 0.264735 0.964321
vn 0.000000 0.264735 0.964321
vn 0.000000 0.264735 0.964321
vn 0.000000 0.264735 0.964321
vn -0.891045 0.453915 0.000000
vn -0.891045 0.453915 0.000000
vn -0.891045 0.453915 0.000000
vn -0.891045 0.453915 0.000000
vn 0.000000 0.264735 -0.964321
vn 0.000000 0.264735 -0.964321
vn 0.000000 0.264735 -0.964321
vn 0.000000 0.264735 -0.964321
vn 0.000000 1.000000 0.000000
vn 0.000000 1.000000 0.000000
vn 0.000000 1.000000 0.000000
vn 0.000000 1.000000 0.000000
vn 0.000000 0.000000 1.000000
vn 0.000000 0.000000 1.000000
vn 0.000000 0.000000 1.000000
vn 0.000000 0.000000 1.000000
vn 1.000000 0.000000 0.000000
vn 1.000000 0.000000 0.000000
vn 1.000000 0.000000 0.000000
vn 1.000000 0.000000 0.000000
vn 0.000000 0.000000 -1.000000
vn 0.000000 0.000000 -1.000000
vn 0.000000 0.000000 -1.000000
vn 0.000000 0.000000 -1.000000
vn -1.000000 0.000000 0.000000
vn -1.000000 0.000000 0.000000
vn -1.000000 0.000000 0.000000
vn -1.000000 0.000000 0.000000
g PowerTablet
f 44/78/1 41/73/2 6/4/3 5/9/4
f 7/10/5 8/3/6 42/88/7 43/76/8
f 41/1/9 42/2/10 8/3/11 6/4/12
f 43/7/13 44/8/14 5/9/15 7/10/16
f 28/37/17 25/26/18 10/11/19 14/5/20
f 10/11/21 25/26/22 26/25/23 11/12/24
f 11/12/25 26/25/26 27/38/27 16/6/28
f 27/38/29 28/37/30 14/5/31 16/6/32
f 5/9/33 10/11/21 11/12/24 7/10/34
f 10/11/19 5/9/35 6/4/36 14/5/20
f 14/5/31 6/4/37 8/3/38 16/6/32
f 7/10/39 11/12/25 16/6/28 8/3/40
f 9/20/41 13/13/42 17/16/43 18/21/44
f 13/13/45 15/14/46 19/15/47 17/16/48
f 15/14/49 12/19/50 20/22/51 19/15/52
f 12/19/53 9/20/54 18/21/55 20/22/56
f 18/21/57 17/16/58 21/18/59 22/23/60
f 17/16/61 19/15/62 23/17/63 21/18/64
f 19/15/65 20/22/66 24/24/67 23/17/68
f 20/22/69 18/21/70 22/23/71 24/24/72
f 34/28/73 33/27/74 35/32/75 36/31/76
f 37/39/77 34/28/78 36/31/79 38/36/80
f 38/36/81 39/35/82 40/40/83 37/39/84
f 39/35/85 35/32/86 33/27/87 40/40/88
f 30/30/89 29/29/90 9/20/91 12/19/92
f 31/33/93 30/30/94 12/19/95 15/14/96
f 13/13/97 32/34/98 31/33/99 15/14/100
f 9/20/101 29/29/102 32/34/103 13/13/104
f 26/25/105 25/26/106 33/27/107 34/28/108
f 29/29/109 30/30/110 36/31/111 35/32/112
f 27/38/113 26/25/114 34/28/115 37/39/116
f 30/30/117 31/33/118 38/36/119 36/31/120
f 31/33/121 32/34/122 39/35/123 38/36/124
f 28/37/125 27/38/126 37/39/127 40/40/128
f 32/34/129 29/29/130 35/32/131 39/35/132
f 25/26/133 28/37/134 40/40/135 33/27/136
f 49/41/137 50/42/138 51/43/139 52/44/140
f 53/77/141 51/75/142 50/70/143 54/86/144
f 54/45/145 55/46/146 56/47/147 53/48/148
f 55/72/149 49/79/150 52/74/151 56/80/152
f 2/49/153 4/50/154 46/51/155 45/52/156
f 47/87/157 46/69/158 4/81/159 3/82/160
f 3/53/161 1/54/162 48/55/163 47/56/164
f 1/83/165 2/84/166 45/85/167 48/71/168
f 45/52/169 46/51/170 50/42/171 49/41/172
f 42/2/173 41/1/174 52/44/175 51/43/176
f 43/76/177 42/88/178 51/75/179 53/77/180
f 46/69/181 47/87/182 54/86/183 50/70/184
f 47/56/185 48/55/186 55/46/187 54/45/188
f 44/8/189 43/7/190 53/48/191 56/47/192
f 48/71/193 45/85/194 49/79/195 55/72/196
f 41/73/197 44/78/198 56/80/199 52/74/200
f 22/23/201 21/18/202 57/61/203 58/68/204
f 21/18/205 23/17/206 59/62/207 57/61/208
f 23/17/209 24/24/210 60/67/211 59/62/212
f 24/24/213 22/23/214 58/68/215 60/67/216
f 61/57/217 62/58/218 66/59/219 65/60/220
f 62/58/221 61/57/222 64/64/223 63/63/224
f 63/63/225 64/64/226 67/65/227 68/66/228
f 65/60/229 66/59/230 68/66/231 67/65/232
f 64/64/233 61/57/234 65/60/235 67/65/236
f 58/68/237 57/61/238 62/58/239 63/63/240
f 57/61/241 59/62/242 66/59/243 62/58/244
f 59/62/245 60/67/246 68/66/247 66/59/248
f 60/67/249 58/68/250 63/63/251 68/66/252
