# This file uses centimeters as units for non-parametric coordinates.

mtllib six_big.mtl
g default
v 0.202104 -0.014691 -0.164585
v 0.202104 -0.235685 -0.164585
v 0.105652 -0.235685 -0.164585
v 0.105652 -0.105851 -0.164585
v -0.042945 -0.105851 -0.164585
v -0.065439 -0.013521 -0.164585
v -0.204015 0.341319 -0.164585
v -0.102769 0.341319 -0.164585
v -0.204015 -0.338804 -0.164585
v -0.102769 -0.247886 -0.164585
v 0.204015 -0.247886 -0.164585
v 0.204015 -0.341319 -0.164585
v 0.119665 -0.221671 0.164585
v 0.105652 -0.235685 0.150572
v 0.105652 -0.105851 0.150572
v 0.119665 -0.091838 0.164585
v 0.188091 -0.028642 0.164585
v 0.202104 -0.014691 0.150572
v 0.188091 -0.221671 0.164585
v 0.202104 -0.235685 0.150572
v -0.042945 -0.105851 0.150572
v -0.031936 -0.091838 0.164585
v -0.047582 -0.027612 0.164585
v -0.065439 -0.013521 0.150572
v -0.190001 0.327305 0.164585
v -0.204015 0.341319 0.150572
v -0.116783 0.327305 0.164585
v -0.102769 0.341319 0.150572
v -0.190001 -0.324877 0.164585
v -0.204015 -0.338804 0.150572
v -0.102769 -0.247886 0.150572
v -0.116783 -0.261899 0.164585
v 0.204015 -0.247886 0.150572
v 0.190001 -0.261899 0.164585
v 0.190001 -0.327219 0.164585
v 0.204015 -0.341319 0.150572
vt 0.015527 0.816030
vt 0.153405 0.825872
vt 0.119418 0.881661
vt 0.077421 0.854053
vt 0.063849 0.867681
vt 0.094327 0.889746
vt 0.025034 0.908390
vt 0.001992 0.886416
vt 0.080061 0.925660
vt 0.094077 0.940030
vt 0.154304 0.963100
vt 0.034499 0.982427
vt 0.538052 0.120825
vt 0.595883 0.165092
vt 0.552164 0.291107
vt 0.502691 0.248553
vt 0.451376 0.087717
vt 0.517963 0.103787
vt 0.478197 0.252445
vt 0.531035 0.304978
vt 0.650827 0.132587
vt 0.600286 0.089795
vt 0.601334 0.066583
vt 0.580965 0.003110
vt 0.070141 0.868363
vt 0.078381 0.859502
vt 0.098597 0.888765
vt 0.114544 0.883145
vt 0.084546 0.923562
vt 0.093109 0.932915
vt 0.483624 0.247837
vt 0.521461 0.106871
vt 0.499485 0.244879
vt 0.597271 0.072913
vt 0.534652 0.117660
vt 0.596276 0.087403
vt 0.660052 0.112351
vt 0.495777 0.038054
vt 0.414281 0.234648
vt 0.050809 0.994007
vt 0.112285 0.798171
vt 0.179637 0.909311
vt 0.003440 0.831844
vt 0.017369 0.946654
vn 0.000000 -0.707090 0.707124
vn 0.000000 -0.707090 0.707123
vn 0.000000 -0.707091 0.707123
vn 0.000000 -0.707091 0.707123
vn -0.707109 0.000000 0.707104
vn -0.707109 0.000000 0.707104
vn -0.707108 0.000000 0.707105
vn -0.707108 0.000000 0.707105
vn 0.000000 -0.707127 0.707087
vn 0.000000 -0.707126 0.707087
vn 0.000000 -0.707127 0.707087
vn 0.000000 -0.707126 0.707087
vn 0.003090 0.707112 0.707095
vn 0.003090 0.707111 0.707095
vn 0.003091 0.707107 0.707099
vn 0.003091 0.707107 0.707099
vn 0.707108 0.000000 0.707105
vn 0.707108 0.000000 0.707105
vn 0.707109 0.000000 0.707105
vn 0.707109 0.000000 0.707105
vn -0.687027 -0.167361 0.707096
vn -0.686993 -0.167365 0.707127
vn -0.687016 -0.167362 0.707106
vn -0.686991 -0.167365 0.707130
vn -0.707072 0.000000 0.707141
vn -0.707072 0.000000 0.707141
vn -0.707072 0.000000 0.707141
vn -0.707072 0.000000 0.707141
vn 0.000000 0.707090 0.707124
vn 0.000000 0.707090 0.707124
vn 0.000000 0.707091 0.707123
vn 0.000000 0.707091 0.707123
vn 0.707109 0.000000 0.707105
vn 0.707109 0.000000 0.707105
vn 0.707108 0.000000 0.707105
vn 0.707108 0.000000 0.707105
vn -0.004358 -0.707107 0.707093
vn -0.004358 -0.707106 0.707094
vn -0.004358 -0.707097 0.707103
vn -0.004358 -0.707097 0.707103
vn 0.000000 0.707108 0.707106
vn 0.000000 0.707108 0.707105
vn 0.000000 0.707108 0.707106
vn 0.000000 0.707109 0.707105
vn 0.707073 0.000000 0.707141
vn 0.707072 0.000000 0.707141
vn 0.707072 0.000000 0.707141
vn 0.707072 0.000000 0.707141
vn 0.000000 0.000000 1.000000
vn 0.000000 0.000000 1.000000
vn 0.000000 0.000000 1.000000
vn 0.000000 0.000000 1.000000
vn 1.000000 0.000000 0.000000
vn 1.000000 0.000000 0.000000
vn 1.000000 0.000000 0.000000
vn 1.000000 0.000000 0.000000
vn -1.000000 0.000000 0.000000
vn -1.000000 0.000000 0.000000
vn -1.000000 0.000000 0.000000
vn -1.000000 0.000000 0.000000
vn -0.971583 -0.236698 0.000000
vn -0.971583 -0.236698 0.000000
vn -0.971583 -0.236698 0.000000
vn -0.971583 -0.236698 0.000000
vn 0.000000 -1.000000 0.000000
vn 0.000000 -1.000000 0.000000
vn 0.000000 -1.000000 0.000000
vn 0.000000 -1.000000 0.000000
vn 0.004371 0.999990 0.000000
vn 0.004371 0.999990 0.000000
vn 0.004371 0.999990 0.000000
vn 0.004371 0.999990 0.000000
vn 0.000000 0.000000 1.000000
vn 0.000000 0.000000 1.000000
vn 0.000000 -1.000000 0.000000
vn 0.000000 -1.000000 0.000000
vn 0.000000 -1.000000 0.000000
vn 0.000000 -1.000000 0.000000
vn 0.000000 0.000000 1.000000
vn 0.000000 0.000000 1.000000
vn 0.000000 0.000000 1.000000
vn 0.000000 0.000000 1.000000
vn 0.000000 1.000000 0.000000
vn 0.000000 1.000000 0.000000
vn 0.000000 1.000000 0.000000
vn 0.000000 1.000000 0.000000
vn 1.000000 0.000000 0.000000
vn 1.000000 0.000000 0.000000
vn 1.000000 0.000000 0.000000
vn 1.000000 0.000000 0.000000
vn -1.000000 0.000000 0.000000
vn -1.000000 0.000000 0.000000
vn -1.000000 0.000000 0.000000
vn -1.000000 0.000000 0.000000
vn 1.000000 0.000000 0.000000
vn 1.000000 0.000000 0.000000
vn 1.000000 0.000000 0.000000
vn 1.000000 0.000000 0.000000
vn 0.000000 1.000000 0.000000
vn 0.000000 1.000000 0.000000
vn 0.000000 1.000000 0.000000
vn 0.000000 1.000000 0.000000
vn 0.000000 0.000000 1.000000
vn 0.000000 0.000000 1.000000
vn -0.006163 -0.999981 0.000000
vn -0.006163 -0.999981 0.000000
vn -0.006163 -0.999981 0.000000
vn -0.006163 -0.999981 0.000000
s 1
g nr_six_big
usemtl numbers_sg
f 13/25/1 14/5/2 19/26/3
f 19/26/3 14/5/2 20/4/4
s 2
f 14/5/5 13/25/6 15/6/7
f 15/6/7 13/25/6 16/27/8
s 3
f 16/27/9 22/29/10 15/6/11
f 15/6/11 22/29/10 21/9/12
s 4
f 17/28/13 18/3/14 23/30/15
f 23/30/15 18/3/14 24/10/16
s 5
f 18/3/17 17/28/18 20/4/19
f 20/4/19 17/28/18 19/26/20
s 6
f 22/29/21 23/30/22 21/9/23
f 21/9/23 23/30/22 24/10/24
s 7
f 25/31/25 26/19/26 29/32/27
f 29/32/27 26/19/26 30/18/28
s 8
f 26/19/29 25/31/30 28/16/31
f 28/16/31 25/31/30 27/33/32
s 9
f 28/16/33 27/33/34 31/13/35
f 31/13/35 27/33/34 32/35/36
s 10
f 29/32/37 30/18/38 35/34/39
f 35/34/39 30/18/38 36/23/40
s 11
f 32/35/41 34/36/42 31/13/43
f 31/13/43 34/36/42 33/22/44
s 12
f 34/36/45 35/34/46 33/22/47
f 33/22/47 35/34/46 36/23/48
s 13
f 17/28/49 16/27/50 19/26/51
f 19/26/51 16/27/50 13/25/52
s 14
f 2/41/53 1/2/54 20/4/55
f 20/4/55 1/2/54 18/3/56
s 15
f 14/5/57 15/6/58 3/8/59
f 3/8/59 15/6/58 4/7/60
s 16
f 21/9/61 24/10/62 5/12/63
f 5/12/63 24/10/62 6/40/64
s 17
f 15/6/65 21/9/66 4/7/67
f 4/7/67 21/9/66 5/44/68
s 18
f 1/42/69 6/11/70 18/3/71
f 18/3/71 6/11/70 24/10/72
s 13
f 17/28/49 23/30/73 16/27/50
f 16/27/50 23/30/73 22/29/74
s 19
f 20/4/75 14/5/76 2/1/77
f 2/1/77 14/5/76 3/43/78
s 20
f 29/32/79 32/35/80 25/31/81
f 25/31/81 32/35/80 27/33/82
s 21
f 26/19/83 28/16/84 7/20/85
f 7/20/85 28/16/84 8/15/86
s 22
f 31/13/87 10/14/88 28/16/89
f 28/16/89 10/14/88 8/15/90
s 23
f 9/17/91 30/18/92 7/39/93
f 7/39/93 30/18/92 26/19/94
s 24
f 11/21/95 33/22/96 12/37/97
f 12/37/97 33/22/96 36/23/98
s 25
f 10/14/99 31/13/100 11/21/101
f 11/21/101 31/13/100 33/22/102
s 20
f 29/32/79 35/34/103 32/35/80
f 32/35/80 35/34/103 34/36/104
s 26
f 30/18/105 9/38/106 36/23/107
f 36/23/107 9/38/106 12/24/108
