# This file uses centimeters as units for non-parametric coordinates.

g default
v -0.544172 -0.282475 0.346017
v 0.554590 -0.282475 0.341317
v -0.532033 0.031467 0.274487
v 0.416578 0.004081 0.324665
v -0.356372 -0.012342 -0.401312
v 0.412625 0.010464 -0.445445
v -0.351767 -0.282475 -0.424036
v 0.427407 -0.282475 -0.377169
v -0.374684 -0.282475 0.672017
v -0.385256 0.112581 0.473696
v -0.135500 0.123119 -0.367185
v -0.133155 -0.282475 -0.509177
v 0.575604 -0.282475 -0.172140
v 0.450958 0.098477 -0.134541
v -0.177615 0.217585 -0.023489
v -0.482810 0.055940 -0.077433
v -0.588429 -0.282475 -0.034190
v 0.066599 -0.282475 0.599414
v 0.106557 0.180021 0.352637
v 0.252047 0.282475 -0.074759
v 0.268688 0.175541 -0.423846
v 0.161366 -0.282475 -0.620651
v 0.073430 -0.149379 0.636379
v -0.373378 -0.158335 0.708721
v -0.569942 -0.194666 0.368878
v -0.590985 -0.183704 -0.035939
v -0.406474 -0.214288 -0.496794
v -0.168744 -0.153615 -0.585723
v 0.176211 -0.165239 -0.708721
v 0.475434 -0.204099 -0.475519
v 0.590985 -0.164678 -0.163499
v 0.558365 -0.206958 0.347533
vt 0.752598 0.809893
vt 0.663439 0.786643
vt 0.675527 0.766125
vt 0.755451 0.791603
vt 0.782250 0.738281
vt 0.731122 0.722546
vt 0.791391 0.633791
vt 0.840220 0.686619
vt 0.945801 0.605477
vt 0.916914 0.556109
vt 0.942831 0.539514
vt 0.965888 0.590488
vt 0.598632 0.512042
vt 0.695190 0.435970
vt 0.705599 0.456912
vt 0.606668 0.524597
vt 0.883267 0.747081
vt 0.811930 0.803586
vt 0.796591 0.791884
vt 0.869610 0.732763
vt 0.598330 0.691328
vt 0.625145 0.681733
vt 0.696292 0.628148
vt 0.752157 0.560246
vt 0.883660 0.484353
vt 0.906396 0.468553
vt 0.747679 0.405549
vt 0.773489 0.419998
vt 0.850263 0.588862
vt 0.803326 0.515057
vt 0.894646 0.624324
vt 0.953808 0.665321
vt 0.943869 0.642505
vt 0.570674 0.562077
vt 0.586189 0.558625
vt 0.643932 0.570252
vt 0.734141 0.510976
vt 0.797616 0.468061
vt 0.832637 0.423755
vt 0.849123 0.400216
vn -0.829255 -0.355615 0.431131
vn -0.379836 -0.270244 0.884699
vn -0.865825 0.170841 0.470276
vn -0.280601 0.411523 0.867129
vn -0.257066 0.961640 0.095737
vn -0.245072 0.968786 -0.037322
vn -0.470623 0.882292 -0.008679
vn -0.452351 0.879912 -0.145371
vn -0.356023 0.025826 -0.934120
vn -0.321205 0.329760 -0.887742
vn -0.149600 -0.683720 -0.714246
vn -0.299426 -0.547055 -0.781713
vn 0.974806 -0.113178 -0.192210
vn 0.951636 0.301306 -0.060028
vn 0.995977 -0.070462 0.055363
vn 0.899241 0.427505 0.092769
vn -0.970335 -0.029358 -0.239973
vn -0.965592 -0.254712 0.052479
vn -0.954635 0.205155 -0.215831
vn -0.998029 0.033913 0.052797
vn 0.336456 -0.263793 0.903997
vn 0.271524 0.400727 0.875039
vn -0.105586 0.978442 0.177492
vn -0.153994 0.984796 -0.080394
vn 0.087557 -0.631224 -0.770643
vn 0.022982 0.327848 -0.944451
vn 0.761882 -0.595398 -0.255024
vn 0.935494 0.038211 -0.351270
vn -0.277608 0.912188 -0.301410
vn -0.163556 0.941060 -0.296067
vn -0.450155 0.821918 -0.349016
vn -0.681915 -0.689206 -0.244922
vn -0.927705 0.020244 -0.372765
vn 0.465386 -0.095684 0.879921
vn 0.508028 0.216671 0.833643
vn 0.485252 0.798368 0.356566
vn 0.553308 0.772845 0.310744
vn 0.629232 0.764242 0.141423
vn 0.693275 0.720662 0.004073
vn 0.673261 0.700167 -0.237667
vn 0.707415 0.652403 -0.271908
vn 0.625972 -0.203866 -0.752727
vn 0.403906 -0.801305 -0.441328
vn -0.263007 0.619095 0.739965
vn 0.227931 0.622205 0.748938
vn -0.818825 0.332572 0.467891
vn -0.964885 0.262671 0.001168
vn -0.892989 0.355238 -0.276364
vn -0.851636 0.365971 -0.375208
vn -0.220143 0.639636 -0.736480
vn -0.318432 0.567874 -0.759026
vn -0.014299 0.643585 -0.765241
vn 0.527174 0.407774 -0.745525
vn 0.867178 0.395100 -0.303147
vn 0.883388 0.468402 0.015040
vn 0.842575 0.525160 0.119479
vn 0.455881 0.489939 0.743056
s 1
g stone_b_two pCube9
f 1/1/1 9/2/2 25/4/3
f 25/4/3 9/2/2 24/3/4
s 2
f 10/6/5 15/7/6 3/5/7
f 3/5/7 15/7/6 16/8/8
s 3
f 27/9/9 28/10/10 7/12/11
f 7/12/11 28/10/10 12/11/12
s 4
f 13/14/13 31/15/14 2/13/15
f 2/13/15 31/15/14 32/16/16
s 5
f 17/17/17 1/18/18 26/20/19
f 26/20/19 1/18/18 25/19/20
s 1
f 18/21/21 23/22/22 9/2/2
f 9/2/2 23/22/22 24/3/4
s 2
f 10/6/5 19/23/23 15/7/6
f 15/7/6 19/23/23 20/24/24
s 3
f 12/11/12 28/10/10 22/26/25
f 22/26/25 28/10/10 29/25/26
s 4
f 13/14/13 8/27/27 31/15/14
f 31/15/14 8/27/27 30/28/28
s 2
f 15/7/6 20/24/24 11/29/29
f 11/29/29 20/24/24 21/30/30
f 15/7/6 11/29/29 16/8/8
f 16/8/8 11/29/29 5/31/31
s 5
f 17/17/17 26/20/19 7/32/32
f 7/32/32 26/20/19 27/33/33
s 1
f 2/34/34 32/35/35 18/21/21
f 18/21/21 32/35/35 23/22/22
s 7
f 19/23/36 4/36/37 20/24/38
f 20/24/38 4/36/37 14/37/39
f 20/24/38 14/37/39 21/30/40
f 21/30/40 14/37/39 6/38/41
s 3
f 29/25/26 30/39/42 22/26/25
f 22/26/25 30/39/42 8/40/43
s 1
f 24/3/4 23/22/22 10/6/44
f 10/6/44 23/22/22 19/23/45
f 24/3/4 10/6/44 25/4/3
f 25/4/3 10/6/44 3/5/46
s 5
f 25/19/20 3/5/47 26/20/19
f 26/20/19 3/5/47 16/8/48
f 27/33/33 26/20/19 5/31/49
f 5/31/49 26/20/19 16/8/48
s 3
f 11/29/50 28/10/10 5/31/51
f 5/31/51 28/10/10 27/9/9
f 28/10/10 11/29/50 29/25/26
f 29/25/26 11/29/50 21/30/52
f 30/39/42 29/25/26 6/38/53
f 6/38/53 29/25/26 21/30/52
s 4
f 30/28/28 6/38/54 31/15/14
f 31/15/14 6/38/54 14/37/55
f 32/16/16 31/15/14 4/36/56
f 4/36/56 31/15/14 14/37/55
s 1
f 32/35/35 4/36/57 23/22/22
f 23/22/22 4/36/57 19/23/45
