# This file uses centimeters as units for non-parametric coordinates.

g default
v -0.187531 -0.165678 0.153914
v 0.188853 -0.165678 0.161541
v -0.208114 0.042350 0.139411
v 0.209223 0.024203 0.179071
v -0.188809 0.013321 -0.154329
v 0.202356 0.028433 -0.171980
v -0.151522 -0.165678 -0.138579
v 0.182872 -0.165678 -0.133685
v -0.086970 -0.165678 0.269732
v -0.058460 0.096099 0.217352
v -0.064439 0.103082 -0.217741
v -0.055707 -0.165678 -0.248944
v 0.233879 -0.165678 0.024740
v 0.206748 0.086753 0.040271
v -0.028372 0.165678 -0.047133
v -0.222131 0.058567 -0.021235
v -0.239918 -0.165678 -0.003716
v 0.097708 -0.165678 0.281349
v 0.101861 0.109386 0.241815
v 0.072463 0.165678 -0.034349
v 0.102301 0.085885 -0.211225
v 0.077847 -0.165678 -0.262021
v 0.115555 -0.077485 0.318967
v -0.052627 -0.083419 0.306240
v -0.231991 -0.107493 0.175110
v -0.294446 -0.100230 -0.005542
v -0.213413 -0.120495 -0.190440
v -0.080765 -0.080292 -0.300394
v 0.096771 -0.087994 -0.318967
v 0.233201 -0.113744 -0.183354
v 0.294446 -0.087622 0.029319
v 0.249283 -0.115638 0.188551
vt 0.770063 0.937385
vt 0.765339 0.901618
vt 0.781529 0.890426
vt 0.786160 0.939417
vt 0.823623 0.934766
vt 0.821225 0.896058
vt 0.872162 0.899424
vt 0.860930 0.940342
vt 0.926789 0.961249
vt 0.937663 0.925895
vt 0.956464 0.930871
vt 0.946360 0.964460
vt 0.847134 0.782554
vt 0.879644 0.791246
vt 0.874180 0.810368
vt 0.839826 0.798826
vt 0.854119 0.990872
vt 0.815204 0.987496
vt 0.814130 0.971277
vt 0.854884 0.973687
vt 0.769713 0.849765
vt 0.789212 0.854062
vt 0.824823 0.864338
vt 0.873605 0.879460
vt 0.948149 0.890506
vt 0.967381 0.895386
vt 0.918439 0.798241
vt 0.923547 0.817712
vt 0.902792 0.911814
vt 0.911017 0.878882
vt 0.894434 0.946309
vt 0.891123 0.998008
vt 0.898099 0.979398
vt 0.780549 0.815576
vt 0.798830 0.815198
vt 0.831257 0.833840
vt 0.864034 0.847456
vt 0.916624 0.851879
vt 0.955580 0.852073
vt 0.974146 0.855982
vn -0.585088 -0.632135 0.508014
vn -0.414962 -0.272929 0.867938
vn -0.628265 0.093268 0.772389
vn -0.322789 0.164277 0.932105
vn -0.257934 0.944246 0.204622
vn -0.259773 0.964097 -0.055098
vn -0.435078 0.884983 0.165867
vn -0.491383 0.865605 -0.096283
vn -0.329586 0.155855 -0.931173
vn -0.274634 -0.611144 -0.742347
vn -0.665371 -0.148791 -0.731534
vn -0.368783 -0.872636 -0.320165
vn 0.574738 -0.796174 0.189166
vn 0.771455 -0.632318 -0.070934
vn 0.950074 -0.114842 0.290123
vn 0.995272 0.091989 -0.031157
vn -0.726627 -0.643193 0.241485
vn -0.942081 -0.076220 0.326610
vn -0.730507 -0.682195 -0.031123
vn -0.999064 0.007957 -0.042521
vn 0.273999 -0.469219 0.839499
vn 0.304570 0.120631 0.944820
vn 0.266904 0.962938 -0.038888
vn 0.168953 0.961530 0.216599
vn 0.230305 -0.638219 -0.734599
vn 0.247377 0.129958 -0.960165
vn 0.691143 -0.710394 -0.132896
vn 0.958575 -0.110698 -0.262451
vn -0.306576 0.912728 -0.270072
vn 0.336142 0.883021 -0.327539
vn -0.551014 0.783101 -0.288334
vn -0.410551 -0.871227 -0.269092
vn -0.890386 -0.150825 -0.429494
vn 0.488096 -0.789864 0.371319
vn 0.722351 -0.106191 0.683325
vn 0.544119 0.838748 0.020902
vn 0.692580 0.662192 0.286067
vn 0.571199 0.784080 -0.242795
vn 0.707289 -0.201958 -0.677462
vn 0.459399 -0.804743 -0.375955
vn 0.176769 0.411832 0.893951
vn -0.362750 0.404015 0.839752
vn -0.563291 0.316191 0.763366
vn -0.918637 0.318400 0.233938
vn -0.909047 0.403812 -0.102811
vn -0.870765 0.310380 -0.381357
vn -0.217060 0.417120 -0.882551
vn -0.636930 0.342517 -0.690654
vn 0.210419 0.470168 -0.857126
vn 0.628776 0.322850 -0.707395
vn 0.913433 0.341924 -0.220744
vn 0.892911 0.449992 -0.014729
vn 0.898531 0.371255 0.234120
vn 0.683502 0.291231 0.669335
s 1
g stone_s_one pCube9
f 1/1/1 9/2/2 25/4/3
f 25/4/3 9/2/2 24/3/4
s 2
f 10/6/5 15/7/6 3/5/7
f 3/5/7 15/7/6 16/8/8
s 3
f 28/10/9 12/11/10 27/9/11
f 27/9/11 12/11/10 7/12/12
s 4
f 2/13/13 13/14/14 32/16/15
f 32/16/15 13/14/14 31/15/16
s 5
f 1/18/17 25/19/18 17/17/19
f 17/17/19 25/19/18 26/20/20
s 1
f 9/2/2 18/21/21 24/3/4
f 24/3/4 18/21/21 23/22/22
s 2
f 15/7/6 10/6/5 20/24/23
f 20/24/23 10/6/5 19/23/24
s 3
f 12/11/10 28/10/9 22/26/25
f 22/26/25 28/10/9 29/25/26
s 4
f 13/14/14 8/27/27 31/15/16
f 31/15/16 8/27/27 30/28/28
s 2
f 11/29/29 15/7/6 21/30/30
f 21/30/30 15/7/6 20/24/23
f 16/8/8 15/7/6 5/31/31
f 5/31/31 15/7/6 11/29/29
s 5
f 7/32/32 17/17/19 27/33/33
f 27/33/33 17/17/19 26/20/20
s 1
f 2/34/34 32/35/35 18/21/21
f 18/21/21 32/35/35 23/22/22
s 2
f 20/24/23 19/23/24 14/37/36
f 14/37/36 19/23/24 4/36/37
f 21/30/30 20/24/23 6/38/38
f 6/38/38 20/24/23 14/37/36
s 3
f 29/25/26 30/39/39 22/26/25
f 22/26/25 30/39/39 8/40/40
s 1
f 23/22/22 19/23/41 24/3/4
f 24/3/4 19/23/41 10/6/42
f 25/4/3 24/3/4 3/5/43
f 3/5/43 24/3/4 10/6/42
s 5
f 25/19/18 3/5/44 26/20/20
f 26/20/20 3/5/44 16/8/45
f 27/33/33 26/20/20 5/31/46
f 5/31/46 26/20/20 16/8/45
s 3
f 11/29/47 28/10/9 5/31/48
f 5/31/48 28/10/9 27/9/11
f 29/25/26 28/10/9 21/30/49
f 21/30/49 28/10/9 11/29/47
f 30/39/39 29/25/26 6/38/50
f 6/38/50 29/25/26 21/30/49
s 4
f 30/28/28 6/38/51 31/15/16
f 31/15/16 6/38/51 14/37/52
f 32/16/15 31/15/16 4/36/53
f 4/36/53 31/15/16 14/37/52
s 1
f 32/35/35 4/36/54 23/22/22
f 23/22/22 4/36/54 19/23/41
