# This file uses centimeters as units for non-parametric coordinates.

g default
v -0.122981 -0.160390 0.098368
v 0.135332 -0.160390 0.113744
v -0.149240 -0.009225 0.073641
v 0.124728 0.028750 0.085324
v -0.122187 -0.018593 -0.115007
v 0.130824 0.004241 -0.115043
v -0.119195 -0.160390 -0.113207
v 0.115975 -0.160390 -0.098962
v -0.026804 -0.160390 0.212754
v 0.006627 0.098352 0.079248
v -0.025978 0.070199 -0.153911
v -0.038232 -0.160390 -0.160628
v 0.147941 -0.160390 0.015322
v 0.151299 0.070081 -0.020067
v -0.003297 0.160390 -0.051324
v -0.146906 0.028694 -0.026429
v -0.156660 -0.160390 -0.002972
v 0.074314 -0.160390 0.198023
v 0.063067 0.090226 0.094976
v 0.086601 0.160390 -0.043105
v 0.063350 0.059143 -0.149721
v 0.047629 -0.160390 -0.169035
v 0.081313 -0.051140 0.214972
v -0.028116 -0.045323 0.209259
v -0.155965 -0.099740 0.114474
v -0.189319 -0.097372 -0.019505
v -0.137611 -0.098660 -0.141720
v -0.031352 -0.074776 -0.204106
v 0.061024 -0.081048 -0.214972
v 0.150594 -0.095788 -0.121501
v 0.189319 -0.101878 0.019760
v 0.153437 -0.093741 0.129427
vt 0.351823 0.827068
vt 0.376527 0.853837
vt 0.355790 0.867130
vt 0.337756 0.835327
vt 0.316260 0.849817
vt 0.326083 0.889168
vt 0.304342 0.896034
vt 0.295432 0.864164
vt 0.248424 0.875937
vt 0.255457 0.901634
vt 0.235947 0.902718
vt 0.232872 0.880596
vt 0.357343 0.963338
vt 0.333885 0.968662
vt 0.332473 0.953810
vt 0.357075 0.946740
vt 0.281873 0.825520
vt 0.303725 0.813276
vt 0.312876 0.826032
vt 0.285493 0.840477
vt 0.388017 0.878830
vt 0.367139 0.887161
vt 0.333299 0.899968
vt 0.309767 0.907230
vt 0.259933 0.921172
vt 0.241486 0.926262
vt 0.306254 0.975146
vt 0.299263 0.959025
vt 0.283355 0.896777
vt 0.287751 0.915215
vt 0.271339 0.871216
vt 0.256342 0.838182
vt 0.258998 0.854470
vt 0.394733 0.902988
vt 0.379504 0.908496
vt 0.343340 0.916359
vt 0.316771 0.922343
vt 0.292558 0.935085
vt 0.267177 0.947229
vt 0.249512 0.948734
vn -0.660035 -0.506333 0.554961
vn -0.365064 -0.071856 0.928205
vn -0.682576 0.073597 0.727100
vn -0.364849 0.425509 0.828147
vn -0.551494 0.784236 0.284303
vn -0.413843 0.816916 0.401724
vn -0.661979 0.749274 0.019279
vn -0.430413 0.899075 -0.080060
vn -0.311882 0.083998 -0.946401
vn -0.282728 -0.431557 -0.856635
vn -0.517531 -0.036764 -0.854874
vn -0.442962 -0.481461 -0.756294
vn 0.816571 -0.571055 -0.084311
vn 0.999788 -0.010499 0.017713
vn 0.878304 -0.406728 0.251304
vn 0.947809 0.100239 0.302672
vn -0.813789 -0.514394 0.270454
vn -0.958444 -0.121911 0.257919
vn -0.879258 -0.476147 0.013770
vn -0.995847 -0.020224 -0.088767
vn 0.455535 -0.191239 0.869434
vn 0.376052 0.345296 0.859858
vn 0.498512 0.854866 -0.143842
vn 0.454687 0.762475 0.460316
vn 0.303418 -0.514981 -0.801706
vn 0.318651 0.020258 -0.947656
vn 0.813223 -0.529516 -0.241415
vn 0.960178 -0.082940 -0.266793
vn -0.453042 0.705276 -0.545288
vn 0.438777 0.627465 -0.643244
vn -0.691735 0.538895 -0.480724
vn -0.835698 -0.438725 -0.330347
vn -0.920868 -0.019035 -0.389410
vn 0.762594 -0.337079 0.552113
vn 0.806371 0.090783 0.584401
vn 0.804312 0.592397 -0.046342
vn 0.675225 0.612795 0.410552
vn 0.685374 0.520896 -0.508851
vn 0.713434 -0.128820 -0.688780
vn 0.606451 -0.531348 -0.591512
vn 0.183018 0.668210 0.721111
vn -0.348623 0.673824 0.651478
vn -0.541505 0.555094 0.631382
vn -0.952523 0.251017 0.172307
vn -0.938372 0.306976 -0.158820
vn -0.878793 0.283634 -0.383764
vn -0.230453 0.325988 -0.916855
vn -0.559505 0.312684 -0.767582
vn 0.288679 0.361727 -0.886464
vn 0.670725 0.263441 -0.693344
vn 0.945454 0.162531 -0.282314
vn 0.977294 0.210523 -0.023990
vn 0.903853 0.288216 0.316197
vn 0.695590 0.483846 0.531081
s 1
g stone_s_three pCube9
f 1/1/1 9/2/2 25/4/3
f 25/4/3 9/2/2 24/3/4
s 2
f 3/5/5 10/6/6 16/8/7
f 16/8/7 10/6/6 15/7/8
s 3
f 28/10/9 12/11/10 27/9/11
f 27/9/11 12/11/10 7/12/12
s 4
f 13/14/13 31/15/14 2/13/15
f 2/13/15 31/15/14 32/16/16
s 5
f 1/18/17 25/19/18 17/17/19
f 17/17/19 25/19/18 26/20/20
s 1
f 18/21/21 23/22/22 9/2/2
f 9/2/2 23/22/22 24/3/4
s 2
f 15/7/8 10/6/6 20/24/23
f 20/24/23 10/6/6 19/23/24
s 3
f 12/11/10 28/10/9 22/26/25
f 22/26/25 28/10/9 29/25/26
s 4
f 13/14/13 8/27/27 31/15/14
f 31/15/14 8/27/27 30/28/28
s 2
f 11/29/29 15/7/8 21/30/30
f 21/30/30 15/7/8 20/24/23
f 15/7/8 11/29/29 16/8/7
f 16/8/7 11/29/29 5/31/31
s 5
f 17/17/19 26/20/20 7/32/32
f 7/32/32 26/20/20 27/33/33
s 1
f 2/34/34 32/35/35 18/21/21
f 18/21/21 32/35/35 23/22/22
s 2
f 20/24/23 19/23/24 14/37/36
f 14/37/36 19/23/24 4/36/37
f 20/24/23 14/37/36 21/30/30
f 21/30/30 14/37/36 6/38/38
s 3
f 29/25/26 30/39/39 22/26/25
f 22/26/25 30/39/39 8/40/40
s 1
f 23/22/22 19/23/41 24/3/4
f 24/3/4 19/23/41 10/6/42
f 25/4/3 24/3/4 3/5/43
f 3/5/43 24/3/4 10/6/42
s 5
f 25/19/18 3/5/44 26/20/20
f 26/20/20 3/5/44 16/8/45
f 27/33/33 26/20/20 5/31/46
f 5/31/46 26/20/20 16/8/45
s 3
f 11/29/47 28/10/9 5/31/48
f 5/31/48 28/10/9 27/9/11
f 29/25/26 28/10/9 21/30/49
f 21/30/49 28/10/9 11/29/47
f 30/39/39 29/25/26 6/38/50
f 6/38/50 29/25/26 21/30/49
s 4
f 30/28/28 6/38/51 31/15/14
f 31/15/14 6/38/51 14/37/52
f 32/16/16 31/15/14 4/36/53
f 4/36/53 31/15/14 14/37/52
s 1
f 32/35/35 4/36/54 23/22/22
f 23/22/22 4/36/54 19/23/41
