# This file uses centimeters as units for non-parametric coordinates.

g default
v -0.429686 -0.472932 0.469911
v 0.246115 -0.472932 0.583025
v -0.424232 0.220455 0.309952
v 0.270747 0.259976 0.394861
v -0.346393 0.329659 -0.580761
v 0.435379 0.342319 -0.581559
v -0.323882 -0.472932 -0.434129
v 0.532224 -0.472932 -0.517803
v -0.283824 -0.472932 0.679322
v -0.267626 0.299809 0.420456
v -0.137041 0.307629 -0.736714
v -0.118307 -0.472932 -0.633680
v 0.613955 -0.472932 -0.136104
v 0.448909 0.439238 -0.203630
v -0.210291 0.377116 -0.352624
v -0.462610 0.336689 -0.302915
v -0.513536 -0.472932 -0.190281
v -0.015954 -0.472932 0.700328
v 0.068487 0.296389 0.465758
v 0.236810 0.472932 -0.296696
v 0.251492 0.302623 -0.720470
v 0.168240 -0.472932 -0.657325
v 0.009931 -0.313468 0.768344
v -0.234012 -0.324198 0.745332
v -0.524393 -0.329629 0.420712
v -0.632961 -0.289401 -0.185453
v -0.423069 -0.252827 -0.544455
v -0.154466 -0.205545 -0.741758
v 0.163919 -0.212483 -0.768344
v 0.582052 -0.277149 -0.584966
v 0.632961 -0.331798 -0.130550
v 0.262945 -0.320005 0.594205
v -0.535822 0.022253 -0.221147
v -0.467278 -0.163636 0.331903
v -0.253180 -0.119938 0.599529
v -0.009604 -0.103400 0.618497
v 0.245011 -0.128181 0.436875
v 0.525668 0.048062 -0.119258
v 0.498415 0.101705 -0.533391
v 0.213855 0.144823 -0.693146
v -0.144529 0.154514 -0.688715
v -0.379346 0.105503 -0.518814
v 0.405768 -0.472932 0.270901
v 0.423542 -0.325123 0.279640
v 0.366825 -0.051687 0.195497
v 0.336628 0.361000 0.181160
v 0.058675 0.374788 0.238075
v -0.242741 0.348401 0.220141
v -0.440889 0.294634 0.162475
v -0.497028 -0.082955 0.091863
v -0.571515 -0.312169 0.157619
v -0.466080 -0.472932 0.183368
vt 0.151489 0.035940
vt 0.205495 0.017239
vt 0.228624 0.042186
vt 0.141955 0.074920
vt 0.187521 0.198234
vt 0.232651 0.190130
vt 0.233973 0.229019
vt 0.191911 0.235326
vt 0.158917 0.530967
vt 0.229720 0.525021
vt 0.227045 0.586925
vt 0.162278 0.590197
vt 0.515931 0.118411
vt 0.528072 0.194294
vt 0.496987 0.199510
vt 0.483179 0.123564
vt 0.016286 0.211142
vt 0.020165 0.147192
vt 0.055356 0.163979
vt 0.056376 0.221564
vt 0.272868 0.001992
vt 0.276434 0.038481
vt 0.303043 0.183218
vt 0.297384 0.230194
vt 0.295563 0.532378
vt 0.294547 0.591529
vt 0.547595 0.294378
vt 0.556329 0.381966
vt 0.512504 0.399301
vt 0.518343 0.298116
vt 0.244145 0.420949
vt 0.232173 0.346509
vt 0.321708 0.340055
vt 0.319112 0.424892
vt 0.183699 0.332111
vt 0.197249 0.395622
vt 0.001944 0.366321
vt 0.011759 0.297520
vt 0.056598 0.293836
vt 0.058273 0.381468
vt 0.338842 0.007691
vt 0.340234 0.041229
vt 0.351147 0.190982
vt 0.352056 0.245464
vt 0.360584 0.325561
vt 0.365435 0.405458
vt 0.392224 0.554177
vt 0.381910 0.599471
vt 0.225098 0.094890
vt 0.280580 0.092110
vt 0.151667 0.117053
vt 0.108423 0.237534
vt 0.095349 0.183728
vt 0.140977 0.383467
vt 0.120881 0.309303
vt 0.235389 0.449660
vt 0.171886 0.447871
vt 0.313947 0.457418
vt 0.385294 0.464315
vt 0.434910 0.302125
vt 0.425022 0.394422
vt 0.441881 0.160441
vt 0.437125 0.221733
vt 0.351330 0.097170
vn -0.579467 -0.160549 0.799026
vn -0.438184 0.204621 0.875286
vn -0.735005 -0.220440 0.641228
vn -0.754016 0.233662 0.613891
vn -0.214313 0.947251 0.238296
vn -0.168881 0.979633 0.108619
vn -0.448823 0.843591 0.294809
vn -0.304866 0.936252 0.174611
vn -0.580720 -0.076778 -0.810475
vn -0.535322 -0.451959 -0.713557
vn -0.749579 -0.113056 -0.652188
vn -0.621675 -0.556458 -0.551248
vn 0.882406 -0.132796 0.451358
vn 0.874060 0.161255 0.458275
vn 0.882254 -0.130818 0.452233
vn 0.883485 0.134043 0.448873
vn -0.846010 -0.522227 0.107453
vn -0.962211 -0.225240 0.153028
vn -0.840278 -0.531024 0.109296
vn -0.980442 -0.089446 0.175308
vn -0.070911 -0.382690 0.921152
vn -0.101625 0.239849 0.965477
vn -0.045419 0.982238 0.182057
vn 0.082563 0.943378 0.321281
vn -0.084678 -0.079892 -0.993200
vn -0.059274 -0.048683 -0.997054
vn -0.081057 -0.387063 -0.918483
vn -0.075652 -0.392062 -0.916823
vn 0.970469 -0.122511 -0.207802
vn 0.951426 -0.269209 -0.149384
vn 0.983914 0.142143 -0.108205
vn 0.991591 0.100420 -0.081624
vn 0.011073 0.984334 -0.175968
vn -0.097898 0.963514 -0.249112
vn -0.049913 0.947282 -0.316489
vn -0.024938 0.937299 -0.347633
vn -0.176333 0.979386 -0.098536
vn -0.082944 0.984381 -0.155288
vn -0.714866 -0.497261 -0.491628
vn -0.856319 -0.085351 -0.509346
vn 0.406021 -0.111003 0.907097
vn 0.526163 0.312824 0.790755
vn 0.489714 -0.334322 0.805238
vn 0.563504 0.144955 0.813297
vn 0.192975 0.897616 0.396290
vn 0.097410 0.959440 0.264549
vn 0.127485 0.932260 -0.338584
vn 0.257448 0.933747 -0.248673
vn 0.414571 -0.050049 -0.908640
vn 0.399294 -0.032495 -0.916247
vn 0.326746 -0.369049 -0.870080
vn 0.331006 -0.380477 -0.863523
vn -0.445848 0.301526 0.842794
vn -0.108059 0.381710 0.917944
vn -0.343631 0.353372 0.870084
vn -0.120098 0.374691 0.919338
vn -0.784648 0.122667 0.607684
vn -0.715673 0.207661 0.666850
vn -0.979682 0.119021 0.161424
vn -0.979382 0.116192 0.165259
vn -0.979959 0.116770 0.161384
vn -0.978244 0.163084 0.128228
vn -0.891778 0.092458 -0.442927
vn -0.902388 0.071803 -0.424901
vn -0.833562 0.005410 -0.552400
vn -0.769364 -0.074214 -0.634485
vn -0.598005 -0.212974 -0.772679
vn -0.578801 -0.176361 -0.796169
vn -0.019860 -0.298183 -0.954302
vn -0.003242 -0.265025 -0.964236
vn 0.025688 -0.206391 -0.978132
vn 0.038785 -0.179466 -0.982999
vn 0.483386 -0.048341 -0.874072
vn 0.532445 -0.124137 -0.837313
vn 0.510299 -0.089095 -0.855370
vn 0.616621 -0.274816 -0.737737
vn 0.982096 0.183911 -0.040806
vn 0.977094 0.203648 -0.061759
vn 0.978809 0.197260 -0.054962
vn 0.967488 0.234491 -0.094770
vn 0.894080 -0.010812 0.447777
vn 0.895934 0.050067 0.441356
vn 0.926423 0.046615 0.373588
vn 0.916310 0.147792 0.372200
vn 0.582405 0.188353 0.790776
vn 0.534226 0.165725 0.828938
vn 0.473005 0.137460 0.870271
vn 0.342344 0.078644 0.936278
vn -0.898882 0.384755 0.209699
vn -0.916962 0.338824 0.210661
vn -0.520189 0.484890 0.703054
vn -0.712088 0.505625 0.487107
vn -0.102079 0.571483 0.814240
vn 0.498397 0.552167 0.668365
vn 0.512239 0.572769 0.639959
vn 0.810123 0.373835 0.451606
vn 0.836064 0.281568 0.470867
vn 0.966308 0.250744 -0.058105
vn 0.974835 0.220059 -0.035646
vn 0.448362 0.177741 -0.876002
vn 0.499253 0.111076 -0.859307
vn -0.037520 0.181674 -0.982643
vn -0.006502 0.206814 -0.978359
vn -0.599052 0.132855 -0.789612
vn -0.750838 0.138754 -0.645747
vn -0.871114 0.179961 -0.456918
vn 0.881610 -0.135739 0.452039
vn 0.873221 0.124773 0.471080
vn 0.840164 0.222608 0.494540
vn 0.903434 0.166460 0.395093
vn 0.915233 0.248074 0.317503
vn -0.127855 0.981783 0.140554
vn 0.060170 0.974600 0.215718
vn -0.175755 0.981733 0.072867
vn -0.171157 0.983979 0.049913
vn -0.975791 0.191623 0.105416
vn -0.967757 0.242781 0.067105
vn -0.981766 -0.030440 0.187638
vn -0.923928 0.313146 0.219764
vn -0.833831 -0.540760 0.110923
s 1
g stone_b_three pCube9
f 9/2/1 24/3/2 1/1/3
f 1/1/3 24/3/2 25/4/4
s 2
f 10/6/5 48/7/6 3/5/7
f 3/5/7 48/7/6 49/8/8
s 3
f 28/10/9 12/11/10 27/9/11
f 27/9/11 12/11/10 7/12/12
s 4
f 43/14/13 44/15/14 2/13/15
f 2/13/15 44/15/14 32/16/16
s 5
f 1/18/17 25/19/18 52/17/19
f 52/17/19 25/19/18 51/20/20
s 1
f 9/2/1 18/21/21 24/3/2
f 24/3/2 18/21/21 23/22/22
s 2
f 48/7/6 10/6/5 47/24/23
f 47/24/23 10/6/5 19/23/24
s 6
f 28/10/25 29/25/26 12/11/27
f 12/11/27 29/25/26 22/26/28
s 7
f 13/27/29 8/28/30 31/30/31
f 31/30/31 8/28/30 30/29/32
s 8
f 11/31/33 15/32/34 21/34/35
f 21/34/35 15/32/34 20/33/36
f 16/35/37 15/32/34 5/36/38
f 5/36/38 15/32/34 11/31/33
s 3
f 7/37/12 17/38/39 27/40/11
f 27/40/11 17/38/39 26/39/40
s 9
f 2/41/41 32/42/42 18/21/43
f 18/21/43 32/42/42 23/22/44
s 2
f 19/23/24 4/43/45 47/24/23
f 47/24/23 4/43/45 46/44/46
s 8
f 21/34/35 20/33/36 6/46/47
f 6/46/47 20/33/36 14/45/48
s 10
f 29/25/49 30/47/50 22/26/51
f 22/26/51 30/47/50 8/48/52
s 11
f 35/49/53 36/50/54 10/6/55
f 10/6/55 36/50/54 19/23/56
f 34/51/57 35/49/53 3/5/58
f 3/5/58 35/49/53 10/6/55
s 12
f 34/53/59 3/5/60 50/52/61
f 50/52/61 3/5/60 49/8/62
s 13
f 33/55/63 16/35/64 42/54/65
f 42/54/65 16/35/64 5/36/66
f 11/31/67 41/56/68 5/36/66
f 5/36/66 41/56/68 42/57/65
s 14
f 41/56/69 11/31/70 40/58/71
f 40/58/71 11/31/70 21/34/72
s 15
f 39/59/73 40/58/74 6/46/75
f 6/46/75 40/58/74 21/34/76
s 16
f 38/60/77 39/61/78 14/45/79
f 14/45/79 39/61/78 6/46/80
s 17
f 37/62/81 45/63/82 4/43/83
f 4/43/83 45/63/82 46/44/84
s 18
f 36/50/85 37/64/86 19/23/87
f 19/23/87 37/64/86 4/43/88
s 5
f 25/19/18 34/53/89 51/20/20
f 51/20/20 34/53/89 50/52/90
s 1
f 24/3/2 35/49/91 25/4/4
f 25/4/4 35/49/91 34/51/92
f 23/22/22 36/50/93 24/3/2
f 24/3/2 36/50/93 35/49/91
s 9
f 23/22/44 32/42/42 36/50/94
f 36/50/94 32/42/42 37/64/95
s 4
f 32/16/16 44/15/14 37/62/96
f 37/62/96 44/15/14 45/63/97
s 7
f 31/30/31 30/29/32 38/60/98
f 38/60/98 30/29/32 39/61/99
s 10
f 30/47/50 29/25/49 39/59/100
f 39/59/100 29/25/49 40/58/101
s 6
f 28/10/25 41/56/102 29/25/26
f 29/25/26 41/56/102 40/58/103
s 3
f 41/56/104 28/10/9 42/57/105
f 42/57/105 28/10/9 27/9/11
f 26/39/40 33/55/106 27/40/11
f 27/40/11 33/55/106 42/54/105
s 4
f 43/14/13 13/27/107 44/15/14
f 44/15/14 13/27/107 31/30/108
f 44/15/14 31/30/108 45/63/97
f 45/63/97 31/30/108 38/60/109
s 17
f 45/63/82 38/60/110 46/44/84
f 46/44/84 38/60/110 14/45/111
s 2
f 47/24/23 46/44/46 20/33/112
f 20/33/112 46/44/46 14/45/113
f 48/7/6 47/24/23 15/32/114
f 15/32/114 47/24/23 20/33/112
f 49/8/8 48/7/6 16/35/115
f 16/35/115 48/7/6 15/32/114
s 12
f 50/52/61 49/8/62 33/55/116
f 33/55/116 49/8/62 16/35/117
s 5
f 51/20/20 50/52/90 26/39/118
f 26/39/118 50/52/90 33/55/119
f 52/17/19 51/20/20 17/38/120
f 17/38/120 51/20/20 26/39/118
