# This file uses centimeters as units for non-parametric coordinates.

g default
v -0.300457 -0.241937 0.323567
v 0.080209 -0.241937 0.333182
v -0.306541 0.005596 0.187822
v 0.113879 -0.037555 0.296481
v -0.242380 -0.016264 -0.326654
v 0.302731 0.002789 -0.348907
v -0.226682 -0.241937 -0.306798
v 0.273583 -0.241937 -0.300628
v -0.198752 -0.241937 0.469584
v -0.169918 0.111541 0.255812
v -0.096403 0.055504 -0.406601
v -0.083340 -0.241937 -0.445940
v 0.349890 -0.241937 -0.100894
v 0.309301 0.076316 -0.081312
v -0.042445 0.241937 -0.191507
v -0.332315 0.040780 -0.158856
v -0.358924 -0.241937 -0.136769
v -0.011972 -0.241937 0.484231
v -0.007772 0.128293 0.286654
v 0.108406 0.241937 -0.175390
v 0.174511 0.054776 -0.398047
v 0.116462 -0.241937 -0.462427
v 0.006077 -0.130747 0.531657
v -0.164018 -0.138229 0.515611
v -0.345423 -0.168580 0.350290
v -0.440500 -0.159423 -0.139071
v -0.265383 -0.161068 -0.372182
v -0.093067 -0.134286 -0.510805
v 0.107049 -0.141106 -0.531657
v 0.308350 -0.176461 -0.363247
v 0.440500 -0.143528 -0.095120
v 0.141326 -0.178849 0.367235
vt 0.361487 0.620963
vt 0.397634 0.596277
vt 0.417237 0.608611
vt 0.369168 0.638196
vt 0.390637 0.696984
vt 0.426846 0.684313
vt 0.468059 0.766952
vt 0.405553 0.775982
vt 0.419370 0.857144
vt 0.465886 0.861692
vt 0.463072 0.887434
vt 0.414323 0.880504
vt 0.542957 0.610470
vt 0.604347 0.717216
vt 0.582170 0.730340
vt 0.525713 0.621119
vt 0.341461 0.790301
vt 0.320663 0.679858
vt 0.339239 0.671356
vt 0.361969 0.781372
vt 0.453596 0.579599
vt 0.453987 0.603794
vt 0.461253 0.673845
vt 0.493139 0.760226
vt 0.510311 0.860337
vt 0.522196 0.880033
vt 0.614341 0.772536
vt 0.600844 0.791035
vt 0.461172 0.818815
vt 0.523369 0.808845
vt 0.421438 0.815701
vt 0.367333 0.838879
vt 0.392006 0.838082
vt 0.497362 0.585386
vt 0.498536 0.605311
vt 0.498648 0.647985
vt 0.534822 0.738845
vt 0.552736 0.800484
vt 0.567200 0.845090
vt 0.576068 0.863493
vn -0.668700 -0.579569 0.465768
vn -0.484007 -0.270728 0.832132
vn -0.681081 0.426024 0.595510
vn -0.391016 0.462545 0.795713
vn -0.645967 0.753151 0.124460
vn -0.418341 0.894546 0.157412
vn -0.584691 0.806887 -0.084084
vn -0.334417 0.927707 -0.165909
vn -0.335830 0.106500 -0.935882
vn -0.325900 -0.547841 -0.770493
vn -0.651204 -0.097908 -0.752561
vn -0.514259 -0.674441 -0.529781
vn 0.569186 -0.742280 0.353621
vn 0.714455 -0.677723 0.173912
vn 0.828551 -0.128169 0.545047
vn 0.970377 0.052975 0.235717
vn -0.700968 -0.700609 -0.133383
vn -0.803155 -0.579129 0.139829
vn -0.989554 0.049258 -0.135483
vn -0.981252 -0.032053 0.190047
vn 0.342838 -0.461753 0.818075
vn 0.294016 0.419145 0.858995
vn 0.328617 0.861614 0.386824
vn 0.398986 0.916896 -0.010564
vn 0.272805 0.176483 -0.945744
vn 0.295596 -0.553416 -0.778687
vn 0.716220 -0.641994 -0.273627
vn 0.893971 -0.150705 -0.422023
vn -0.295180 0.753400 -0.587586
vn 0.362723 0.786563 -0.499750
vn -0.589368 0.614267 -0.524711
vn -0.594309 -0.658134 -0.462230
vn -0.804087 0.005971 -0.594482
vn 0.571878 -0.742396 0.349003
vn 0.815171 0.052371 0.576848
vn 0.611173 0.775890 0.156404
vn 0.678757 0.528112 0.510281
vn 0.444016 0.861153 -0.247520
vn 0.633148 -0.109388 -0.766262
vn 0.495454 -0.723216 -0.481129
vn 0.118387 0.704977 0.699280
vn -0.430012 0.656266 0.620004
vn -0.675797 0.577775 0.457683
vn -0.901303 0.399399 0.167728
vn -0.874680 0.448476 -0.183857
vn -0.797899 0.292472 -0.527083
vn -0.246774 0.494324 -0.833515
vn -0.601950 0.354733 -0.715416
vn 0.325423 0.420645 -0.846852
vn 0.386616 0.085580 -0.918262
vn 0.900707 0.295100 -0.318815
vn 0.825158 0.473046 0.308775
vn 0.752231 0.408737 0.516800
vn 0.698529 0.495296 0.516468
s 1
g stone_m_two pCube9
f 1/1/1 9/2/2 25/4/3
f 25/4/3 9/2/2 24/3/4
s 2
f 3/5/5 10/6/6 16/8/7
f 16/8/7 10/6/6 15/7/8
s 3
f 28/10/9 12/11/10 27/9/11
f 27/9/11 12/11/10 7/12/12
s 4
f 2/13/13 13/14/14 32/16/15
f 32/16/15 13/14/14 31/15/16
s 5
f 17/17/17 1/18/18 26/20/19
f 26/20/19 1/18/18 25/19/20
s 1
f 9/2/2 18/21/21 24/3/4
f 24/3/4 18/21/21 23/22/22
s 2
f 10/6/6 19/23/23 15/7/8
f 15/7/8 19/23/23 20/24/24
s 3
f 28/10/9 29/25/25 12/11/10
f 12/11/10 29/25/25 22/26/26
s 4
f 8/27/27 30/28/28 13/14/14
f 13/14/14 30/28/28 31/15/16
s 2
f 11/29/29 15/7/8 21/30/30
f 21/30/30 15/7/8 20/24/24
f 15/7/8 11/29/29 16/8/7
f 16/8/7 11/29/29 5/31/31
s 5
f 7/32/32 17/17/17 27/33/33
f 27/33/33 17/17/17 26/20/19
s 1
f 2/34/34 32/35/35 18/21/21
f 18/21/21 32/35/35 23/22/22
s 2
f 20/24/24 19/23/23 14/37/36
f 14/37/36 19/23/23 4/36/37
f 20/24/24 14/37/36 21/30/30
f 21/30/30 14/37/36 6/38/38
s 3
f 29/25/25 30/39/39 22/26/26
f 22/26/26 30/39/39 8/40/40
s 1
f 23/22/22 19/23/41 24/3/4
f 24/3/4 19/23/41 10/6/42
f 24/3/4 10/6/42 25/4/3
f 25/4/3 10/6/42 3/5/43
s 5
f 25/19/20 3/5/44 26/20/19
f 26/20/19 3/5/44 16/8/45
f 26/20/19 16/8/45 27/33/33
f 27/33/33 16/8/45 5/31/46
s 3
f 11/29/47 28/10/9 5/31/48
f 5/31/48 28/10/9 27/9/11
f 28/10/9 11/29/47 29/25/25
f 29/25/25 11/29/47 21/30/49
f 29/25/25 21/30/49 30/39/39
f 30/39/39 21/30/49 6/38/50
s 4
f 30/28/28 6/38/51 31/15/16
f 31/15/16 6/38/51 14/37/52
f 32/16/15 31/15/16 4/36/53
f 4/36/53 31/15/16 14/37/52
s 1
f 32/35/35 4/36/54 23/22/22
f 23/22/22 4/36/54 19/23/41
