# This file uses centimeters as units for non-parametric coordinates.

g default
v -0.123608 -0.156362 0.172964
v 0.144843 -0.156362 0.207959
v -0.144561 0.026458 0.129590
v 0.126389 0.010510 0.139328
v -0.152199 0.000947 -0.184458
v 0.181588 -0.002284 -0.140321
v -0.137002 -0.156362 -0.156966
v 0.136988 -0.156362 -0.125897
v -0.066422 -0.156362 0.270909
v -0.067816 0.038013 0.197086
v -0.073070 0.069412 -0.275400
v -0.039410 -0.156362 -0.272037
v 0.163483 -0.156362 0.052325
v 0.188276 0.044225 0.004222
v -0.045557 0.148980 -0.141187
v -0.174089 0.040710 -0.031403
v -0.170163 -0.156362 0.037792
v 0.069429 -0.156362 0.284742
v 0.066886 0.064214 0.182904
v 0.051226 0.156362 -0.152554
v 0.073465 0.054299 -0.267641
v 0.048198 -0.156362 -0.264590
v 0.086771 -0.102518 0.315257
v -0.078631 -0.111618 0.298846
v -0.151418 -0.105228 0.194613
v -0.200684 -0.098844 0.035618
v -0.146326 -0.093531 -0.199873
v -0.056458 -0.081322 -0.303136
v 0.060274 -0.088091 -0.315257
v 0.163800 -0.110721 -0.153776
v 0.200683 -0.095240 0.045531
v 0.178500 -0.093782 0.220047
vt 0.609675 0.817439
vt 0.634783 0.803285
vt 0.638971 0.812573
vt 0.615625 0.828824
vt 0.628145 0.864760
vt 0.644981 0.850749
vt 0.655825 0.917144
vt 0.624696 0.900100
vt 0.626486 0.966196
vt 0.655382 0.970206
vt 0.658061 0.987424
vt 0.619059 0.980604
vt 0.736594 0.833880
vt 0.742921 0.870044
vt 0.728281 0.873981
vt 0.720874 0.834302
vt 0.582125 0.885797
vt 0.583545 0.851479
vt 0.596576 0.848610
vt 0.595551 0.886129
vt 0.671554 0.796455
vt 0.674316 0.808847
vt 0.675331 0.853579
vt 0.673454 0.917926
vt 0.680666 0.970278
vt 0.688432 0.982681
vt 0.750030 0.913078
vt 0.739194 0.921122
vt 0.652944 0.942492
vt 0.680461 0.941847
vt 0.623584 0.938821
vt 0.587191 0.934703
vt 0.602734 0.944086
vt 0.699800 0.801792
vt 0.701253 0.820118
vt 0.693896 0.855139
vt 0.702918 0.887919
vt 0.713148 0.923607
vt 0.721546 0.952818
vt 0.727735 0.963551
vn -0.713078 -0.564075 0.416340
vn -0.437837 -0.570213 0.695094
vn -0.778690 0.205310 0.592866
vn -0.387577 0.335160 0.858750
vn -0.260460 0.956359 0.132431
vn -0.260880 0.924431 0.278153
vn -0.572894 0.811239 0.116978
vn -0.376531 0.925924 0.029834
vn -0.395134 -0.018750 -0.918432
vn -0.410937 -0.479808 -0.775187
vn -0.738043 -0.210696 -0.641015
vn -0.666870 -0.485190 -0.565574
vn 0.867430 -0.486592 0.103892
vn 0.855488 -0.517803 -0.004409
vn 0.988826 0.086601 0.121338
vn 0.994886 -0.059664 0.081494
vn -0.791992 -0.546210 0.272771
vn -0.950862 -0.054304 0.304815
vn -0.878366 -0.476438 0.038485
vn -0.999487 -0.016442 0.027484
vn 0.214597 -0.539569 0.814134
vn 0.248047 0.381665 0.890396
vn 0.103952 0.948633 0.298814
vn 0.346119 0.933474 -0.093956
vn 0.530589 -0.008514 -0.847587
vn 0.519529 -0.578595 -0.628743
vn 0.829481 -0.546946 -0.113188
vn 0.947457 -0.280628 -0.153539
vn -0.413779 0.789128 -0.453942
vn 0.470091 0.703483 -0.533035
vn -0.751960 0.612754 -0.243081
vn -0.925843 -0.312234 -0.212895
vn -0.976388 -0.065146 -0.205968
vn 0.646121 -0.482156 0.591653
vn 0.683727 0.356053 0.636981
vn 0.568322 0.814964 0.113333
vn 0.756345 0.463117 0.462023
vn 0.752802 0.597250 -0.276736
vn 0.798851 -0.187836 -0.571450
vn 0.649940 -0.635962 -0.416089
vn -0.311007 0.553098 0.772889
vn 0.229006 0.644405 0.729588
vn -0.645227 0.364994 0.671164
vn -0.939720 0.233666 0.249653
vn -0.987333 0.136132 -0.081496
vn -0.990537 -0.040165 -0.131236
vn -0.349921 0.132086 -0.927420
vn -0.762799 0.043031 -0.645202
vn 0.521166 0.158953 -0.838523
vn 0.752319 -0.041827 -0.657470
vn 0.989531 -0.059558 -0.131460
vn 0.981162 0.129694 0.143179
vn 0.883164 0.392053 0.257519
vn 0.749142 0.596793 0.287443
s 1
g stone_s_two pCube9
f 1/1/1 9/2/2 25/4/3
f 25/4/3 9/2/2 24/3/4
s 2
f 3/5/5 10/6/6 16/8/7
f 16/8/7 10/6/6 15/7/8
s 3
f 28/10/9 12/11/10 27/9/11
f 27/9/11 12/11/10 7/12/12
s 4
f 2/13/13 13/14/14 32/16/15
f 32/16/15 13/14/14 31/15/16
s 5
f 1/18/17 25/19/18 17/17/19
f 17/17/19 25/19/18 26/20/20
s 1
f 9/2/2 18/21/21 24/3/4
f 24/3/4 18/21/21 23/22/22
s 2
f 10/6/6 19/23/23 15/7/8
f 15/7/8 19/23/23 20/24/24
s 3
f 28/10/9 29/25/25 12/11/10
f 12/11/10 29/25/25 22/26/26
s 4
f 13/14/14 8/27/27 31/15/16
f 31/15/16 8/27/27 30/28/28
s 2
f 15/7/8 20/24/24 11/29/29
f 11/29/29 20/24/24 21/30/30
f 16/8/7 15/7/8 5/31/31
f 5/31/31 15/7/8 11/29/29
s 5
f 17/17/19 26/20/20 7/32/32
f 7/32/32 26/20/20 27/33/33
s 1
f 18/21/21 2/34/34 23/22/22
f 23/22/22 2/34/34 32/35/35
s 2
f 20/24/24 19/23/23 14/37/36
f 14/37/36 19/23/23 4/36/37
f 21/30/30 20/24/24 6/38/38
f 6/38/38 20/24/24 14/37/36
s 3
f 29/25/25 30/39/39 22/26/26
f 22/26/26 30/39/39 8/40/40
s 1
f 24/3/4 23/22/22 10/6/41
f 10/6/41 23/22/22 19/23/42
f 24/3/4 10/6/41 25/4/3
f 25/4/3 10/6/41 3/5/43
s 5
f 25/19/18 3/5/44 26/20/20
f 26/20/20 3/5/44 16/8/45
f 26/20/20 16/8/45 27/33/33
f 27/33/33 16/8/45 5/31/46
s 3
f 11/29/47 28/10/9 5/31/48
f 5/31/48 28/10/9 27/9/11
f 29/25/25 28/10/9 21/30/49
f 21/30/49 28/10/9 11/29/47
f 29/25/25 21/30/49 30/39/39
f 30/39/39 21/30/49 6/38/50
s 4
f 30/28/28 6/38/51 31/15/16
f 31/15/16 6/38/51 14/37/52
f 32/16/15 31/15/16 4/36/53
f 4/36/53 31/15/16 14/37/52
s 1
f 23/22/22 32/35/35 19/23/42
f 19/23/42 32/35/35 4/36/54
