# This file uses centimeters as units for non-parametric coordinates.

mtllib wall_plant.mtl
g default
v -0.500000 0.500000 0.025126
v 0.500000 0.500000 0.025126
v -0.500000 -0.500000 0.025126
v 0.500000 -0.500000 0.025126
v 0.105210 0.334367 0.016813
v 0.246065 0.334367 0.016813
v 0.105210 0.199900 -0.025126
v 0.246065 0.199900 -0.025126
v -0.007196 0.297749 0.016813
v 0.133658 0.297749 0.016813
v -0.007196 0.163282 -0.025126
v 0.133658 0.163282 -0.025126
v 0.206406 0.180588 0.016813
v 0.347260 0.180588 0.016813
v 0.206406 0.046121 -0.025126
v 0.347260 0.046121 -0.025126
v -0.317063 0.008818 0.016813
v -0.176208 0.008818 0.016813
v -0.317063 -0.125649 -0.025126
v -0.176208 -0.125649 -0.025126
v -0.136348 -0.066397 0.016813
v 0.004507 -0.066397 0.016813
v -0.136348 -0.200864 -0.025126
v 0.004507 -0.200864 -0.025126
v -0.251750 -0.088226 0.016813
v -0.110895 -0.088226 0.016813
v -0.251750 -0.222693 -0.025126
v -0.110895 -0.222693 -0.025126
v -0.378615 -0.200911 0.016813
v -0.237761 -0.200911 0.016813
v -0.378615 -0.335378 -0.025126
v -0.237761 -0.335378 -0.025126
v 0.047423 -0.249213 0.016813
v 0.188278 -0.249213 0.016813
v 0.047423 -0.383680 -0.025126
v 0.188278 -0.383680 -0.025126
v 0.153637 -0.195065 0.016813
v 0.294492 -0.195065 0.016813
v 0.153637 -0.329532 -0.025126
v 0.294492 -0.329532 -0.025126
v 0.177027 -0.133673 0.016813
v 0.317882 -0.133673 0.016813
v 0.177027 -0.268139 -0.025126
v 0.317882 -0.268139 -0.025126
v 0.027991 -0.027373 0.016813
v 0.168846 -0.027373 0.016813
v 0.027991 -0.161839 -0.025126
v 0.168846 -0.161839 -0.025126
v -0.340833 0.344991 0.016813
v -0.199978 0.344991 0.016813
v -0.340833 0.210524 -0.025126
v -0.199978 0.210524 -0.025126
v -0.173934 0.401624 0.016813
v -0.033079 0.401624 0.016813
v -0.173934 0.267158 -0.025126
v -0.033079 0.267158 -0.025126
v -0.291497 0.215179 0.016813
v -0.150642 0.215179 0.016813
v -0.291497 0.080712 -0.025126
v -0.150642 0.080712 -0.025126
vt 0.866700 0.992993
vt 0.003262 0.992994
vt 0.003263 0.129557
vt 0.866700 0.129557
vt 0.127787 0.124116
vt 0.003312 0.124116
vt 0.003312 0.005287
vt 0.127787 0.005287
vt 0.258804 0.124116
vt 0.134329 0.124116
vt 0.134329 0.005287
vt 0.258804 0.005287
vt 0.391492 0.124116
vt 0.267018 0.124116
vt 0.267018 0.005287
vt 0.391492 0.005287
vt 0.523720 0.124116
vt 0.399245 0.124116
vt 0.399245 0.005287
vt 0.523720 0.005287
vt 0.653885 0.124116
vt 0.529410 0.124116
vt 0.529410 0.005287
vt 0.653885 0.005287
vt 0.786107 0.124116
vt 0.661632 0.124116
vt 0.661632 0.005287
vt 0.786107 0.005287
vt 0.918330 0.124116
vt 0.793856 0.124116
vt 0.793856 0.005286
vt 0.918330 0.005286
vt 0.998423 0.992993
vt 0.873948 0.992993
vt 0.873948 0.874164
vt 0.998422 0.874164
vt 0.998422 0.869457
vt 0.873947 0.869457
vt 0.873947 0.750627
vt 0.998422 0.750627
vt 0.999272 0.745920
vt 0.874798 0.745920
vt 0.874798 0.627091
vt 0.999272 0.627091
vt 0.999272 0.498846
vt 0.874797 0.498846
vt 0.874797 0.380016
vt 0.999272 0.380016
vt 0.999278 0.622383
vt 0.874803 0.622383
vt 0.874803 0.503554
vt 0.999278 0.503554
vt 0.999271 0.375308
vt 0.874797 0.375308
vt 0.874797 0.256479
vt 0.999271 0.256479
vt 0.997765 0.251771
vt 0.873291 0.251771
vt 0.873291 0.132941
vt 0.997765 0.132942
vn 0.000000 0.000000 -1.000000
vn 0.000000 0.000000 -1.000000
vn 0.000000 0.000000 -1.000000
vn 0.000000 0.000000 -1.000000
vn 0.000000 0.297745 -0.954646
vn 0.000000 0.297745 -0.954646
vn 0.000000 0.297745 -0.954646
vn 0.000000 0.297745 -0.954645
vn 0.000000 0.297745 -0.954646
vn 0.000000 0.297745 -0.954646
vn 0.000000 0.297745 -0.954646
vn 0.000000 0.297745 -0.954646
vn 0.000000 0.297745 -0.954646
vn 0.000000 0.297745 -0.954646
vn 0.000000 0.297745 -0.954646
vn 0.000000 0.297745 -0.954646
vn 0.000000 0.297745 -0.954646
vn 0.000000 0.297745 -0.954646
vn 0.000000 0.297745 -0.954646
vn 0.000000 0.297745 -0.954646
vn 0.000000 0.297745 -0.954646
vn 0.000000 0.297745 -0.954646
vn 0.000000 0.297745 -0.954646
vn 0.000000 0.297745 -0.954646
vn 0.000000 0.297745 -0.954646
vn 0.000000 0.297745 -0.954646
vn 0.000000 0.297745 -0.954646
vn 0.000000 0.297745 -0.954646
vn 0.000000 0.297745 -0.954646
vn 0.000000 0.297745 -0.954646
vn 0.000000 0.297745 -0.954646
vn 0.000000 0.297745 -0.954646
vn 0.000000 0.297745 -0.954646
vn 0.000000 0.297745 -0.954646
vn 0.000000 0.297745 -0.954646
vn 0.000000 0.297745 -0.954646
vn 0.000000 0.297745 -0.954646
vn 0.000000 0.297745 -0.954646
vn 0.000000 0.297745 -0.954646
vn 0.000000 0.297745 -0.954646
vn 0.000000 0.297745 -0.954646
vn 0.000000 0.297745 -0.954646
vn 0.000000 0.297745 -0.954646
vn 0.000000 0.297745 -0.954646
vn 0.000000 0.297745 -0.954646
vn 0.000000 0.297745 -0.954646
vn 0.000000 0.297745 -0.954646
vn 0.000000 0.297745 -0.954646
vn 0.000000 0.297745 -0.954646
vn 0.000000 0.297745 -0.954646
vn 0.000000 0.297745 -0.954646
vn 0.000000 0.297745 -0.954645
vn 0.000000 0.297745 -0.954646
vn 0.000000 0.297745 -0.954646
vn 0.000000 0.297745 -0.954646
vn 0.000000 0.297745 -0.954646
vn 0.000000 0.297745 -0.954646
vn 0.000000 0.297745 -0.954646
vn 0.000000 0.297745 -0.954646
vn 0.000000 0.297745 -0.954646
s 1
g wall_plants
usemtl wall_plant_sg
f 1/1/1 2/2/2 3/4/3
f 3/4/3 2/2/2 4/3/4
s 2
f 5/5/5 6/6/6 7/8/7
f 7/8/7 6/6/6 8/7/8
s 3
f 9/9/9 10/10/10 11/12/11
f 11/12/11 10/10/10 12/11/12
s 4
f 13/13/13 14/14/14 15/16/15
f 15/16/15 14/14/14 16/15/16
s 5
f 17/17/17 18/18/18 19/20/19
f 19/20/19 18/18/18 20/19/20
s 6
f 21/21/21 22/22/22 23/24/23
f 23/24/23 22/22/22 24/23/24
s 7
f 25/25/25 26/26/26 27/28/27
f 27/28/27 26/26/26 28/27/28
s 8
f 29/29/29 30/30/30 31/32/31
f 31/32/31 30/30/30 32/31/32
s 9
f 33/33/33 34/34/34 35/36/35
f 35/36/35 34/34/34 36/35/36
s 10
f 37/37/37 38/38/38 39/40/39
f 39/40/39 38/38/38 40/39/40
s 11
f 41/41/41 42/42/42 43/44/43
f 43/44/43 42/42/42 44/43/44
s 12
f 45/45/45 46/46/46 47/48/47
f 47/48/47 46/46/46 48/47/48
s 13
f 49/49/49 50/50/50 51/52/51
f 51/52/51 50/50/50 52/51/52
s 14
f 53/53/53 54/54/54 55/56/55
f 55/56/55 54/54/54 56/55/56
s 15
f 57/57/57 58/58/58 59/60/59
f 59/60/59 58/58/58 60/59/60
